<svg width="1440" height="1024" viewBox="0 0 1440 1024" fill="none" xmlns="http://www.w3.org/2000/svg">
<g clip-path="url(#clip0_122_233)">
<rect width="1440" height="1024" fill="white"/>
<g filter="url(#filter0_i_122_233)">
<path d="M-235.188 8.13741L1293.44 -451.356L1797.76 1053.48L-287.238 1213.05C-287.238 1213.05 -40.1196 597.299 -53.3365 528.942C-66.5535 460.586 -235.188 8.13741 -235.188 8.13741Z" fill="url(#paint0_linear_122_233)"/>
</g>
<mask id="mask0_122_233" style="mask-type:alpha" maskUnits="userSpaceOnUse" x="302" y="-398" width="1535" height="1506">
<path d="M302.673 -120.713L1332.31 -397.357L1836.62 1107.48L385.809 1034.66C385.809 1034.66 498.446 468.19 482.355 400.886C466.264 333.583 302.673 -120.713 302.673 -120.713Z" fill="url(#paint1_linear_122_233)"/>
</mask>
<g mask="url(#mask0_122_233)">
<path d="M348.086 1367.22L666.411 -646M212.875 1504.12L531.2 -509.099M456.182 1393.18L774.507 -620.036M564.278 1419.14L882.602 -594.072M672.374 1445.11L990.699 -568.108M780.47 1471.07L1098.79 -542.144M888.566 1497.04L1206.89 -516.18M996.662 1523L1316.88 -489.738M1131.07 1396.29L1451.28 -616.45M1571 316.907L-223.552 -109.286M1550.11 449.196L-244.446 23.0032M1529.21 581.485L-265.339 155.292M1508.32 713.773L-286.233 287.58M1487.43 846.062L-307.126 419.869M1466.53 978.351L-328.019 552.158M1445.64 1110.64L-349.258 686.768M1302.9 1216.97L-492 793.102" stroke="url(#paint2_linear_122_233)" stroke-opacity="0.5" stroke-width="1.20004"/>
</g>
<mask id="path-4-inside-1_122_233" fill="white">
<path fill-rule="evenodd" clip-rule="evenodd" d="M921.364 91.8147C919.168 90.6202 917.08 91.6675 916.702 94.154L857.01 486.571C856.632 489.057 858.106 492.041 860.302 493.236L1329.25 748.239C1331.44 749.434 1333.53 748.386 1333.91 745.9L1393.6 353.483C1393.98 350.997 1392.5 348.013 1390.31 346.818L921.364 91.8147Z"/>
</mask>
<path d="M916.702 94.154L913.741 93.7177L913.741 93.7178L916.702 94.154ZM921.364 91.8147L919.925 94.4583L919.925 94.4583L921.364 91.8147ZM857.01 486.571L859.97 487.007L859.97 487.007L857.01 486.571ZM860.302 493.236L858.863 495.879L858.863 495.879L860.302 493.236ZM1329.25 748.239L1327.81 750.883L1327.81 750.883L1329.25 748.239ZM1333.91 745.9L1336.87 746.336L1336.87 746.336L1333.91 745.9ZM1393.6 353.483L1390.64 353.047L1390.64 353.047L1393.6 353.483ZM1390.31 346.818L1391.75 344.174L1391.75 344.174L1390.31 346.818ZM919.663 94.5902C919.7 94.3443 919.763 94.238 919.775 94.2199C919.784 94.2073 919.756 94.2508 919.678 94.2898C919.6 94.3287 919.549 94.325 919.564 94.3259C919.586 94.3272 919.708 94.3401 919.925 94.4583L922.803 89.1712C921.034 88.2088 918.918 87.9679 917.024 88.9182C915.13 89.8684 914.046 91.7145 913.741 93.7177L919.663 94.5902ZM859.97 487.007L919.663 94.5902L913.741 93.7178L854.049 486.135L859.97 487.007ZM861.742 490.592C861.283 490.343 860.755 489.809 860.375 489.041C859.996 488.273 859.891 487.526 859.97 487.007L854.049 486.135C853.75 488.102 854.193 490.091 855.006 491.735C855.818 493.379 857.125 494.934 858.863 495.879L861.742 490.592ZM1330.69 745.596L861.742 490.592L858.863 495.879L1327.81 750.883L1330.69 745.596ZM1330.95 745.464C1330.91 745.71 1330.85 745.816 1330.84 745.834C1330.83 745.846 1330.85 745.803 1330.93 745.764C1331.01 745.725 1331.06 745.729 1331.05 745.728C1331.02 745.727 1330.9 745.714 1330.69 745.596L1327.81 750.883C1329.58 751.845 1331.69 752.086 1333.59 751.136C1335.48 750.185 1336.56 748.339 1336.87 746.336L1330.95 745.464ZM1390.64 353.047L1330.95 745.464L1336.87 746.336L1396.56 353.919L1390.64 353.047ZM1388.87 349.462C1389.33 349.711 1389.86 350.245 1390.24 351.013C1390.61 351.781 1390.72 352.528 1390.64 353.047L1396.56 353.919C1396.86 351.952 1396.42 349.963 1395.6 348.319C1394.79 346.675 1393.49 345.12 1391.75 344.174L1388.87 349.462ZM919.925 94.4583L1388.87 349.462L1391.75 344.174L922.803 89.1712L919.925 94.4583Z" fill="white" mask="url(#path-4-inside-1_122_233)"/>
<path d="M918.339 95.2678L1381.23 346.98C1384.37 348.689 1386.48 352.958 1385.94 356.515L1327.29 742.081C1326.75 745.639 1323.76 747.137 1320.62 745.428L857.729 493.716C854.586 492.007 852.477 487.738 853.018 484.18L911.669 98.6144C912.21 95.0571 915.196 93.5587 918.339 95.2678Z" stroke="white" stroke-width="3"/>
<rect x="1.08713" y="2.20054" width="516.405" height="340.616" rx="6.5" transform="matrix(0.875492 0.476077 -0.150738 0.990952 918.884 124.466)" stroke="white" stroke-width="3"/>
<mask id="path-8-inside-2_122_233" fill="white">
<path fill-rule="evenodd" clip-rule="evenodd" d="M901.334 508.536C901.343 508.53 901.342 508.516 901.333 508.511V508.511C901.328 508.509 901.325 508.504 901.325 508.499L901.13 504.618C900.936 500.773 897.671 497.832 893.838 498.049L885.458 498.523C883.982 498.607 882.514 498.278 881.218 497.573L870.88 491.952C862.331 487.303 848.887 488.064 840.853 493.652L563.665 686.451C562.598 687.194 561.348 687.625 560.054 687.699L558.896 687.764C555.675 687.947 553.196 690.713 553.359 693.944L553.652 699.774C553.653 699.785 553.662 699.793 553.672 699.792V699.792C553.682 699.791 553.69 699.798 553.691 699.808C554.134 702.891 556.349 705.823 560.305 707.974L749.496 810.853C750.02 811.138 750.661 811.102 751.153 810.76V810.76C752.938 809.518 755.926 809.349 757.826 810.382L814.942 841.441C815.945 841.987 816.592 843.017 816.65 844.164L816.816 847.46C816.816 847.463 816.819 847.465 816.822 847.465V847.465C816.823 847.465 816.825 847.465 816.825 847.466L1006.86 950.802C1015.41 955.451 1028.85 954.69 1036.88 949.102L1318.37 753.315C1322.39 750.519 1324.29 747.043 1324.12 743.686C1324.12 743.68 1324.12 743.675 1324.13 743.674V743.674C1324.13 743.674 1324.14 743.669 1324.14 743.663L1323.86 738.1C1323.7 735.022 1321.09 732.667 1318.02 732.841L1316.32 732.937C1314.97 733.013 1313.63 732.714 1312.45 732.072L1288.45 719.02C1286.35 717.875 1283.77 718.021 1281.79 719.397V719.397C1279.81 720.773 1277.24 720.919 1275.13 719.774L900.35 515.974C897.851 514.615 897.673 511.082 900.021 509.449L900.836 508.882C900.886 508.847 900.946 508.826 901.008 508.823L901.172 508.813C901.265 508.808 901.337 508.728 901.332 508.635L901.328 508.548C901.327 508.543 901.33 508.539 901.334 508.536V508.536Z"/>
</mask>
<path d="M870.88 491.952L869.441 494.595L869.441 494.595L870.88 491.952ZM840.853 493.652L842.549 496.118L842.549 496.118L840.853 493.652ZM560.305 707.974L561.744 705.331L561.744 705.331L560.305 707.974ZM757.826 810.382L756.386 813.025L756.386 813.025L757.826 810.382ZM1006.86 950.802L1005.42 953.445L1005.42 953.445L1006.86 950.802ZM1036.88 949.102L1035.19 946.636L1035.19 946.636L1036.88 949.102ZM1318.37 753.315L1316.67 750.849L1316.67 750.849L1318.37 753.315ZM900.836 508.882L899.139 506.416L900.836 508.882ZM1323.86 738.1L1326.85 737.931L1323.86 738.1ZM1324.14 743.663L1327.13 743.493L1324.14 743.663ZM1324.12 743.686L1321.13 743.859L1324.12 743.686ZM816.825 847.466L815.386 850.109L816.825 847.466ZM553.691 699.808L550.727 700.254L553.691 699.808ZM814.942 841.441L816.381 838.797L814.942 841.441ZM900.35 515.974L898.911 518.618L900.35 515.974ZM900.021 509.449L898.325 506.983L900.021 509.449ZM881.218 497.573L879.779 500.217L881.218 497.573ZM1275.13 719.774L1273.69 722.417L1275.13 719.774ZM901.13 504.618L898.139 504.787L901.13 504.618ZM563.665 686.451L565.362 688.917L563.665 686.451ZM1288.45 719.02L1289.89 716.376L1288.45 719.02ZM749.496 810.853L750.935 808.21L749.496 810.853ZM1312.45 732.072L1311.02 734.715L1312.45 732.072ZM901.325 508.499L898.334 508.669L901.325 508.499ZM898.139 504.787L898.334 508.669L904.316 508.33L904.121 504.448L898.139 504.787ZM885.609 501.523L893.989 501.049L893.687 495.049L885.307 495.524L885.609 501.523ZM869.441 494.595L879.779 500.217L882.657 494.93L872.319 489.308L869.441 494.595ZM842.549 496.118C846.009 493.712 850.807 492.247 855.824 491.963C860.841 491.679 865.76 492.594 869.441 494.595L872.319 489.308C867.451 486.661 861.373 485.632 855.522 485.963C849.671 486.294 843.731 488.004 839.156 491.186L842.549 496.118ZM565.362 688.917L842.549 496.118L839.156 491.186L561.969 683.985L565.362 688.917ZM559.047 690.764L560.205 690.699L559.903 684.699L558.745 684.764L559.047 690.764ZM556.643 699.605L556.35 693.774L550.368 694.113L550.661 699.944L556.643 699.605ZM561.744 705.331C558.343 703.482 556.926 701.242 556.656 699.362L550.727 700.254C551.343 704.54 554.355 708.165 558.866 710.618L561.744 705.331ZM750.935 808.21L561.744 705.331L558.866 710.618L748.057 813.497L750.935 808.21ZM759.265 807.738C757.721 806.899 755.919 806.626 754.295 806.718C752.671 806.81 750.907 807.285 749.456 808.294L752.849 813.226C753.184 812.993 753.807 812.762 754.597 812.718C755.388 812.673 756.03 812.832 756.386 813.025L759.265 807.738ZM816.381 838.797L759.265 807.738L756.386 813.025L813.503 844.084L816.381 838.797ZM819.807 847.29L819.641 843.995L813.659 844.333L813.825 847.629L819.807 847.29ZM1008.3 948.158L818.265 844.822L815.386 850.109L1005.42 953.445L1008.3 948.158ZM1035.19 946.636C1031.73 949.042 1026.93 950.507 1021.91 950.791C1016.9 951.075 1011.98 950.16 1008.3 948.158L1005.42 953.445C1010.29 956.093 1016.36 957.122 1022.22 956.791C1028.07 956.459 1034.01 954.75 1038.58 951.568L1035.19 946.636ZM1316.67 750.849L1035.19 946.636L1038.58 951.568L1320.06 755.781L1316.67 750.849ZM1321.13 743.859C1321.23 745.86 1320.13 748.445 1316.67 750.849L1320.06 755.781C1324.65 752.592 1327.35 748.227 1327.11 743.514L1321.13 743.859ZM1320.87 738.269L1321.15 743.832L1327.13 743.493L1326.85 737.931L1320.87 738.269ZM1316.47 735.937L1318.17 735.841L1317.87 729.841L1316.16 729.937L1316.47 735.937ZM1287.01 721.663L1311.02 734.715L1313.89 729.428L1289.89 716.376L1287.01 721.663ZM898.911 518.618L1273.69 722.417L1276.57 717.13L901.789 513.331L898.911 518.618ZM899.139 506.416L898.325 506.983L901.718 511.915L902.532 511.348L899.139 506.416ZM901.021 505.814L900.856 505.823L901.159 511.823L901.323 511.813L901.021 505.814ZM898.337 508.718L898.341 508.804L904.323 508.465L904.319 508.379L898.337 508.718ZM901.323 511.813C903.068 511.715 904.411 510.216 904.323 508.465L898.341 508.804C898.262 507.241 899.462 505.902 901.021 505.814L901.323 511.813ZM902.532 511.348C902.126 511.631 901.651 511.795 901.159 511.823L900.856 505.823C900.241 505.858 899.647 506.063 899.139 506.416L902.532 511.348ZM1326.85 737.931C1326.61 733.195 1322.59 729.573 1317.87 729.841L1318.17 735.841C1319.59 735.76 1320.8 736.848 1320.87 738.269L1326.85 737.931ZM1324.28 746.674C1325.94 746.581 1327.21 745.156 1327.13 743.493L1321.15 743.832C1321.06 742.181 1322.33 740.768 1323.98 740.675L1324.28 746.674ZM1327.11 743.514C1327.19 745.163 1325.93 746.581 1324.28 746.674L1323.98 740.675C1322.32 740.769 1321.04 742.197 1321.13 743.859L1327.11 743.514ZM816.973 850.465C816.419 850.497 815.87 850.372 815.386 850.109L818.265 844.822C817.779 844.558 817.228 844.434 816.671 844.465L816.973 850.465ZM813.825 847.629C813.909 849.289 815.318 850.559 816.973 850.465L816.671 844.465C818.32 844.372 819.724 845.637 819.807 847.29L813.825 847.629ZM553.823 702.792C552.288 702.879 550.946 701.779 550.727 700.254L556.656 699.362C556.434 697.818 555.075 696.704 553.521 696.792L553.823 702.792ZM550.661 699.944C550.745 701.611 552.161 702.886 553.823 702.792L553.521 696.792C555.162 696.699 556.56 697.959 556.643 699.605L550.661 699.944ZM558.745 684.764C553.872 685.04 550.121 689.226 550.368 694.113L556.35 693.774C556.27 692.201 557.478 690.853 559.047 690.764L558.745 684.764ZM813.503 844.084C813.594 844.134 813.654 844.228 813.659 844.333L819.641 843.995C819.531 841.806 818.297 839.839 816.381 838.797L813.503 844.084ZM901.789 513.331C901.247 513.036 901.208 512.269 901.718 511.915L898.325 506.983C894.138 509.895 894.455 516.195 898.911 518.618L901.789 513.331ZM885.307 495.524C884.384 495.576 883.467 495.37 882.657 494.93L879.779 500.217C881.561 501.186 883.58 501.638 885.609 501.523L885.307 495.524ZM1280.09 716.931C1279.05 717.659 1277.68 717.736 1276.57 717.13L1273.69 722.417C1276.79 724.102 1280.58 723.887 1283.49 721.863L1280.09 716.931ZM904.121 504.448C903.843 498.947 899.172 494.739 893.687 495.049L893.989 501.049C896.17 500.926 898.028 502.599 898.139 504.787L904.121 504.448ZM904.319 508.379C904.371 509.416 903.883 510.408 903.03 511.002L899.637 506.07C898.776 506.669 898.284 507.671 898.337 508.718L904.319 508.379ZM561.969 683.985C561.358 684.41 560.643 684.657 559.903 684.699L560.205 690.699C562.052 690.594 563.838 689.977 565.362 688.917L561.969 683.985ZM1289.89 716.376C1286.79 714.692 1283.01 714.907 1280.09 716.931L1283.49 721.863C1284.54 721.135 1285.9 721.057 1287.01 721.663L1289.89 716.376ZM899.894 511.155C897.946 510.096 897.807 507.342 899.637 506.07L903.03 511.002C904.878 509.717 904.738 506.937 902.772 505.868L899.894 511.155ZM748.057 813.497C749.572 814.321 751.426 814.216 752.849 813.226L749.456 808.294C749.896 807.988 750.468 807.956 750.935 808.21L748.057 813.497ZM1316.16 729.937C1315.37 729.982 1314.59 729.806 1313.89 729.428L1311.02 734.715C1312.68 735.622 1314.57 736.045 1316.47 735.937L1316.16 729.937ZM902.772 505.868C903.679 506.361 904.264 507.293 904.316 508.33L898.334 508.669C898.387 509.716 898.977 510.657 899.894 511.155L902.772 505.868Z" fill="white" mask="url(#path-8-inside-2_122_233)"/>
<path d="M869.687 482.248L896.726 496.952C897.242 497.232 897.28 498.003 896.796 498.339C894.412 499.998 894.604 503.795 897.141 505.174L1273.94 710.07C1276.53 711.481 1279.63 711.305 1282.07 709.61C1283.63 708.528 1285.6 708.416 1287.26 709.316L1316.24 725.075C1320.24 727.25 1321.99 730.077 1322.12 732.671C1322.25 735.266 1320.79 738.274 1317.04 740.888L1035.55 936.675C1031.8 939.282 1026.7 940.814 1021.46 941.111C1016.21 941.408 1010.99 940.461 1007 938.291L819.019 836.072C819.561 835.376 819.893 834.531 819.845 833.576C819.769 832.071 818.781 830.942 817.555 830.275L757.966 797.871C756.731 797.2 755.238 796.959 753.841 797.038C752.444 797.117 750.983 797.525 749.823 798.332C749.767 798.371 749.696 798.375 749.637 798.343L560.445 695.464C556.447 693.29 554.694 690.463 554.563 687.868C554.432 685.274 555.891 682.265 559.648 679.651L841.131 483.865C844.88 481.257 849.982 479.725 855.226 479.428C860.47 479.131 865.697 480.078 869.687 482.248Z" stroke="white" stroke-width="3"/>
<g filter="url(#filter1_ii_122_233)">
<rect x="0.0792358" y="1.57243" width="465.436" height="161.339" rx="6.5" transform="matrix(0.875492 0.476077 -0.822668 0.572211 860.974 512.165)" stroke="white" stroke-width="3"/>
</g>
<rect x="0.0792358" y="1.57243" width="252.783" height="149.341" rx="6.5" transform="matrix(0.875492 0.476077 -0.822668 0.572211 808.94 663.049)" stroke="white" stroke-width="3"/>
<rect x="0.0792358" y="1.57243" width="23.5975" height="23.5975" rx="6.5" transform="matrix(0.875492 0.476077 -0.822668 0.572211 860.472 516.193)" stroke="white" stroke-width="3"/>
<rect x="-2.54724" y="0.144202" width="23.5975" height="23.5975" rx="6.5" transform="matrix(-0.875492 -0.476077 -0.822668 0.572211 1230.89 752.181)" stroke="white" stroke-width="3"/>
<rect x="0.0792358" y="1.57243" width="23.5975" height="23.5975" rx="6.5" transform="matrix(0.875492 0.476077 -0.822668 0.572211 888.956 531.69)" stroke="white" stroke-width="3"/>
<rect x="-2.54724" y="0.144202" width="23.5975" height="23.5975" rx="6.5" transform="matrix(-0.875492 -0.476077 -0.822668 0.572211 1202.4 736.683)" stroke="white" stroke-width="3"/>
<rect x="-2.54724" y="0.144202" width="45.1656" height="23.5975" rx="6.5" transform="matrix(-0.875492 -0.476077 -0.822668 0.572211 1204.19 770.758)" stroke="white" stroke-width="3"/>
<rect x="0.0792358" y="1.57243" width="23.5975" height="23.5975" rx="6.5" transform="matrix(0.875492 0.476077 -0.822668 0.572211 917.471 547.192)" stroke="white" stroke-width="3"/>
<rect x="-2.54724" y="0.144202" width="23.5975" height="23.5975" rx="6.5" transform="matrix(-0.875492 -0.476077 -0.822668 0.572211 1173.88 721.184)" stroke="white" stroke-width="3"/>
<rect x="-2.54724" y="0.144202" width="23.5975" height="23.5975" rx="6.5" transform="matrix(-0.875492 -0.476077 -0.822668 0.572211 1156.82 744.988)" stroke="white" stroke-width="3"/>
<rect x="-2.54724" y="0.144202" width="61.7355" height="23.5975" rx="6.5" transform="matrix(-0.875492 -0.476077 -0.822668 0.572211 1177.48 789.332)" stroke="white" stroke-width="3"/>
<rect x="0.0792358" y="1.57243" width="23.5975" height="23.5975" rx="6.5" transform="matrix(0.875492 0.476077 -0.822668 0.572211 945.966 562.693)" stroke="white" stroke-width="3"/>
<rect x="-2.54724" y="0.144202" width="23.5975" height="23.5975" rx="6.5" transform="matrix(-0.875492 -0.476077 -0.822668 0.572211 1145.38 705.681)" stroke="white" stroke-width="3"/>
<rect x="-2.54724" y="0.144202" width="23.5975" height="23.5975" rx="6.5" transform="matrix(-0.875492 -0.476077 -0.822668 0.572211 1128.29 729.492)" stroke="white" stroke-width="3"/>
<rect x="-2.54724" y="0.144202" width="23.5975" height="23.5975" rx="6.5" transform="matrix(-0.875492 -0.476077 -0.822668 0.572211 1115.59 755.677)" stroke="white" stroke-width="3"/>
<rect x="-2.54724" y="0.144202" width="23.5975" height="23.5975" rx="6.5" transform="matrix(-0.875492 -0.476077 -0.822668 0.572211 1066.09 761.85)" stroke="white" stroke-width="3"/>
<rect x="-2.54724" y="0.144202" width="23.5975" height="10.923" rx="5.46151" transform="matrix(-0.875492 -0.476077 -0.822668 0.572211 1084.15 784.605)" stroke="white" stroke-width="3"/>
<rect x="-2.54724" y="0.144202" width="23.5975" height="23.5975" rx="6.5" transform="matrix(-0.875492 -0.476077 -0.822668 0.572211 1123.1 792.849)" stroke="white" stroke-width="3"/>
<rect x="-2.54724" y="0.144202" width="23.5975" height="10.9228" rx="5.46138" transform="matrix(-0.875492 -0.476077 -0.822668 0.572211 1140.36 815.162)" stroke="white" stroke-width="3"/>
<rect x="0.0792358" y="1.57243" width="23.5975" height="23.5975" rx="6.5" transform="matrix(0.875492 0.476077 -0.822668 0.572211 974.475 578.195)" stroke="white" stroke-width="3"/>
<rect x="-2.54724" y="0.144202" width="23.5975" height="23.5975" rx="6.5" transform="matrix(-0.875492 -0.476077 -0.822668 0.572211 1116.88 690.175)" stroke="white" stroke-width="3"/>
<rect x="-2.54724" y="0.144202" width="23.5975" height="23.5975" rx="6.5" transform="matrix(-0.875492 -0.476077 -0.822668 0.572211 1099.8 713.985)" stroke="white" stroke-width="3"/>
<rect x="-2.54724" y="0.144202" width="23.5975" height="23.5975" rx="6.5" transform="matrix(-0.875492 -0.476077 -0.822668 0.572211 1087.08 740.176)" stroke="white" stroke-width="3"/>
<rect x="-2.54724" y="0.144202" width="29.5585" height="23.5975" rx="6.5" transform="matrix(-0.875492 -0.476077 -0.822668 0.572211 1037.58 746.35)" stroke="white" stroke-width="3"/>
<rect x="-2.54724" y="0.144202" width="29.5585" height="23.5975" rx="6.5" transform="matrix(-0.875492 -0.476077 -0.822668 0.572211 862.02 650.886)" stroke="white" stroke-width="3"/>
<rect x="-2.54724" y="0.144202" width="152.488" height="23.5975" rx="6.5" transform="matrix(-0.875492 -0.476077 -0.822668 0.572211 1003.38 727.749)" stroke="white" stroke-width="3"/>
<rect x="0.0792358" y="1.57243" width="23.5975" height="23.5975" rx="6.5" transform="matrix(0.875492 0.476077 -0.822668 0.572211 1002.98 593.693)" stroke="white" stroke-width="3"/>
<rect x="-2.54724" y="0.144202" width="23.5975" height="23.5975" rx="6.5" transform="matrix(-0.875492 -0.476077 -0.822668 0.572211 1088.37 674.682)" stroke="white" stroke-width="3"/>
<rect x="-2.54724" y="0.144202" width="23.5975" height="23.5975" rx="6.5" transform="matrix(-0.875492 -0.476077 -0.822668 0.572211 1071.3 698.485)" stroke="white" stroke-width="3"/>
<rect x="-2.54724" y="0.144202" width="23.5975" height="23.5975" rx="6.5" transform="matrix(-0.875492 -0.476077 -0.822668 0.572211 1058.58 724.674)" stroke="white" stroke-width="3"/>
<rect x="0.0792358" y="1.57243" width="23.5975" height="23.5975" rx="6.5" transform="matrix(0.875492 0.476077 -0.822668 0.572211 1031.48 609.196)" stroke="white" stroke-width="3"/>
<rect x="-2.54724" y="0.144202" width="23.5975" height="23.5975" rx="6.5" transform="matrix(-0.875492 -0.476077 -0.822668 0.572211 1059.87 659.182)" stroke="white" stroke-width="3"/>
<rect x="-2.54724" y="0.144202" width="23.5975" height="23.5975" rx="6.5" transform="matrix(-0.875492 -0.476077 -0.822668 0.572211 1042.79 682.988)" stroke="white" stroke-width="3"/>
<rect x="-2.54724" y="0.144202" width="23.5975" height="23.5975" rx="6.5" transform="matrix(-0.875492 -0.476077 -0.822668 0.572211 1030.08 709.174)" stroke="white" stroke-width="3"/>
<rect x="0.0792358" y="1.57243" width="23.5975" height="23.5975" rx="6.5" transform="matrix(0.875492 0.476077 -0.822668 0.572211 1059.99 624.696)" stroke="white" stroke-width="3"/>
<rect x="-2.54724" y="0.144202" width="23.5975" height="23.5975" rx="6.5" transform="matrix(-0.875492 -0.476077 -0.822668 0.572211 1031.36 643.682)" stroke="white" stroke-width="3"/>
<rect x="-2.54724" y="0.144202" width="23.5975" height="23.5975" rx="6.5" transform="matrix(-0.875492 -0.476077 -0.822668 0.572211 1014.28 667.489)" stroke="white" stroke-width="3"/>
<rect x="-2.54724" y="0.144202" width="23.5975" height="23.5975" rx="6.5" transform="matrix(-0.875492 -0.476077 -0.822668 0.572211 1001.57 693.677)" stroke="white" stroke-width="3"/>
<rect x="0.0792358" y="1.57243" width="23.5975" height="23.5975" rx="6.5" transform="matrix(0.875492 0.476077 -0.822668 0.572211 1088.51 640.191)" stroke="white" stroke-width="3"/>
<rect x="-2.54724" y="0.144202" width="23.5975" height="23.5975" rx="6.5" transform="matrix(-0.875492 -0.476077 -0.822668 0.572211 1002.85 628.183)" stroke="white" stroke-width="3"/>
<rect x="-2.54724" y="0.144202" width="23.5975" height="23.5975" rx="6.5" transform="matrix(-0.875492 -0.476077 -0.822668 0.572211 985.771 651.982)" stroke="white" stroke-width="3"/>
<rect x="-2.54724" y="0.144202" width="23.5975" height="23.5975" rx="6.5" transform="matrix(-0.875492 -0.476077 -0.822668 0.572211 973.059 678.171)" stroke="white" stroke-width="3"/>
<rect x="0.0792358" y="1.57243" width="23.5975" height="23.5975" rx="6.5" transform="matrix(0.875492 0.476077 -0.822668 0.572211 1117 655.692)" stroke="white" stroke-width="3"/>
<rect x="-2.54724" y="0.144202" width="23.5975" height="23.5975" rx="6.5" transform="matrix(-0.875492 -0.476077 -0.822668 0.572211 974.338 612.685)" stroke="white" stroke-width="3"/>
<rect x="-2.54724" y="0.144202" width="23.5975" height="23.5975" rx="6.5" transform="matrix(-0.875492 -0.476077 -0.822668 0.572211 957.263 636.489)" stroke="white" stroke-width="3"/>
<rect x="-2.54724" y="0.144202" width="23.5975" height="23.5975" rx="6.5" transform="matrix(-0.875492 -0.476077 -0.822668 0.572211 944.578 662.67)" stroke="white" stroke-width="3"/>
<rect x="0.0792358" y="1.57243" width="23.5975" height="23.5975" rx="6.5" transform="matrix(0.875492 0.476077 -0.822668 0.572211 1145.51 671.195)" stroke="white" stroke-width="3"/>
<rect x="-2.54724" y="0.144202" width="23.5975" height="23.5975" rx="6.5" transform="matrix(-0.875492 -0.476077 -0.822668 0.572211 945.85 597.181)" stroke="white" stroke-width="3"/>
<rect x="-2.54724" y="0.144202" width="23.5975" height="23.5975" rx="6.5" transform="matrix(-0.875492 -0.476077 -0.822668 0.572211 928.775 620.988)" stroke="white" stroke-width="3"/>
<rect x="-2.54724" y="0.144202" width="23.5975" height="23.5975" rx="6.5" transform="matrix(-0.875492 -0.476077 -0.822668 0.572211 916.049 647.176)" stroke="white" stroke-width="3"/>
<rect x="0.0792358" y="1.57243" width="23.5975" height="23.5975" rx="6.5" transform="matrix(0.875492 0.476077 -0.822668 0.572211 1173.99 686.699)" stroke="white" stroke-width="3"/>
<rect x="-2.54724" y="0.144202" width="23.5975" height="23.5975" rx="6.5" transform="matrix(-0.875492 -0.476077 -0.822668 0.572211 917.348 581.678)" stroke="white" stroke-width="3"/>
<rect x="-2.54724" y="0.144202" width="23.5975" height="23.5975" rx="6.5" transform="matrix(-0.875492 -0.476077 -0.822668 0.572211 900.259 605.488)" stroke="white" stroke-width="3"/>
<rect x="-2.54724" y="0.144202" width="23.5975" height="23.5975" rx="6.5" transform="matrix(-0.875492 -0.476077 -0.822668 0.572211 887.541 631.674)" stroke="white" stroke-width="3"/>
<rect x="-2.54724" y="0.144202" width="23.5975" height="23.5975" rx="6.5" transform="matrix(-0.875492 -0.476077 -0.822668 0.572211 799.795 617.048)" stroke="white" stroke-width="3"/>
<rect x="-2.54724" y="0.144202" width="23.5975" height="23.5975" rx="6.5" transform="matrix(-0.875492 -0.476077 -0.822668 0.572211 828.303 632.548)" stroke="white" stroke-width="3"/>
<rect x="0.0792358" y="1.57243" width="23.5975" height="23.5975" rx="6.5" transform="matrix(0.875492 0.476077 -0.822668 0.572211 1202.5 702.196)" stroke="white" stroke-width="3"/>
<rect x="-2.54724" y="0.144202" width="23.5975" height="23.5975" rx="6.5" transform="matrix(-0.875492 -0.476077 -0.822668 0.572211 888.84 566.178)" stroke="white" stroke-width="3"/>
<rect x="-2.54724" y="0.144202" width="23.5975" height="23.5975" rx="6.5" transform="matrix(-0.875492 -0.476077 -0.822668 0.572211 871.758 589.985)" stroke="white" stroke-width="3"/>
<rect x="-2.54724" y="0.144202" width="23.5975" height="23.5975" rx="6.5" transform="matrix(-0.875492 -0.476077 -0.822668 0.572211 859.052 616.17)" stroke="white" stroke-width="3"/>
<rect x="-2.54724" y="0.144202" width="23.5975" height="23.5975" rx="6.5" transform="matrix(-0.875492 -0.476077 -0.822668 0.572211 771.293 601.545)" stroke="white" stroke-width="3"/>
<rect x="0.0792358" y="1.57243" width="34.1743" height="23.5975" rx="6.5" transform="matrix(0.875492 0.476077 -0.822668 0.572211 1231.02 717.695)" stroke="white" stroke-width="3"/>
<rect x="-2.54724" y="0.144202" width="34.1743" height="23.5975" rx="6.5" transform="matrix(-0.875492 -0.476077 -0.822668 0.572211 860.331 550.68)" stroke="white" stroke-width="3"/>
<rect x="-2.54724" y="0.144202" width="45.1649" height="23.5975" rx="6.5" transform="matrix(-0.875492 -0.476077 -0.822668 0.572211 843.249 574.483)" stroke="white" stroke-width="3"/>
<rect x="-2.54724" y="0.144202" width="61.1537" height="23.5975" rx="6.5" transform="matrix(-0.875492 -0.476077 -0.822668 0.572211 830.544 600.672)" stroke="white" stroke-width="3"/>
<rect x="0.0792358" y="1.57243" width="16.9126" height="153.442" rx="6.5" transform="matrix(0.875492 0.476077 -0.822668 0.572211 828.832 498.999)" stroke="white" stroke-width="3"/>
<rect x="0.0792358" y="1.57243" width="16.9126" height="153.442" rx="6.5" transform="matrix(0.875492 0.476077 -0.822668 0.572211 1278.07 743.285)" stroke="white" stroke-width="3"/>
<path d="M1157.05 240.181C1156.56 242.194 1154.8 242.963 1153.2 242.092C1151.6 241.22 1150.57 238.936 1151.06 236.924C1151.54 234.911 1153.3 234.142 1154.91 235.013C1156.51 235.885 1157.53 238.168 1157.05 240.181Z" stroke="white" stroke-width="3"/>
<path d="M1154.82 238.326C1154.56 239.403 1153.64 239.769 1152.84 239.336C1152.04 238.902 1151.49 237.733 1151.75 236.656C1152.01 235.579 1152.93 235.213 1153.73 235.646C1154.53 236.08 1155.08 237.249 1154.82 238.326Z" stroke="white" stroke-width="3"/>
<ellipse cx="0.348781" cy="0.363637" rx="0.348781" ry="0.363637" transform="matrix(0.875492 0.476077 -0.234934 0.974804 1152.46 234.617)" fill="white"/>
<path fill-rule="evenodd" clip-rule="evenodd" d="M738.948 793.774C738.823 794.038 738.504 794.144 738.249 794.006L559.224 697.238C558.989 697.111 558.894 696.82 559.009 696.576V696.576C559.134 696.312 559.453 696.207 559.708 696.344L738.733 793.112C738.968 793.24 739.063 793.53 738.948 793.774V793.774Z" stroke="white" stroke-width="3"/>
<path fill-rule="evenodd" clip-rule="evenodd" d="M1005.26 937.949C1005.14 938.213 1004.82 938.319 1004.56 938.181L825.537 841.413C825.301 841.286 825.207 840.995 825.322 840.751V840.751C825.447 840.488 825.766 840.382 826.021 840.519L1005.05 937.287C1005.28 937.415 1005.38 937.705 1005.26 937.949V937.949Z" stroke="white" stroke-width="3"/>
<path d="M1091.08 68.949C1091.08 68.9453 1091.08 68.9421 1091.07 68.9395C1091.08 68.9368 1091.08 68.9333 1091.08 68.9292C1091.09 68.9203 1091.1 68.9063 1091.13 68.8933C1091.15 68.8797 1091.19 68.8704 1091.22 68.8685C1091.25 68.8667 1091.28 68.8724 1091.31 68.883C1091.34 68.893 1091.35 68.9053 1091.36 68.9134C1091.37 68.917 1091.37 68.9202 1091.37 68.9228C1091.37 68.9256 1091.37 68.929 1091.36 68.9331C1091.35 68.942 1091.34 68.956 1091.32 68.969C1091.29 68.9826 1091.26 68.992 1091.22 68.9938C1091.19 68.9956 1091.16 68.99 1091.13 68.9794C1091.11 68.9693 1091.09 68.957 1091.08 68.949Z" fill="white" stroke="white" stroke-width="3"/>
<g opacity="0.39" filter="url(#filter2_f_122_233)">
<path d="M1315.86 742.991L1315.02 741.758L1315.02 741.758L1315.86 742.991ZM1314.93 724.455L1315.65 723.134L1315.65 723.134L1314.93 724.455ZM895.83 504.554L895.111 505.876L895.83 504.554ZM1207.55 812.88L1208.28 811.567L1207.55 812.88ZM1216 812.455L1215.15 811.222L1216 812.455ZM1272.63 709.45L1271.91 710.772L1272.63 709.45ZM1285.95 708.696L1285.23 710.018L1285.95 708.696ZM974.673 681.047L973.365 681.786L974.673 681.047ZM977.725 684.109L976.989 685.422L977.725 684.109ZM975.981 680.309L866.828 484.256L864.212 485.733L973.365 681.786L975.981 680.309ZM1208.28 811.567L978.461 682.797L976.989 685.422L1206.81 814.193L1208.28 811.567ZM1216.84 813.688L1316.71 744.224L1315.02 741.758L1215.15 811.222L1216.84 813.688ZM1316.71 744.224C1321.01 741.234 1323.31 737.318 1323.11 733.287C1322.91 729.255 1320.22 725.621 1315.65 723.134L1314.21 725.777C1318.18 727.938 1319.98 730.779 1320.12 733.456C1320.25 736.133 1318.75 739.16 1315.02 741.758L1316.71 744.224ZM1315.65 723.134L1286.67 707.374L1285.23 710.018L1314.21 725.777L1315.65 723.134ZM1273.35 708.128L896.55 503.232L895.111 505.876L1271.91 710.772L1273.35 708.128ZM896.136 495.01L869.097 480.306L867.658 482.95L894.697 497.653L896.136 495.01ZM896.472 501.676C898.87 500.007 898.688 496.398 896.136 495.01L894.697 497.653C895.293 497.977 895.335 498.82 894.775 499.21L896.472 501.676ZM896.55 503.232C895.954 502.908 895.911 502.065 896.472 501.676L894.775 499.21C892.376 500.878 892.558 504.488 895.111 505.876L896.55 503.232ZM1206.81 814.193C1209.97 815.96 1213.86 815.764 1216.84 813.688L1215.15 811.222C1213.1 812.643 1210.44 812.777 1208.28 811.567L1206.81 814.193ZM1278.44 707.84C1276.93 708.892 1274.96 709.004 1273.35 708.128L1271.91 710.772C1274.51 712.186 1277.69 712.006 1280.14 710.306L1278.44 707.84ZM866.828 484.256C866.528 483.717 866.658 483.258 866.849 483.027C866.945 482.911 867.051 482.853 867.148 482.834C867.235 482.816 867.401 482.81 867.658 482.95L869.097 480.306C867.38 479.373 865.589 479.857 864.547 481.118C863.548 482.327 863.322 484.135 864.212 485.733L866.828 484.256ZM1286.67 707.374C1284.07 705.96 1280.88 706.14 1278.44 707.84L1280.14 710.306C1281.65 709.254 1283.62 709.142 1285.23 710.018L1286.67 707.374ZM973.365 681.786C974.214 683.311 975.468 684.57 976.989 685.422L978.461 682.797C977.421 682.214 976.562 681.353 975.981 680.309L973.365 681.786Z" fill="white"/>
</g>
<g opacity="0.9" clip-path="url(#clip1_122_233)">
<mask id="mask1_122_233" style="mask-type:luminance" maskUnits="userSpaceOnUse" x="783" y="122" width="489" height="581">
<path d="M1271.9 359.843L834.514 122.61L783.367 464.893L1220.75 702.126L1271.9 359.843Z" fill="white"/>
</mask>
<g mask="url(#mask1_122_233)">
<g filter="url(#filter3_ddf_122_233)">
<path d="M1260.72 353.782L842.878 127.147C838.259 124.641 833.856 127.014 833.044 132.446L784.836 455.056C784.025 460.489 787.112 466.924 791.731 469.43L1209.58 696.065C1214.19 698.57 1218.6 696.198 1219.41 690.765L1267.62 368.155C1268.43 362.722 1265.34 356.287 1260.72 353.782Z" fill="white"/>
</g>
<g filter="url(#filter4_dd_122_233)">
<path d="M979.479 416.23L969.538 410.839C967.406 409.682 965.374 410.777 964.999 413.285L963.253 424.974C962.878 427.482 964.303 430.452 966.435 431.608L976.375 437C978.507 438.156 980.539 437.061 980.914 434.554L982.661 422.864C983.035 420.357 981.611 417.387 979.479 416.23Z" fill="white"/>
</g>
<g filter="url(#filter5_i_122_233)">
<path d="M1015.42 299.107L994.722 287.878C989.111 284.834 983.763 287.717 982.777 294.315L982.777 294.315C981.791 300.914 985.54 308.73 991.151 311.774L1011.85 323.002C1017.46 326.046 1022.81 323.164 1023.8 316.565L1023.8 316.565C1024.78 309.967 1021.04 302.15 1015.42 299.107Z" fill="#FF9416"/>
</g>
<g filter="url(#filter6_d_122_233)">
<path d="M1011.11 319.015C1015.17 321.214 1019.03 319.132 1019.74 314.366C1020.45 309.599 1017.75 303.953 1013.69 301.755C1009.64 299.556 1005.78 301.638 1005.06 306.404C1004.35 311.171 1007.06 316.817 1011.11 319.015Z" fill="white"/>
</g>
<g filter="url(#filter7_i_122_233)">
<path d="M1010.22 333.961L989.514 322.732C983.903 319.688 978.555 322.571 977.569 329.169L977.569 329.169C976.583 335.768 980.332 343.584 985.943 346.628L1006.65 357.856C1012.26 360.9 1017.6 358.018 1018.59 351.419L1018.59 351.419C1019.58 344.821 1015.83 337.004 1010.22 333.961Z" fill="white"/>
</g>
<g filter="url(#filter8_d_122_233)">
<path d="M987.317 343.786C991.37 345.985 995.233 343.903 995.945 339.136C996.658 334.37 993.949 328.724 989.896 326.525C985.843 324.327 981.98 326.409 981.267 331.175C980.555 335.942 983.264 341.588 987.317 343.786Z" fill="white"/>
</g>
<g filter="url(#filter9_dd_122_233)">
<path d="M984.105 385.271L974.165 379.88C972.032 378.723 970 379.818 969.626 382.326L967.879 394.015C967.504 396.523 968.929 399.493 971.061 400.649L981.001 406.041C983.133 407.197 985.165 406.102 985.54 403.595L987.287 391.905C987.662 389.398 986.237 386.428 984.105 385.271Z" fill="#2094FF"/>
</g>
<path d="M973.491 390.361L975.964 396.599L983.024 391.394" stroke="white" stroke-width="4.30878" stroke-linecap="round" stroke-linejoin="round"/>
<g filter="url(#filter10_dd_122_233)">
<path d="M974.738 447.958L964.797 442.566C962.665 441.41 960.633 442.505 960.258 445.012L958.512 456.702C958.137 459.209 959.562 462.179 961.694 463.336L971.634 468.727C973.766 469.884 975.798 468.789 976.173 466.281L977.92 454.592C978.294 452.084 976.87 449.114 974.738 447.958Z" fill="#2094FF"/>
</g>
<path d="M964.124 453.048L966.597 459.285L973.657 454.081" stroke="white" stroke-width="4.30878" stroke-linecap="round" stroke-linejoin="round"/>
<g filter="url(#filter11_i_122_233)">
<path d="M833.044 132.446C833.856 127.014 838.259 124.641 842.878 127.147L1260.72 353.782C1265.34 356.287 1268.43 362.722 1267.62 368.155L1264.85 386.695L830.274 150.987L833.044 132.446Z" fill="#F0F2F2"/>
</g>
<g filter="url(#filter12_d_122_233)">
<path d="M952.857 201.868C953.669 196.435 958.072 194.062 962.691 196.568L1026.86 231.37C1031.47 233.875 1034.56 240.311 1033.75 245.743L1032.95 251.101C1032.2 256.115 1035.05 262.055 1039.31 264.368L1040.22 264.858L942.395 211.8L942.979 212.117C947.243 214.43 951.307 212.24 952.056 207.225L952.857 201.868Z" fill="white" fill-opacity="0.5"/>
</g>
<g filter="url(#filter13_d_122_233)">
<path d="M893.669 169.765C894.481 164.332 898.884 161.959 903.504 164.465L992.811 212.904C997.43 215.41 1000.52 221.845 999.706 227.278L998.905 232.635C998.156 237.65 1001 243.59 1005.27 245.903L1008.85 247.846L880.626 178.298L883.791 180.014C888.055 182.327 892.119 180.137 892.868 175.122L893.669 169.765Z" fill="white"/>
</g>
<g filter="url(#filter14_f_122_233)">
<rect width="134.845" height="161.424" rx="4.23859" transform="matrix(0.870907 0.485221 -0.819393 0.533592 1199.21 486.086)" fill="url(#paint3_linear_122_233)" fill-opacity="0.31"/>
</g>
<path fill-rule="evenodd" clip-rule="evenodd" d="M1159.46 427.602C1159.49 427.607 1160.66 427.57 1161.24 427.551L1161.3 427.808C1161.93 427.761 1162.62 427.921 1163.32 428.312L1272.27 489.013C1274.46 490.231 1275.91 493.231 1275.52 495.715L1261.87 582.296C1261.48 584.78 1259.39 585.807 1257.2 584.589L1148.25 523.888C1146.07 522.67 1144.61 519.67 1145 517.186L1158.66 430.605C1158.84 429.436 1159.4 428.589 1160.17 428.148L1159.46 427.602Z" fill="#868686"/>
<rect width="134.187" height="96.5554" rx="4.54323" transform="matrix(0.870907 0.485221 -0.156094 0.989855 1157.94 426.146)" fill="url(#paint4_linear_122_233)"/>
<rect width="127.95" height="81.9034" transform="matrix(0.870907 0.485221 -0.156094 0.989855 1159.61 434.557)" fill="#FFA216"/>
<path fill-rule="evenodd" clip-rule="evenodd" d="M1155.33 526.149L1155.32 526.145L1155.19 523.547L1150.88 523.671L1147.86 521.988C1145.77 520.821 1142.47 520.915 1140.5 522.199L1072.09 566.749L1069.89 566.812L1070.03 569.613L1070.04 569.612C1070.15 570.354 1070.69 571.071 1071.66 571.612L1118.23 597.558L1118.43 597.43C1118.87 597.145 1119.6 597.124 1120.07 597.383L1134.46 605.402L1134.52 606.634L1134.52 606.634L1181.09 632.579C1183.18 633.746 1186.48 633.652 1188.45 632.368L1257.52 587.393C1258.5 586.75 1258.97 585.931 1258.93 585.126L1258.93 585.126L1258.8 582.457L1256.51 582.522L1249.35 578.53L1247.77 579.561L1153.75 527.18L1155.22 526.219L1155.33 526.216L1155.33 526.153L1155.33 526.149Z" fill="url(#paint5_linear_122_233)"/>
<path d="M1155.21 523.49L1147.74 519.33C1145.64 518.162 1142.35 518.257 1140.38 519.54L1071.31 564.515C1069.34 565.799 1069.44 567.786 1071.54 568.953L1118.11 594.9L1118.3 594.771C1118.74 594.486 1119.47 594.465 1119.94 594.725L1134.54 602.86C1135.01 603.12 1135.03 603.561 1134.59 603.846L1134.39 603.975L1180.96 629.92C1183.06 631.087 1186.35 630.993 1188.33 629.709L1257.39 584.734C1259.36 583.451 1259.26 581.464 1257.17 580.297L1249.22 575.871L1247.64 576.902L1153.62 524.521L1155.21 523.49Z" fill="url(#paint6_linear_122_233)"/>
<g filter="url(#filter15_ii_122_233)">
<rect width="115.394" height="40.4833" rx="1.70371" transform="matrix(0.870907 0.485221 -0.819393 0.533592 1145.11 526.596)" fill="#747577"/>
</g>
<rect x="0.00731376" y="0.144647" width="62.7256" height="37.2437" rx="2.69755" transform="matrix(0.870907 0.485221 -0.819393 0.533592 1132.43 562.395)" fill="url(#paint7_radial_122_233)" stroke="#343434" stroke-width="0.283952"/>
<rect width="6.55202" height="6.55202" rx="0.561697" transform="matrix(0.870907 0.485221 -0.819393 0.533592 1144.99 527.556)" fill="url(#paint8_linear_122_233)"/>
<rect width="6.55202" height="6.55202" rx="0.561697" transform="matrix(-0.870907 -0.485221 -0.819393 0.533592 1237.21 586.857)" fill="url(#paint9_linear_122_233)"/>
<rect width="6.55202" height="6.55202" rx="0.561697" transform="matrix(0.870907 0.485221 -0.819393 0.533592 1151.97 531.447)" fill="url(#paint10_linear_122_233)"/>
<rect width="6.55202" height="6.55202" rx="0.561697" transform="matrix(-0.870907 -0.485221 -0.819393 0.533592 1230.23 582.967)" fill="url(#paint11_linear_122_233)"/>
<rect width="11.8651" height="6.55202" rx="0.561697" transform="matrix(-0.870907 -0.485221 -0.819393 0.533592 1230.66 591.125)" fill="url(#paint12_linear_122_233)"/>
<rect width="6.55202" height="6.55202" rx="0.561697" transform="matrix(0.870907 0.485221 -0.819393 0.533592 1158.95 535.339)" fill="url(#paint13_linear_122_233)"/>
<rect width="6.55202" height="6.55202" rx="0.561697" transform="matrix(-0.870907 -0.485221 -0.819393 0.533592 1223.24 579.075)" fill="url(#paint14_linear_122_233)"/>
<rect width="6.55202" height="6.55202" rx="0.561697" transform="matrix(-0.870907 -0.485221 -0.819393 0.533592 1219.05 584.655)" fill="url(#paint15_linear_122_233)"/>
<rect width="15.9469" height="6.55202" rx="0.561697" transform="matrix(-0.870907 -0.485221 -0.819393 0.533592 1224.1 595.392)" fill="url(#paint16_linear_122_233)"/>
<rect width="6.55202" height="6.55202" rx="0.561697" transform="matrix(0.870907 0.485221 -0.819393 0.533592 1165.94 539.231)" fill="url(#paint17_linear_122_233)"/>
<rect width="6.55202" height="6.55202" rx="0.561697" transform="matrix(-0.870907 -0.485221 -0.819393 0.533592 1216.26 575.183)" fill="url(#paint18_linear_122_233)"/>
<rect width="6.55202" height="6.55202" rx="0.561697" transform="matrix(-0.870907 -0.485221 -0.819393 0.533592 1212.06 580.764)" fill="url(#paint19_linear_122_233)"/>
<rect width="6.55202" height="6.55202" rx="0.561697" transform="matrix(-0.870907 -0.485221 -0.819393 0.533592 1208.94 586.942)" fill="url(#paint20_linear_122_233)"/>
<rect width="6.55202" height="6.55202" rx="0.561697" transform="matrix(-0.870907 -0.485221 -0.819393 0.533592 1196.8 588.095)" fill="url(#paint21_linear_122_233)"/>
<rect width="6.55202" height="3.4298" rx="0.561697" transform="matrix(-0.870907 -0.485221 -0.819393 0.533592 1201.22 593.653)" fill="url(#paint22_linear_122_233)"/>
<rect width="6.55202" height="6.55202" rx="0.561697" transform="matrix(-0.870907 -0.485221 -0.819393 0.533592 1210.77 595.878)" fill="url(#paint23_linear_122_233)"/>
<rect width="6.55202" height="3.42973" rx="0.561697" transform="matrix(-0.870907 -0.485221 -0.819393 0.533592 1215 601.325)" fill="url(#paint24_linear_122_233)"/>
<rect width="6.55202" height="6.55202" rx="0.561697" transform="matrix(0.870907 0.485221 -0.819393 0.533592 1172.92 543.123)" fill="url(#paint25_linear_122_233)"/>
<rect width="6.55202" height="6.55202" rx="0.561697" transform="matrix(-0.870907 -0.485221 -0.819393 0.533592 1209.27 571.29)" fill="url(#paint26_linear_122_233)"/>
<rect width="6.55202" height="6.55202" rx="0.561697" transform="matrix(-0.870907 -0.485221 -0.819393 0.533592 1205.08 576.871)" fill="url(#paint27_linear_122_233)"/>
<rect width="6.55202" height="6.55202" rx="0.561697" transform="matrix(-0.870907 -0.485221 -0.819393 0.533592 1201.95 583.05)" fill="url(#paint28_linear_122_233)"/>
<rect width="8.02047" height="6.55202" rx="0.561697" transform="matrix(-0.870907 -0.485221 -0.819393 0.533592 1189.82 584.203)" fill="url(#paint29_linear_122_233)"/>
<rect width="8.02047" height="6.55202" rx="0.561697" transform="matrix(-0.870907 -0.485221 -0.819393 0.533592 1146.79 560.235)" fill="url(#paint30_linear_122_233)"/>
<rect width="38.3028" height="6.55202" rx="0.561697" transform="matrix(-0.870907 -0.485221 -0.819393 0.533592 1181.43 579.533)" fill="url(#paint31_linear_122_233)"/>
<rect width="6.55202" height="6.55202" rx="0.561697" transform="matrix(0.870907 0.485221 -0.819393 0.533592 1179.91 547.014)" fill="url(#paint32_linear_122_233)"/>
<rect width="6.55202" height="6.55202" rx="0.561697" transform="matrix(-0.870907 -0.485221 -0.819393 0.533592 1202.28 567.4)" fill="url(#paint33_linear_122_233)"/>
<rect width="6.55202" height="6.55202" rx="0.561697" transform="matrix(-0.870907 -0.485221 -0.819393 0.533592 1198.09 572.979)" fill="url(#paint34_linear_122_233)"/>
<rect width="6.55202" height="6.55202" rx="0.561697" transform="matrix(-0.870907 -0.485221 -0.819393 0.533592 1194.97 579.158)" fill="url(#paint35_linear_122_233)"/>
<rect width="6.55202" height="6.55202" rx="0.561697" transform="matrix(0.870907 0.485221 -0.819393 0.533592 1186.89 550.906)" fill="url(#paint36_linear_122_233)"/>
<rect width="6.55202" height="6.55202" rx="0.561697" transform="matrix(-0.870907 -0.485221 -0.819393 0.533592 1195.3 563.508)" fill="url(#paint37_linear_122_233)"/>
<rect width="6.55202" height="6.55202" rx="0.561697" transform="matrix(-0.870907 -0.485221 -0.819393 0.533592 1191.11 569.088)" fill="url(#paint38_linear_122_233)"/>
<rect width="6.55202" height="6.55202" rx="0.561697" transform="matrix(-0.870907 -0.485221 -0.819393 0.533592 1187.99 575.266)" fill="url(#paint39_linear_122_233)"/>
<rect width="6.55202" height="6.55202" rx="0.561697" transform="matrix(0.870907 0.485221 -0.819393 0.533592 1193.88 554.798)" fill="url(#paint40_linear_122_233)"/>
<rect width="6.55202" height="6.55202" rx="0.561697" transform="matrix(-0.870907 -0.485221 -0.819393 0.533592 1188.32 559.616)" fill="url(#paint41_linear_122_233)"/>
<rect width="6.55202" height="6.55202" rx="0.561697" transform="matrix(-0.870907 -0.485221 -0.819393 0.533592 1184.12 565.197)" fill="url(#paint42_linear_122_233)"/>
<rect width="6.55202" height="6.55202" rx="0.561697" transform="matrix(-0.870907 -0.485221 -0.819393 0.533592 1181 571.375)" fill="url(#paint43_linear_122_233)"/>
<rect width="6.55202" height="6.55202" rx="0.561697" transform="matrix(0.870907 0.485221 -0.819393 0.533592 1200.87 558.688)" fill="url(#paint44_linear_122_233)"/>
<rect width="6.55202" height="6.55202" rx="0.561697" transform="matrix(-0.870907 -0.485221 -0.819393 0.533592 1181.33 555.725)" fill="url(#paint45_linear_122_233)"/>
<rect width="6.55202" height="6.55202" rx="0.561697" transform="matrix(-0.870907 -0.485221 -0.819393 0.533592 1177.14 561.304)" fill="url(#paint46_linear_122_233)"/>
<rect width="6.55202" height="6.55202" rx="0.561697" transform="matrix(-0.870907 -0.485221 -0.819393 0.533592 1174.01 567.482)" fill="url(#paint47_linear_122_233)"/>
<rect width="6.55202" height="6.55202" rx="0.561697" transform="matrix(0.870907 0.485221 -0.819393 0.533592 1207.85 562.58)" fill="url(#paint48_linear_122_233)"/>
<rect width="6.55202" height="6.55202" rx="0.561697" transform="matrix(-0.870907 -0.485221 -0.819393 0.533592 1174.34 551.834)" fill="url(#paint49_linear_122_233)"/>
<rect width="6.55202" height="6.55202" rx="0.561697" transform="matrix(-0.870907 -0.485221 -0.819393 0.533592 1170.15 557.414)" fill="url(#paint50_linear_122_233)"/>
<rect width="6.55202" height="6.55202" rx="0.561697" transform="matrix(-0.870907 -0.485221 -0.819393 0.533592 1167.03 563.59)" fill="url(#paint51_linear_122_233)"/>
<rect width="6.55202" height="6.55202" rx="0.561697" transform="matrix(0.870907 0.485221 -0.819393 0.533592 1214.83 566.472)" fill="url(#paint52_linear_122_233)"/>
<rect width="6.55202" height="6.55202" rx="0.561697" transform="matrix(-0.870907 -0.485221 -0.819393 0.533592 1167.36 547.941)" fill="url(#paint53_linear_122_233)"/>
<rect width="6.55202" height="6.55202" rx="0.561697" transform="matrix(-0.870907 -0.485221 -0.819393 0.533592 1163.17 553.522)" fill="url(#paint54_linear_122_233)"/>
<rect width="6.55202" height="6.55202" rx="0.561697" transform="matrix(-0.870907 -0.485221 -0.819393 0.533592 1160.04 559.7)" fill="url(#paint55_linear_122_233)"/>
<rect width="6.55202" height="6.55202" rx="0.561697" transform="matrix(0.870907 0.485221 -0.819393 0.533592 1221.81 570.365)" fill="url(#paint56_linear_122_233)"/>
<rect width="6.55202" height="6.55202" rx="0.561697" transform="matrix(-0.870907 -0.485221 -0.819393 0.533592 1160.38 544.049)" fill="url(#paint57_linear_122_233)"/>
<rect width="6.55202" height="6.55202" rx="0.561697" transform="matrix(-0.870907 -0.485221 -0.819393 0.533592 1156.18 549.63)" fill="url(#paint58_linear_122_233)"/>
<rect width="6.55202" height="6.55202" rx="0.561697" transform="matrix(-0.870907 -0.485221 -0.819393 0.533592 1153.06 555.808)" fill="url(#paint59_linear_122_233)"/>
<rect width="6.55202" height="6.55202" rx="0.561697" transform="matrix(-0.870907 -0.485221 -0.819393 0.533592 1131.55 551.739)" fill="url(#paint60_linear_122_233)"/>
<rect width="6.55202" height="6.55202" rx="0.561697" transform="matrix(-0.870907 -0.485221 -0.819393 0.533592 1138.53 555.631)" fill="url(#paint61_linear_122_233)"/>
<rect width="6.55202" height="6.55202" rx="0.561697" transform="matrix(0.870907 0.485221 -0.819393 0.533592 1228.8 574.256)" fill="url(#paint62_linear_122_233)"/>
<rect width="6.55202" height="6.55202" rx="0.561697" transform="matrix(-0.870907 -0.485221 -0.819393 0.533592 1153.39 540.157)" fill="url(#paint63_linear_122_233)"/>
<rect width="6.55202" height="6.55202" rx="0.561697" transform="matrix(-0.870907 -0.485221 -0.819393 0.533592 1149.2 545.738)" fill="url(#paint64_linear_122_233)"/>
<rect width="6.55202" height="6.55202" rx="0.561697" transform="matrix(-0.870907 -0.485221 -0.819393 0.533592 1146.07 551.916)" fill="url(#paint65_linear_122_233)"/>
<rect width="6.55202" height="6.55202" rx="0.561697" transform="matrix(-0.870907 -0.485221 -0.819393 0.533592 1124.56 547.847)" fill="url(#paint66_linear_122_233)"/>
<rect width="9.15752" height="6.55202" rx="0.561697" transform="matrix(0.870907 0.485221 -0.819393 0.533592 1235.79 578.147)" fill="url(#paint67_linear_122_233)"/>
<rect width="9.15752" height="6.55202" rx="0.561697" transform="matrix(-0.870907 -0.485221 -0.819393 0.533592 1146.4 536.266)" fill="url(#paint68_linear_122_233)"/>
<rect width="11.8649" height="6.55202" rx="0.561697" transform="matrix(-0.870907 -0.485221 -0.819393 0.533592 1142.21 541.846)" fill="url(#paint69_linear_122_233)"/>
<rect width="15.8036" height="6.55202" rx="0.561697" transform="matrix(-0.870907 -0.485221 -0.819393 0.533592 1139.09 548.024)" fill="url(#paint70_linear_122_233)"/>
<rect width="4.90527" height="38.538" transform="matrix(0.870907 0.485221 -0.819393 0.533592 1137.23 523.239)" fill="#4E4E4E" fill-opacity="0.47"/>
<rect width="4.90527" height="38.538" transform="matrix(0.870907 0.485221 -0.819393 0.533592 1247.32 584.572)" fill="#4E4E4E" fill-opacity="0.47"/>
<ellipse cx="1.21225" cy="1.22538" rx="1.21225" ry="1.22538" transform="matrix(0.870907 0.485221 -0.242199 0.969408 1216.6 461.474)" fill="#242424"/>
<ellipse cx="0.233371" cy="0.235899" rx="0.233371" ry="0.235899" transform="matrix(0.870907 0.485221 -0.242199 0.969408 1217.48 463.008)" fill="#838383"/>
<ellipse cx="0.801567" cy="0.810251" rx="0.801567" ry="0.810251" transform="matrix(0.870907 0.485221 -0.242199 0.969408 1216.67 461.817)" fill="url(#paint71_radial_122_233)"/>
<ellipse cx="0.0862285" cy="0.0871627" rx="0.0862285" ry="0.0871627" transform="matrix(0.870907 0.485221 -0.242199 0.969408 1216.97 462.299)" fill="white"/>
<path fill-rule="evenodd" clip-rule="evenodd" d="M1115.38 593.404L1071.3 568.981L1071.4 568.764L1115.49 593.187L1115.38 593.404Z" fill="url(#paint72_linear_122_233)"/>
<path fill-rule="evenodd" clip-rule="evenodd" d="M1180.64 629.61L1136.56 605.187L1136.66 604.97L1180.75 629.393L1180.64 629.61Z" fill="url(#paint73_linear_122_233)"/>
<path fill-rule="evenodd" clip-rule="evenodd" d="M1205.82 452.842L1161.73 428.419L1161.84 428.202L1205.93 452.625L1205.82 452.842Z" fill="url(#paint74_linear_122_233)"/>
<path d="M1164.04 429.432C1164.05 429.622 1163.91 429.78 1163.73 429.785C1163.55 429.79 1163.39 429.64 1163.38 429.45C1163.37 429.26 1163.51 429.102 1163.69 429.097C1163.88 429.092 1164.03 429.241 1164.04 429.432Z" fill="white"/>
<g opacity="0.39" filter="url(#filter16_f_122_233)">
<path fill-rule="evenodd" clip-rule="evenodd" d="M1145.79 518.933L1173.53 568.352L1231.39 601.522L1256.9 584.909C1258.88 583.625 1258.78 581.638 1256.68 580.471L1248.74 576.045L1247.15 577.076L1153.14 524.695L1154.72 523.664L1147.25 519.504C1146.81 519.258 1146.32 519.067 1145.79 518.933Z" fill="url(#paint75_linear_122_233)"/>
</g>
<path d="M1036.36 262.764L857.127 165.552L852.172 198.714L1031.4 295.926L1036.36 262.764Z" fill="white"/>
<path d="M846.731 150.16C848.762 151.262 850.697 150.219 851.054 147.831C851.411 145.443 850.054 142.614 848.023 141.513C845.993 140.412 844.058 141.455 843.701 143.843C843.344 146.23 844.701 149.059 846.731 150.16Z" fill="#FF004D"/>
<path d="M859.513 156.684C861.366 157.689 863.132 156.737 863.458 154.558C863.783 152.38 862.545 149.799 860.692 148.794C858.839 147.789 857.073 148.74 856.748 150.919C856.422 153.098 857.66 155.679 859.513 156.684Z" stroke="#B7B7B7" stroke-width="1.0772"/>
<path d="M872.182 163.964C874.212 165.066 876.148 164.023 876.504 161.635C876.861 159.247 875.504 156.419 873.474 155.317C871.443 154.216 869.508 155.259 869.151 157.647C868.794 160.035 870.151 162.863 872.182 163.964Z" fill="#6AD615"/>
<path d="M946.062 267.397L859.407 220.396C856.364 218.746 853.464 220.309 852.929 223.887C852.394 227.465 854.428 231.704 857.47 233.354L944.126 280.356C947.168 282.006 950.069 280.443 950.603 276.865C951.138 273.286 949.105 269.048 946.062 267.397Z" fill="#EBEBEB"/>
<path d="M916.511 289.048L854.198 255.25C851.156 253.599 848.256 255.162 847.721 258.74C847.186 262.319 849.219 266.557 852.262 268.208L914.575 302.006C917.618 303.656 920.518 302.093 921.053 298.515C921.587 294.937 919.554 290.698 916.511 289.048Z" fill="#EBEBEB"/>
<path d="M885.668 338.589L845.038 316.552C841.995 314.901 839.095 316.464 838.56 320.043C838.026 323.621 840.059 327.859 843.102 329.51L883.731 351.547C886.774 353.197 889.674 351.634 890.209 348.056C890.744 344.478 888.71 340.239 885.668 338.589Z" fill="#EBEBEB"/>
<path d="M920.85 388.653L840.756 345.21C837.713 343.56 834.813 345.123 834.278 348.701C833.743 352.279 835.777 356.518 838.819 358.168L918.913 401.611C921.956 403.261 924.856 401.698 925.391 398.12C925.926 394.542 923.892 390.303 920.85 388.653Z" fill="#EBEBEB"/>
<g filter="url(#filter17_d_122_233)">
<path fill-rule="evenodd" clip-rule="evenodd" d="M1019.99 233.36C1019.47 233.077 1018.97 233.345 1018.88 233.958L1018.26 238.14L1014.7 236.212C1014.18 235.929 1013.68 236.196 1013.59 236.809C1013.5 237.422 1013.85 238.148 1014.37 238.431L1017.92 240.36L1017.3 244.543C1017.21 245.155 1017.56 245.881 1018.08 246.164C1018.6 246.447 1019.09 246.179 1019.19 245.566L1019.81 241.383L1023.37 243.313C1023.89 243.595 1024.39 243.328 1024.48 242.715C1024.57 242.102 1024.22 241.376 1023.7 241.094L1020.14 239.164L1020.77 234.981C1020.86 234.368 1020.51 233.642 1019.99 233.36Z" fill="url(#paint76_linear_122_233)"/>
</g>
</g>
</g>
</g>
<defs>
<filter id="filter0_i_122_233" x="-287.238" y="-451.356" width="2085" height="1664.4" filterUnits="userSpaceOnUse" color-interpolation-filters="sRGB">
<feFlood flood-opacity="0" result="BackgroundImageFix"/>
<feBlend mode="normal" in="SourceGraphic" in2="BackgroundImageFix" result="shape"/>
<feColorMatrix in="SourceAlpha" type="matrix" values="0 0 0 0 0 0 0 0 0 0 0 0 0 0 0 0 0 0 127 0" result="hardAlpha"/>
<feOffset/>
<feGaussianBlur stdDeviation="12"/>
<feComposite in2="hardAlpha" operator="arithmetic" k2="-1" k3="1"/>
<feColorMatrix type="matrix" values="0 0 0 0 0 0 0 0 0 0 0 0 0 0 0 0 0 0 0.42 0"/>
<feBlend mode="normal" in2="shape" result="effect1_innerShadow_122_233"/>
</filter>
<filter id="filter1_ii_122_233" x="728.448" y="513.962" width="537.359" height="312.47" filterUnits="userSpaceOnUse" color-interpolation-filters="sRGB">
<feFlood flood-opacity="0" result="BackgroundImageFix"/>
<feBlend mode="normal" in="SourceGraphic" in2="BackgroundImageFix" result="shape"/>
<feColorMatrix in="SourceAlpha" type="matrix" values="0 0 0 0 0 0 0 0 0 0 0 0 0 0 0 0 0 0 127 0" result="hardAlpha"/>
<feOffset/>
<feGaussianBlur stdDeviation="0.567904"/>
<feComposite in2="hardAlpha" operator="arithmetic" k2="-1" k3="1"/>
<feColorMatrix type="matrix" values="0 0 0 0 0.0903861 0 0 0 0 0.0762847 0 0 0 0 0.108333 0 0 0 0.69 0"/>
<feBlend mode="normal" in2="shape" result="effect1_innerShadow_122_233"/>
<feColorMatrix in="SourceAlpha" type="matrix" values="0 0 0 0 0 0 0 0 0 0 0 0 0 0 0 0 0 0 127 0" result="hardAlpha"/>
<feMorphology radius="0.567904" operator="dilate" in="SourceAlpha" result="effect2_innerShadow_122_233"/>
<feOffset dy="0.567904"/>
<feGaussianBlur stdDeviation="0.425928"/>
<feComposite in2="hardAlpha" operator="arithmetic" k2="-1" k3="1"/>
<feColorMatrix type="matrix" values="0 0 0 0 1 0 0 0 0 1 0 0 0 0 1 0 0 0 1 0"/>
<feBlend mode="normal" in2="effect1_innerShadow_122_233" result="effect2_innerShadow_122_233"/>
</filter>
<filter id="filter2_f_122_233" x="858.828" y="474.992" width="469.122" height="345.229" filterUnits="userSpaceOnUse" color-interpolation-filters="sRGB">
<feFlood flood-opacity="0" result="BackgroundImageFix"/>
<feBlend mode="normal" in="SourceGraphic" in2="BackgroundImageFix" result="shape"/>
<feGaussianBlur stdDeviation="2.41359" result="effect1_foregroundBlur_122_233"/>
</filter>
<filter id="filter3_ddf_122_233" x="738.387" y="79.8288" width="575.679" height="691.561" filterUnits="userSpaceOnUse" color-interpolation-filters="sRGB">
<feFlood flood-opacity="0" result="BackgroundImageFix"/>
<feColorMatrix in="SourceAlpha" type="matrix" values="0 0 0 0 0 0 0 0 0 0 0 0 0 0 0 0 0 0 127 0" result="hardAlpha"/>
<feOffset dy="37.7018"/>
<feGaussianBlur stdDeviation="18.3123"/>
<feColorMatrix type="matrix" values="0 0 0 0 0.0636458 0 0 0 0 0.148246 0 0 0 0 0.195833 0 0 0 0.13 0"/>
<feBlend mode="normal" in2="BackgroundImageFix" result="effect1_dropShadow_122_233"/>
<feColorMatrix in="SourceAlpha" type="matrix" values="0 0 0 0 0 0 0 0 0 0 0 0 0 0 0 0 0 0 127 0" result="hardAlpha"/>
<feOffset/>
<feGaussianBlur stdDeviation="23.1597"/>
<feColorMatrix type="matrix" values="0 0 0 0 0.0698958 0 0 0 0 0.143604 0 0 0 0 0.254167 0 0 0 0.02 0"/>
<feBlend mode="normal" in2="effect1_dropShadow_122_233" result="effect2_dropShadow_122_233"/>
<feBlend mode="normal" in="SourceGraphic" in2="effect2_dropShadow_122_233" result="shape"/>
<feGaussianBlur stdDeviation="0.5386" result="effect3_foregroundBlur_122_233"/>
</filter>
<filter id="filter4_dd_122_233" x="950.267" y="404.992" width="45.3803" height="55.0897" filterUnits="userSpaceOnUse" color-interpolation-filters="sRGB">
<feFlood flood-opacity="0" result="BackgroundImageFix"/>
<feColorMatrix in="SourceAlpha" type="matrix" values="0 0 0 0 0 0 0 0 0 0 0 0 0 0 0 0 0 0 127 0" result="hardAlpha"/>
<feOffset/>
<feGaussianBlur stdDeviation="2.69299"/>
<feColorMatrix type="matrix" values="0 0 0 0 0.115538 0 0 0 0 0.174625 0 0 0 0 0.229167 0 0 0 0.1 0"/>
<feBlend mode="normal" in2="BackgroundImageFix" result="effect1_dropShadow_122_233"/>
<feColorMatrix in="SourceAlpha" type="matrix" values="0 0 0 0 0 0 0 0 0 0 0 0 0 0 0 0 0 0 127 0" result="hardAlpha"/>
<feOffset dy="9.69476"/>
<feGaussianBlur stdDeviation="6.46317"/>
<feColorMatrix type="matrix" values="0 0 0 0 0.0788715 0 0 0 0 0.233727 0 0 0 0 0.320833 0 0 0 0.19 0"/>
<feBlend mode="normal" in2="effect1_dropShadow_122_233" result="effect2_dropShadow_122_233"/>
<feBlend mode="normal" in="SourceGraphic" in2="effect2_dropShadow_122_233" result="shape"/>
</filter>
<filter id="filter5_i_122_233" x="982.619" y="286.665" width="41.3369" height="43.1945" filterUnits="userSpaceOnUse" color-interpolation-filters="sRGB">
<feFlood flood-opacity="0" result="BackgroundImageFix"/>
<feBlend mode="normal" in="SourceGraphic" in2="BackgroundImageFix" result="shape"/>
<feColorMatrix in="SourceAlpha" type="matrix" values="0 0 0 0 0 0 0 0 0 0 0 0 0 0 0 0 0 0 127 0" result="hardAlpha"/>
<feOffset dy="5.64442"/>
<feGaussianBlur stdDeviation="5.64442"/>
<feComposite in2="hardAlpha" operator="arithmetic" k2="-1" k3="1"/>
<feColorMatrix type="matrix" values="0 0 0 0 0.104479 0 0 0 0 0.161021 0 0 0 0 0.245833 0 0 0 0.17 0"/>
<feBlend mode="normal" in2="shape" result="effect1_innerShadow_122_233"/>
</filter>
<filter id="filter6_d_122_233" x="997.425" y="295.861" width="29.957" height="34.0647" filterUnits="userSpaceOnUse" color-interpolation-filters="sRGB">
<feFlood flood-opacity="0" result="BackgroundImageFix"/>
<feColorMatrix in="SourceAlpha" type="matrix" values="0 0 0 0 0 0 0 0 0 0 0 0 0 0 0 0 0 0 127 0" result="hardAlpha"/>
<feOffset dy="2.50863"/>
<feGaussianBlur stdDeviation="3.76294"/>
<feColorMatrix type="matrix" values="0 0 0 0 0.0989236 0 0 0 0 0.195252 0 0 0 0 0.308333 0 0 0 0.27 0"/>
<feBlend mode="normal" in2="BackgroundImageFix" result="effect1_dropShadow_122_233"/>
<feBlend mode="normal" in="SourceGraphic" in2="effect1_dropShadow_122_233" result="shape"/>
</filter>
<filter id="filter7_i_122_233" x="977.411" y="321.519" width="41.3369" height="43.1945" filterUnits="userSpaceOnUse" color-interpolation-filters="sRGB">
<feFlood flood-opacity="0" result="BackgroundImageFix"/>
<feBlend mode="normal" in="SourceGraphic" in2="BackgroundImageFix" result="shape"/>
<feColorMatrix in="SourceAlpha" type="matrix" values="0 0 0 0 0 0 0 0 0 0 0 0 0 0 0 0 0 0 127 0" result="hardAlpha"/>
<feOffset dy="5.64442"/>
<feGaussianBlur stdDeviation="5.64442"/>
<feComposite in2="hardAlpha" operator="arithmetic" k2="-1" k3="1"/>
<feColorMatrix type="matrix" values="0 0 0 0 0.104479 0 0 0 0 0.161021 0 0 0 0 0.245833 0 0 0 0.17 0"/>
<feBlend mode="normal" in2="shape" result="effect1_innerShadow_122_233"/>
</filter>
<filter id="filter8_d_122_233" x="973.628" y="320.632" width="29.957" height="34.0647" filterUnits="userSpaceOnUse" color-interpolation-filters="sRGB">
<feFlood flood-opacity="0" result="BackgroundImageFix"/>
<feColorMatrix in="SourceAlpha" type="matrix" values="0 0 0 0 0 0 0 0 0 0 0 0 0 0 0 0 0 0 127 0" result="hardAlpha"/>
<feOffset dy="2.50863"/>
<feGaussianBlur stdDeviation="3.76294"/>
<feColorMatrix type="matrix" values="0 0 0 0 0.0989236 0 0 0 0 0.195252 0 0 0 0 0.308333 0 0 0 0.27 0"/>
<feBlend mode="normal" in2="BackgroundImageFix" result="effect1_dropShadow_122_233"/>
<feBlend mode="normal" in="SourceGraphic" in2="effect1_dropShadow_122_233" result="shape"/>
</filter>
<filter id="filter9_dd_122_233" x="954.893" y="371.879" width="45.3803" height="58.3213" filterUnits="userSpaceOnUse" color-interpolation-filters="sRGB">
<feFlood flood-opacity="0" result="BackgroundImageFix"/>
<feColorMatrix in="SourceAlpha" type="matrix" values="0 0 0 0 0 0 0 0 0 0 0 0 0 0 0 0 0 0 127 0" result="hardAlpha"/>
<feOffset/>
<feGaussianBlur stdDeviation="3.77018"/>
<feColorMatrix type="matrix" values="0 0 0 0 0.0880209 0 0 0 0 0.46475 0 0 0 0 0.8125 0 0 0 0.35 0"/>
<feBlend mode="normal" in2="BackgroundImageFix" result="effect1_dropShadow_122_233"/>
<feColorMatrix in="SourceAlpha" type="matrix" values="0 0 0 0 0 0 0 0 0 0 0 0 0 0 0 0 0 0 127 0" result="hardAlpha"/>
<feOffset dy="10.772"/>
<feGaussianBlur stdDeviation="6.46317"/>
<feColorMatrix type="matrix" values="0 0 0 0 0.0179166 0 0 0 0 0.465117 0 0 0 0 0.716667 0 0 0 0.51 0"/>
<feBlend mode="normal" in2="effect1_dropShadow_122_233" result="effect2_dropShadow_122_233"/>
<feBlend mode="normal" in="SourceGraphic" in2="effect2_dropShadow_122_233" result="shape"/>
</filter>
<filter id="filter10_dd_122_233" x="945.526" y="434.565" width="45.3803" height="58.3213" filterUnits="userSpaceOnUse" color-interpolation-filters="sRGB">
<feFlood flood-opacity="0" result="BackgroundImageFix"/>
<feColorMatrix in="SourceAlpha" type="matrix" values="0 0 0 0 0 0 0 0 0 0 0 0 0 0 0 0 0 0 127 0" result="hardAlpha"/>
<feOffset/>
<feGaussianBlur stdDeviation="3.77018"/>
<feColorMatrix type="matrix" values="0 0 0 0 0.0880209 0 0 0 0 0.46475 0 0 0 0 0.8125 0 0 0 0.35 0"/>
<feBlend mode="normal" in2="BackgroundImageFix" result="effect1_dropShadow_122_233"/>
<feColorMatrix in="SourceAlpha" type="matrix" values="0 0 0 0 0 0 0 0 0 0 0 0 0 0 0 0 0 0 127 0" result="hardAlpha"/>
<feOffset dy="10.772"/>
<feGaussianBlur stdDeviation="6.46317"/>
<feColorMatrix type="matrix" values="0 0 0 0 0.0179166 0 0 0 0 0.465117 0 0 0 0 0.716667 0 0 0 0.51 0"/>
<feBlend mode="normal" in2="effect1_dropShadow_122_233" result="effect2_dropShadow_122_233"/>
<feBlend mode="normal" in="SourceGraphic" in2="effect2_dropShadow_122_233" result="shape"/>
</filter>
<filter id="filter11_i_122_233" x="830.273" y="121.839" width="437.473" height="264.856" filterUnits="userSpaceOnUse" color-interpolation-filters="sRGB">
<feFlood flood-opacity="0" result="BackgroundImageFix"/>
<feBlend mode="normal" in="SourceGraphic" in2="BackgroundImageFix" result="shape"/>
<feColorMatrix in="SourceAlpha" type="matrix" values="0 0 0 0 0 0 0 0 0 0 0 0 0 0 0 0 0 0 127 0" result="hardAlpha"/>
<feOffset dy="-4.30878"/>
<feGaussianBlur stdDeviation="9.15616"/>
<feComposite in2="hardAlpha" operator="arithmetic" k2="-1" k3="1"/>
<feColorMatrix type="matrix" values="0 0 0 0 0.0686111 0 0 0 0 0.367683 0 0 0 0 0.433333 0 0 0 0.08 0"/>
<feBlend mode="normal" in2="shape" result="effect1_innerShadow_122_233"/>
</filter>
<filter id="filter12_d_122_233" x="925.16" y="182.643" width="132.291" height="103.759" filterUnits="userSpaceOnUse" color-interpolation-filters="sRGB">
<feFlood flood-opacity="0" result="BackgroundImageFix"/>
<feColorMatrix in="SourceAlpha" type="matrix" values="0 0 0 0 0 0 0 0 0 0 0 0 0 0 0 0 0 0 127 0" result="hardAlpha"/>
<feOffset dy="4.30878"/>
<feGaussianBlur stdDeviation="8.61756"/>
<feColorMatrix type="matrix" values="0 0 0 0 0.0909028 0 0 0 0 0.325762 0 0 0 0 0.495833 0 0 0 0.15 0"/>
<feBlend mode="normal" in2="BackgroundImageFix" result="effect1_dropShadow_122_233"/>
<feBlend mode="normal" in="SourceGraphic" in2="effect1_dropShadow_122_233" result="shape"/>
</filter>
<filter id="filter13_d_122_233" x="863.391" y="150.54" width="162.696" height="118.85" filterUnits="userSpaceOnUse" color-interpolation-filters="sRGB">
<feFlood flood-opacity="0" result="BackgroundImageFix"/>
<feColorMatrix in="SourceAlpha" type="matrix" values="0 0 0 0 0 0 0 0 0 0 0 0 0 0 0 0 0 0 127 0" result="hardAlpha"/>
<feOffset dy="4.30878"/>
<feGaussianBlur stdDeviation="8.61756"/>
<feColorMatrix type="matrix" values="0 0 0 0 0.0909028 0 0 0 0 0.325762 0 0 0 0 0.495833 0 0 0 0.15 0"/>
<feBlend mode="normal" in2="BackgroundImageFix" result="effect1_dropShadow_122_233"/>
<feBlend mode="normal" in="SourceGraphic" in2="effect1_dropShadow_122_233" result="shape"/>
</filter>
<filter id="filter14_f_122_233" x="1064.77" y="483.088" width="254.034" height="157.56" filterUnits="userSpaceOnUse" color-interpolation-filters="sRGB">
<feFlood flood-opacity="0" result="BackgroundImageFix"/>
<feBlend mode="normal" in="SourceGraphic" in2="BackgroundImageFix" result="shape"/>
<feGaussianBlur stdDeviation="2.12964" result="effect1_foregroundBlur_122_233"/>
</filter>
<filter id="filter15_ii_122_233" x="1112.78" y="527.103" width="131.985" height="76.8634" filterUnits="userSpaceOnUse" color-interpolation-filters="sRGB">
<feFlood flood-opacity="0" result="BackgroundImageFix"/>
<feBlend mode="normal" in="SourceGraphic" in2="BackgroundImageFix" result="shape"/>
<feColorMatrix in="SourceAlpha" type="matrix" values="0 0 0 0 0 0 0 0 0 0 0 0 0 0 0 0 0 0 127 0" result="hardAlpha"/>
<feOffset/>
<feGaussianBlur stdDeviation="0.567904"/>
<feComposite in2="hardAlpha" operator="arithmetic" k2="-1" k3="1"/>
<feColorMatrix type="matrix" values="0 0 0 0 0.0903861 0 0 0 0 0.0762847 0 0 0 0 0.108333 0 0 0 0.69 0"/>
<feBlend mode="normal" in2="shape" result="effect1_innerShadow_122_233"/>
<feColorMatrix in="SourceAlpha" type="matrix" values="0 0 0 0 0 0 0 0 0 0 0 0 0 0 0 0 0 0 127 0" result="hardAlpha"/>
<feMorphology radius="0.567904" operator="dilate" in="SourceAlpha" result="effect2_innerShadow_122_233"/>
<feOffset dy="0.567904"/>
<feGaussianBlur stdDeviation="0.425928"/>
<feComposite in2="hardAlpha" operator="arithmetic" k2="-1" k3="1"/>
<feColorMatrix type="matrix" values="0 0 0 0 1 0 0 0 0 1 0 0 0 0 1 0 0 0 1 0"/>
<feBlend mode="normal" in2="effect1_innerShadow_122_233" result="effect2_innerShadow_122_233"/>
</filter>
<filter id="filter16_f_122_233" x="1140.96" y="514.106" width="122.185" height="92.2435" filterUnits="userSpaceOnUse" color-interpolation-filters="sRGB">
<feFlood flood-opacity="0" result="BackgroundImageFix"/>
<feBlend mode="normal" in="SourceGraphic" in2="BackgroundImageFix" result="shape"/>
<feGaussianBlur stdDeviation="2.41359" result="effect1_foregroundBlur_122_233"/>
</filter>
<filter id="filter17_d_122_233" x="1012.5" y="232.17" width="13.0719" height="15.184" filterUnits="userSpaceOnUse" color-interpolation-filters="sRGB">
<feFlood flood-opacity="0" result="BackgroundImageFix"/>
<feColorMatrix in="SourceAlpha" type="matrix" values="0 0 0 0 0 0 0 0 0 0 0 0 0 0 0 0 0 0 127 0" result="hardAlpha"/>
<feOffset/>
<feGaussianBlur stdDeviation="0.538598"/>
<feColorMatrix type="matrix" values="0 0 0 0 0.400208 0 0 0 0 0.470833 0 0 0 0 0.466596 0 0 0 0.25 0"/>
<feBlend mode="normal" in2="BackgroundImageFix" result="effect1_dropShadow_122_233"/>
<feBlend mode="normal" in="SourceGraphic" in2="effect1_dropShadow_122_233" result="shape"/>
</filter>
<linearGradient id="paint0_linear_122_233" x1="1375.73" y1="105.066" x2="1193.41" y2="847.917" gradientUnits="userSpaceOnUse">
<stop stop-color="#474747"/>
<stop offset="0.61" stop-color="#181818"/>
</linearGradient>
<linearGradient id="paint1_linear_122_233" x1="1445.49" y1="147.744" x2="1166.04" y2="737.014" gradientUnits="userSpaceOnUse">
<stop stop-color="#474747"/>
<stop offset="0.61" stop-color="#181818"/>
</linearGradient>
<linearGradient id="paint2_linear_122_233" x1="1197.99" y1="1196.5" x2="302.001" y2="354.368" gradientUnits="userSpaceOnUse">
<stop offset="0.279687" stop-color="#F98C27"/>
<stop offset="1" stop-color="#FFAC30" stop-opacity="0"/>
</linearGradient>
<linearGradient id="paint3_linear_122_233" x1="67.4227" y1="0" x2="67.4227" y2="161.424" gradientUnits="userSpaceOnUse">
<stop stop-opacity="0"/>
<stop offset="0.0001" stop-opacity="0"/>
<stop offset="0.614583" stop-color="#2C4348"/>
</linearGradient>
<linearGradient id="paint4_linear_122_233" x1="8.3858" y1="4.26882" x2="95.7727" y2="120.262" gradientUnits="userSpaceOnUse">
<stop stop-color="#0D0D0D"/>
<stop offset="0.484375" stop-color="#262626"/>
<stop offset="0.541667" stop-color="#0E0E0E"/>
<stop offset="1" stop-color="#272425"/>
</linearGradient>
<linearGradient id="paint5_linear_122_233" x1="1257.1" y1="564.322" x2="1070.24" y2="573.77" gradientUnits="userSpaceOnUse">
<stop stop-color="#2E2E2E"/>
<stop offset="0.0152179" stop-color="#454B50"/>
<stop offset="0.0909353" stop-color="#485666"/>
<stop offset="0.351348" stop-color="#44474D"/>
<stop offset="0.402508" stop-color="#848484"/>
<stop offset="0.446897" stop-color="#525353"/>
<stop offset="0.662573" stop-color="#767676"/>
<stop offset="0.666513" stop-color="#6E7276"/>
<stop offset="0.717302" stop-color="#545557"/>
<stop offset="0.750578" stop-color="#383B44"/>
<stop offset="0.754519" stop-color="#4B5359"/>
<stop offset="0.976451" stop-color="#565759"/>
<stop offset="1" stop-color="#979797"/>
</linearGradient>
<linearGradient id="paint6_linear_122_233" x1="1076.26" y1="535.258" x2="1232.75" y2="474.559" gradientUnits="userSpaceOnUse">
<stop stop-color="#606872"/>
<stop offset="0.271874" stop-color="#6F7275"/>
<stop offset="0.612224" stop-color="#585F67"/>
<stop offset="0.998493" stop-color="#697078"/>
</linearGradient>
<radialGradient id="paint7_radial_122_233" cx="0" cy="0" r="1" gradientUnits="userSpaceOnUse" gradientTransform="translate(31.5048 18.7638) rotate(90) scale(18.7638 31.5048)">
<stop stop-color="#72757B" stop-opacity="0.76"/>
<stop offset="1" stop-color="#545860" stop-opacity="0.7"/>
</radialGradient>
<linearGradient id="paint8_linear_122_233" x1="3.27601" y1="0" x2="3.27601" y2="6.55202" gradientUnits="userSpaceOnUse">
<stop stop-color="#1B1B1B"/>
<stop offset="0.869792"/>
<stop offset="1" stop-color="#3A3A3A"/>
</linearGradient>
<linearGradient id="paint9_linear_122_233" x1="3.27601" y1="0" x2="3.27601" y2="6.55202" gradientUnits="userSpaceOnUse">
<stop stop-color="#1B1B1B"/>
<stop offset="0.869792"/>
<stop offset="1" stop-color="#3A3A3A"/>
</linearGradient>
<linearGradient id="paint10_linear_122_233" x1="3.27601" y1="0" x2="3.27601" y2="6.55202" gradientUnits="userSpaceOnUse">
<stop stop-color="#1B1B1B"/>
<stop offset="0.869792"/>
<stop offset="1" stop-color="#3A3A3A"/>
</linearGradient>
<linearGradient id="paint11_linear_122_233" x1="3.27601" y1="0" x2="3.27601" y2="6.55202" gradientUnits="userSpaceOnUse">
<stop stop-color="#1B1B1B"/>
<stop offset="0.869792"/>
<stop offset="1" stop-color="#3A3A3A"/>
</linearGradient>
<linearGradient id="paint12_linear_122_233" x1="5.93256" y1="0" x2="5.93256" y2="6.55202" gradientUnits="userSpaceOnUse">
<stop stop-color="#1B1B1B"/>
<stop offset="0.869792"/>
<stop offset="1" stop-color="#3A3A3A"/>
</linearGradient>
<linearGradient id="paint13_linear_122_233" x1="3.27601" y1="0" x2="3.27601" y2="6.55202" gradientUnits="userSpaceOnUse">
<stop stop-color="#1B1B1B"/>
<stop offset="0.869792"/>
<stop offset="1" stop-color="#3A3A3A"/>
</linearGradient>
<linearGradient id="paint14_linear_122_233" x1="3.27601" y1="0" x2="3.27601" y2="6.55202" gradientUnits="userSpaceOnUse">
<stop stop-color="#1B1B1B"/>
<stop offset="0.869792"/>
<stop offset="1" stop-color="#3A3A3A"/>
</linearGradient>
<linearGradient id="paint15_linear_122_233" x1="3.27601" y1="0" x2="3.27601" y2="6.55202" gradientUnits="userSpaceOnUse">
<stop stop-color="#1B1B1B"/>
<stop offset="0.869792"/>
<stop offset="1" stop-color="#3A3A3A"/>
</linearGradient>
<linearGradient id="paint16_linear_122_233" x1="7.97347" y1="0" x2="7.97347" y2="6.55202" gradientUnits="userSpaceOnUse">
<stop stop-color="#1B1B1B"/>
<stop offset="0.869792"/>
<stop offset="1" stop-color="#3A3A3A"/>
</linearGradient>
<linearGradient id="paint17_linear_122_233" x1="3.27601" y1="0" x2="3.27601" y2="6.55202" gradientUnits="userSpaceOnUse">
<stop stop-color="#1B1B1B"/>
<stop offset="0.869792"/>
<stop offset="1" stop-color="#3A3A3A"/>
</linearGradient>
<linearGradient id="paint18_linear_122_233" x1="3.27601" y1="0" x2="3.27601" y2="6.55202" gradientUnits="userSpaceOnUse">
<stop stop-color="#1B1B1B"/>
<stop offset="0.869792"/>
<stop offset="1" stop-color="#3A3A3A"/>
</linearGradient>
<linearGradient id="paint19_linear_122_233" x1="3.27601" y1="0" x2="3.27601" y2="6.55202" gradientUnits="userSpaceOnUse">
<stop stop-color="#1B1B1B"/>
<stop offset="0.869792"/>
<stop offset="1" stop-color="#3A3A3A"/>
</linearGradient>
<linearGradient id="paint20_linear_122_233" x1="3.27601" y1="0" x2="3.27601" y2="6.55202" gradientUnits="userSpaceOnUse">
<stop stop-color="#1B1B1B"/>
<stop offset="0.869792"/>
<stop offset="1" stop-color="#3A3A3A"/>
</linearGradient>
<linearGradient id="paint21_linear_122_233" x1="3.27601" y1="0" x2="3.27601" y2="6.55202" gradientUnits="userSpaceOnUse">
<stop stop-color="#1B1B1B"/>
<stop offset="0.869792"/>
<stop offset="1" stop-color="#3A3A3A"/>
</linearGradient>
<linearGradient id="paint22_linear_122_233" x1="3.27601" y1="0" x2="3.27601" y2="3.4298" gradientUnits="userSpaceOnUse">
<stop stop-color="#1B1B1B"/>
<stop offset="0.869792"/>
<stop offset="1" stop-color="#3A3A3A"/>
</linearGradient>
<linearGradient id="paint23_linear_122_233" x1="3.27601" y1="0" x2="3.27601" y2="6.55202" gradientUnits="userSpaceOnUse">
<stop stop-color="#1B1B1B"/>
<stop offset="0.869792"/>
<stop offset="1" stop-color="#3A3A3A"/>
</linearGradient>
<linearGradient id="paint24_linear_122_233" x1="3.27601" y1="0" x2="3.27601" y2="3.42973" gradientUnits="userSpaceOnUse">
<stop stop-color="#1B1B1B"/>
<stop offset="0.869792"/>
<stop offset="1" stop-color="#3A3A3A"/>
</linearGradient>
<linearGradient id="paint25_linear_122_233" x1="3.27601" y1="0" x2="3.27601" y2="6.55202" gradientUnits="userSpaceOnUse">
<stop stop-color="#1B1B1B"/>
<stop offset="0.869792"/>
<stop offset="1" stop-color="#3A3A3A"/>
</linearGradient>
<linearGradient id="paint26_linear_122_233" x1="3.27601" y1="0" x2="3.27601" y2="6.55202" gradientUnits="userSpaceOnUse">
<stop stop-color="#1B1B1B"/>
<stop offset="0.869792"/>
<stop offset="1" stop-color="#3A3A3A"/>
</linearGradient>
<linearGradient id="paint27_linear_122_233" x1="3.27601" y1="0" x2="3.27601" y2="6.55202" gradientUnits="userSpaceOnUse">
<stop stop-color="#1B1B1B"/>
<stop offset="0.869792"/>
<stop offset="1" stop-color="#3A3A3A"/>
</linearGradient>
<linearGradient id="paint28_linear_122_233" x1="3.27601" y1="0" x2="3.27601" y2="6.55202" gradientUnits="userSpaceOnUse">
<stop stop-color="#1B1B1B"/>
<stop offset="0.869792"/>
<stop offset="1" stop-color="#3A3A3A"/>
</linearGradient>
<linearGradient id="paint29_linear_122_233" x1="4.01023" y1="0" x2="4.01023" y2="6.55202" gradientUnits="userSpaceOnUse">
<stop stop-color="#1B1B1B"/>
<stop offset="0.869792"/>
<stop offset="1" stop-color="#3A3A3A"/>
</linearGradient>
<linearGradient id="paint30_linear_122_233" x1="4.01023" y1="0" x2="4.01023" y2="6.55202" gradientUnits="userSpaceOnUse">
<stop stop-color="#1B1B1B"/>
<stop offset="0.869792"/>
<stop offset="1" stop-color="#3A3A3A"/>
</linearGradient>
<linearGradient id="paint31_linear_122_233" x1="19.1514" y1="0" x2="19.1514" y2="6.55202" gradientUnits="userSpaceOnUse">
<stop stop-color="#1B1B1B"/>
<stop offset="0.869792"/>
<stop offset="1" stop-color="#3A3A3A"/>
</linearGradient>
<linearGradient id="paint32_linear_122_233" x1="3.27601" y1="0" x2="3.27601" y2="6.55202" gradientUnits="userSpaceOnUse">
<stop stop-color="#1B1B1B"/>
<stop offset="0.869792"/>
<stop offset="1" stop-color="#3A3A3A"/>
</linearGradient>
<linearGradient id="paint33_linear_122_233" x1="3.27601" y1="0" x2="3.27601" y2="6.55202" gradientUnits="userSpaceOnUse">
<stop stop-color="#1B1B1B"/>
<stop offset="0.869792"/>
<stop offset="1" stop-color="#3A3A3A"/>
</linearGradient>
<linearGradient id="paint34_linear_122_233" x1="3.27601" y1="0" x2="3.27601" y2="6.55202" gradientUnits="userSpaceOnUse">
<stop stop-color="#1B1B1B"/>
<stop offset="0.869792"/>
<stop offset="1" stop-color="#3A3A3A"/>
</linearGradient>
<linearGradient id="paint35_linear_122_233" x1="3.27601" y1="0" x2="3.27601" y2="6.55202" gradientUnits="userSpaceOnUse">
<stop stop-color="#1B1B1B"/>
<stop offset="0.869792"/>
<stop offset="1" stop-color="#3A3A3A"/>
</linearGradient>
<linearGradient id="paint36_linear_122_233" x1="3.27601" y1="0" x2="3.27601" y2="6.55202" gradientUnits="userSpaceOnUse">
<stop stop-color="#1B1B1B"/>
<stop offset="0.869792"/>
<stop offset="1" stop-color="#3A3A3A"/>
</linearGradient>
<linearGradient id="paint37_linear_122_233" x1="3.27601" y1="0" x2="3.27601" y2="6.55202" gradientUnits="userSpaceOnUse">
<stop stop-color="#1B1B1B"/>
<stop offset="0.869792"/>
<stop offset="1" stop-color="#3A3A3A"/>
</linearGradient>
<linearGradient id="paint38_linear_122_233" x1="3.27601" y1="0" x2="3.27601" y2="6.55202" gradientUnits="userSpaceOnUse">
<stop stop-color="#1B1B1B"/>
<stop offset="0.869792"/>
<stop offset="1" stop-color="#3A3A3A"/>
</linearGradient>
<linearGradient id="paint39_linear_122_233" x1="3.27601" y1="0" x2="3.27601" y2="6.55202" gradientUnits="userSpaceOnUse">
<stop stop-color="#1B1B1B"/>
<stop offset="0.869792"/>
<stop offset="1" stop-color="#3A3A3A"/>
</linearGradient>
<linearGradient id="paint40_linear_122_233" x1="3.27601" y1="0" x2="3.27601" y2="6.55202" gradientUnits="userSpaceOnUse">
<stop stop-color="#1B1B1B"/>
<stop offset="0.869792"/>
<stop offset="1" stop-color="#3A3A3A"/>
</linearGradient>
<linearGradient id="paint41_linear_122_233" x1="3.27601" y1="0" x2="3.27601" y2="6.55202" gradientUnits="userSpaceOnUse">
<stop stop-color="#1B1B1B"/>
<stop offset="0.869792"/>
<stop offset="1" stop-color="#3A3A3A"/>
</linearGradient>
<linearGradient id="paint42_linear_122_233" x1="3.27601" y1="0" x2="3.27601" y2="6.55202" gradientUnits="userSpaceOnUse">
<stop stop-color="#1B1B1B"/>
<stop offset="0.869792"/>
<stop offset="1" stop-color="#3A3A3A"/>
</linearGradient>
<linearGradient id="paint43_linear_122_233" x1="3.27601" y1="0" x2="3.27601" y2="6.55202" gradientUnits="userSpaceOnUse">
<stop stop-color="#1B1B1B"/>
<stop offset="0.869792"/>
<stop offset="1" stop-color="#3A3A3A"/>
</linearGradient>
<linearGradient id="paint44_linear_122_233" x1="3.27601" y1="0" x2="3.27601" y2="6.55202" gradientUnits="userSpaceOnUse">
<stop stop-color="#1B1B1B"/>
<stop offset="0.869792"/>
<stop offset="1" stop-color="#3A3A3A"/>
</linearGradient>
<linearGradient id="paint45_linear_122_233" x1="3.27601" y1="0" x2="3.27601" y2="6.55202" gradientUnits="userSpaceOnUse">
<stop stop-color="#1B1B1B"/>
<stop offset="0.869792"/>
<stop offset="1" stop-color="#3A3A3A"/>
</linearGradient>
<linearGradient id="paint46_linear_122_233" x1="3.27601" y1="0" x2="3.27601" y2="6.55202" gradientUnits="userSpaceOnUse">
<stop stop-color="#1B1B1B"/>
<stop offset="0.869792"/>
<stop offset="1" stop-color="#3A3A3A"/>
</linearGradient>
<linearGradient id="paint47_linear_122_233" x1="3.27601" y1="0" x2="3.27601" y2="6.55202" gradientUnits="userSpaceOnUse">
<stop stop-color="#1B1B1B"/>
<stop offset="0.869792"/>
<stop offset="1" stop-color="#3A3A3A"/>
</linearGradient>
<linearGradient id="paint48_linear_122_233" x1="3.27601" y1="0" x2="3.27601" y2="6.55202" gradientUnits="userSpaceOnUse">
<stop stop-color="#1B1B1B"/>
<stop offset="0.869792"/>
<stop offset="1" stop-color="#3A3A3A"/>
</linearGradient>
<linearGradient id="paint49_linear_122_233" x1="3.27601" y1="0" x2="3.27601" y2="6.55202" gradientUnits="userSpaceOnUse">
<stop stop-color="#1B1B1B"/>
<stop offset="0.869792"/>
<stop offset="1" stop-color="#3A3A3A"/>
</linearGradient>
<linearGradient id="paint50_linear_122_233" x1="3.27601" y1="0" x2="3.27601" y2="6.55202" gradientUnits="userSpaceOnUse">
<stop stop-color="#1B1B1B"/>
<stop offset="0.869792"/>
<stop offset="1" stop-color="#3A3A3A"/>
</linearGradient>
<linearGradient id="paint51_linear_122_233" x1="3.27601" y1="0" x2="3.27601" y2="6.55202" gradientUnits="userSpaceOnUse">
<stop stop-color="#1B1B1B"/>
<stop offset="0.869792"/>
<stop offset="1" stop-color="#3A3A3A"/>
</linearGradient>
<linearGradient id="paint52_linear_122_233" x1="3.27601" y1="0" x2="3.27601" y2="6.55202" gradientUnits="userSpaceOnUse">
<stop stop-color="#1B1B1B"/>
<stop offset="0.869792"/>
<stop offset="1" stop-color="#3A3A3A"/>
</linearGradient>
<linearGradient id="paint53_linear_122_233" x1="3.27601" y1="0" x2="3.27601" y2="6.55202" gradientUnits="userSpaceOnUse">
<stop stop-color="#1B1B1B"/>
<stop offset="0.869792"/>
<stop offset="1" stop-color="#3A3A3A"/>
</linearGradient>
<linearGradient id="paint54_linear_122_233" x1="3.27601" y1="0" x2="3.27601" y2="6.55202" gradientUnits="userSpaceOnUse">
<stop stop-color="#1B1B1B"/>
<stop offset="0.869792"/>
<stop offset="1" stop-color="#3A3A3A"/>
</linearGradient>
<linearGradient id="paint55_linear_122_233" x1="3.27601" y1="0" x2="3.27601" y2="6.55202" gradientUnits="userSpaceOnUse">
<stop stop-color="#1B1B1B"/>
<stop offset="0.869792"/>
<stop offset="1" stop-color="#3A3A3A"/>
</linearGradient>
<linearGradient id="paint56_linear_122_233" x1="3.27601" y1="0" x2="3.27601" y2="6.55202" gradientUnits="userSpaceOnUse">
<stop stop-color="#1B1B1B"/>
<stop offset="0.869792"/>
<stop offset="1" stop-color="#3A3A3A"/>
</linearGradient>
<linearGradient id="paint57_linear_122_233" x1="3.27601" y1="0" x2="3.27601" y2="6.55202" gradientUnits="userSpaceOnUse">
<stop stop-color="#1B1B1B"/>
<stop offset="0.869792"/>
<stop offset="1" stop-color="#3A3A3A"/>
</linearGradient>
<linearGradient id="paint58_linear_122_233" x1="3.27601" y1="0" x2="3.27601" y2="6.55202" gradientUnits="userSpaceOnUse">
<stop stop-color="#1B1B1B"/>
<stop offset="0.869792"/>
<stop offset="1" stop-color="#3A3A3A"/>
</linearGradient>
<linearGradient id="paint59_linear_122_233" x1="3.27601" y1="0" x2="3.27601" y2="6.55202" gradientUnits="userSpaceOnUse">
<stop stop-color="#1B1B1B"/>
<stop offset="0.869792"/>
<stop offset="1" stop-color="#3A3A3A"/>
</linearGradient>
<linearGradient id="paint60_linear_122_233" x1="3.27601" y1="0" x2="3.27601" y2="6.55202" gradientUnits="userSpaceOnUse">
<stop stop-color="#1B1B1B"/>
<stop offset="0.869792"/>
<stop offset="1" stop-color="#3A3A3A"/>
</linearGradient>
<linearGradient id="paint61_linear_122_233" x1="3.27601" y1="0" x2="3.27601" y2="6.55202" gradientUnits="userSpaceOnUse">
<stop stop-color="#1B1B1B"/>
<stop offset="0.869792"/>
<stop offset="1" stop-color="#3A3A3A"/>
</linearGradient>
<linearGradient id="paint62_linear_122_233" x1="3.27601" y1="0" x2="3.27601" y2="6.55202" gradientUnits="userSpaceOnUse">
<stop stop-color="#1B1B1B"/>
<stop offset="0.869792"/>
<stop offset="1" stop-color="#3A3A3A"/>
</linearGradient>
<linearGradient id="paint63_linear_122_233" x1="3.27601" y1="0" x2="3.27601" y2="6.55202" gradientUnits="userSpaceOnUse">
<stop stop-color="#1B1B1B"/>
<stop offset="0.869792"/>
<stop offset="1" stop-color="#3A3A3A"/>
</linearGradient>
<linearGradient id="paint64_linear_122_233" x1="3.27601" y1="0" x2="3.27601" y2="6.55202" gradientUnits="userSpaceOnUse">
<stop stop-color="#1B1B1B"/>
<stop offset="0.869792"/>
<stop offset="1" stop-color="#3A3A3A"/>
</linearGradient>
<linearGradient id="paint65_linear_122_233" x1="3.27601" y1="0" x2="3.27601" y2="6.55202" gradientUnits="userSpaceOnUse">
<stop stop-color="#1B1B1B"/>
<stop offset="0.869792"/>
<stop offset="1" stop-color="#3A3A3A"/>
</linearGradient>
<linearGradient id="paint66_linear_122_233" x1="3.27601" y1="0" x2="3.27601" y2="6.55202" gradientUnits="userSpaceOnUse">
<stop stop-color="#1B1B1B"/>
<stop offset="0.869792"/>
<stop offset="1" stop-color="#3A3A3A"/>
</linearGradient>
<linearGradient id="paint67_linear_122_233" x1="4.57876" y1="0" x2="4.57876" y2="6.55202" gradientUnits="userSpaceOnUse">
<stop stop-color="#1B1B1B"/>
<stop offset="0.869792"/>
<stop offset="1" stop-color="#3A3A3A"/>
</linearGradient>
<linearGradient id="paint68_linear_122_233" x1="4.57876" y1="0" x2="4.57876" y2="6.55202" gradientUnits="userSpaceOnUse">
<stop stop-color="#1B1B1B"/>
<stop offset="0.869792"/>
<stop offset="1" stop-color="#3A3A3A"/>
</linearGradient>
<linearGradient id="paint69_linear_122_233" x1="5.93247" y1="0" x2="5.93247" y2="6.55202" gradientUnits="userSpaceOnUse">
<stop stop-color="#1B1B1B"/>
<stop offset="0.869792"/>
<stop offset="1" stop-color="#3A3A3A"/>
</linearGradient>
<linearGradient id="paint70_linear_122_233" x1="7.90181" y1="0" x2="7.90181" y2="6.55202" gradientUnits="userSpaceOnUse">
<stop stop-color="#1B1B1B"/>
<stop offset="0.869792"/>
<stop offset="1" stop-color="#3A3A3A"/>
</linearGradient>
<radialGradient id="paint71_radial_122_233" cx="0" cy="0" r="1" gradientUnits="userSpaceOnUse" gradientTransform="translate(0.801567 0.810251) rotate(90) scale(0.810251 0.801567)">
<stop stop-color="white" stop-opacity="0.33"/>
<stop offset="1" stop-color="white" stop-opacity="0"/>
</radialGradient>
<linearGradient id="paint72_linear_122_233" x1="1092.75" y1="568.26" x2="1093.48" y2="593.924" gradientUnits="userSpaceOnUse">
<stop stop-color="white" stop-opacity="0.6"/>
<stop offset="1" stop-color="white" stop-opacity="0"/>
</linearGradient>
<linearGradient id="paint73_linear_122_233" x1="1158.01" y1="604.466" x2="1158.74" y2="630.13" gradientUnits="userSpaceOnUse">
<stop stop-color="white" stop-opacity="0"/>
<stop offset="0.515625" stop-color="white" stop-opacity="0.45"/>
<stop offset="1" stop-color="white" stop-opacity="0"/>
</linearGradient>
<linearGradient id="paint74_linear_122_233" x1="1183.18" y1="427.698" x2="1183.92" y2="453.362" gradientUnits="userSpaceOnUse">
<stop stop-color="white" stop-opacity="0.6"/>
<stop offset="1" stop-color="white" stop-opacity="0"/>
</linearGradient>
<linearGradient id="paint75_linear_122_233" x1="1179.04" y1="534.354" x2="1155.77" y2="580.934" gradientUnits="userSpaceOnUse">
<stop stop-color="#E982A5"/>
<stop offset="0.307087" stop-color="#9EC3E9" stop-opacity="0"/>
</linearGradient>
<linearGradient id="paint76_linear_122_233" x1="1020.32" y1="235.97" x2="1014.29" y2="241.545" gradientUnits="userSpaceOnUse">
<stop stop-color="#AAAAAA"/>
<stop offset="1" stop-color="#818181"/>
</linearGradient>
<clipPath id="clip0_122_233">
<rect width="1440" height="1024" fill="white"/>
</clipPath>
<clipPath id="clip1_122_233">
<rect width="499.807" height="345.785" fill="white" transform="matrix(0.876003 0.475136 -0.148135 0.991333 834.514 122.61)"/>
</clipPath>
</defs>
</svg>
