<svg width="1409" height="1024" viewBox="0 0 1409 1024" fill="none" xmlns="http://www.w3.org/2000/svg">
<mask id="mask0_125_560" style="mask-type:alpha" maskUnits="userSpaceOnUse" x="271" y="-398" width="1535" height="1506">
<path d="M271.673 -120.713L1301.31 -397.357L1805.62 1107.48L354.809 1034.66C354.809 1034.66 467.446 468.19 451.355 400.886C435.264 333.583 271.673 -120.713 271.673 -120.713Z" fill="url(#paint0_linear_125_560)"/>
</mask>
<g mask="url(#mask0_125_560)">
<path d="M317.086 1367.22L635.411 -646M181.875 1504.12L500.2 -509.099M425.182 1393.18L743.507 -620.036M533.278 1419.14L851.602 -594.072M641.374 1445.11L959.699 -568.108M749.47 1471.07L1067.79 -542.144M857.566 1497.04L1175.89 -516.18M965.662 1523L1285.88 -489.738M1100.07 1396.29L1420.28 -616.45M1540 316.907L-254.552 -109.286M1519.11 449.196L-275.446 23.0032M1498.21 581.485L-296.339 155.292M1477.32 713.773L-317.233 287.58M1456.43 846.062L-338.126 419.869M1435.53 978.351L-359.019 552.158M1414.64 1110.64L-380.258 686.768M1271.9 1216.97L-523 793.102" stroke="url(#paint1_linear_125_560)" stroke-opacity="0.5" stroke-width="1.20004"/>
</g>
<mask id="path-3-inside-1_125_560" fill="white">
<path fill-rule="evenodd" clip-rule="evenodd" d="M890.364 91.8148C888.168 90.6202 886.08 91.6675 885.702 94.154L826.01 486.571C825.632 489.057 827.106 492.041 829.302 493.236L1298.25 748.239C1300.44 749.434 1302.53 748.386 1302.91 745.9L1362.6 353.483C1362.98 350.997 1361.5 348.013 1359.31 346.818L890.364 91.8148Z"/>
</mask>
<path d="M885.702 94.154L882.741 93.7178L882.741 93.7178L885.702 94.154ZM890.364 91.8148L888.925 94.4583L888.925 94.4583L890.364 91.8148ZM826.01 486.571L828.97 487.007L828.97 487.007L826.01 486.571ZM829.302 493.236L827.863 495.879L827.863 495.879L829.302 493.236ZM1298.25 748.239L1296.81 750.883L1296.81 750.883L1298.25 748.239ZM1302.91 745.9L1305.87 746.336L1305.87 746.336L1302.91 745.9ZM1362.6 353.483L1359.64 353.047L1359.64 353.047L1362.6 353.483ZM1359.31 346.818L1360.75 344.174L1360.75 344.174L1359.31 346.818ZM888.663 94.5902C888.7 94.3443 888.763 94.2381 888.775 94.2199C888.784 94.2074 888.756 94.2508 888.678 94.2898C888.6 94.3288 888.549 94.325 888.564 94.3259C888.586 94.3272 888.708 94.3402 888.925 94.4583L891.803 89.1712C890.034 88.2088 887.918 87.9679 886.024 88.9182C884.13 89.8685 883.046 91.7145 882.741 93.7178L888.663 94.5902ZM828.97 487.007L888.663 94.5902L882.741 93.7178L823.049 486.135L828.97 487.007ZM830.742 490.592C830.283 490.343 829.755 489.809 829.375 489.041C828.996 488.273 828.891 487.526 828.97 487.007L823.049 486.135C822.75 488.102 823.193 490.091 824.006 491.735C824.818 493.379 826.125 494.934 827.863 495.879L830.742 490.592ZM1299.69 745.596L830.742 490.592L827.863 495.879L1296.81 750.883L1299.69 745.596ZM1299.95 745.464C1299.91 745.71 1299.85 745.816 1299.84 745.834C1299.83 745.847 1299.85 745.803 1299.93 745.764C1300.01 745.725 1300.06 745.729 1300.05 745.728C1300.02 745.727 1299.9 745.714 1299.69 745.596L1296.81 750.883C1298.58 751.845 1300.69 752.086 1302.59 751.136C1304.48 750.185 1305.56 748.339 1305.87 746.336L1299.95 745.464ZM1359.64 353.047L1299.95 745.464L1305.87 746.336L1365.56 353.919L1359.64 353.047ZM1357.87 349.462C1358.33 349.711 1358.86 350.245 1359.24 351.013C1359.61 351.781 1359.72 352.528 1359.64 353.047L1365.56 353.919C1365.86 351.952 1365.42 349.963 1364.6 348.319C1363.79 346.675 1362.49 345.12 1360.75 344.174L1357.87 349.462ZM888.925 94.4583L1357.87 349.462L1360.75 344.174L891.803 89.1712L888.925 94.4583Z" fill="white" mask="url(#path-3-inside-1_125_560)"/>
<path d="M887.339 95.2678L1350.23 346.98C1353.37 348.689 1355.48 352.958 1354.94 356.515L1296.29 742.081C1295.75 745.639 1292.76 747.137 1289.62 745.428L826.729 493.716C823.586 492.007 821.477 487.738 822.018 484.18L880.669 98.6145C881.21 95.0571 884.196 93.5587 887.339 95.2678Z" stroke="white" stroke-width="3"/>
<rect x="1.08713" y="2.20054" width="516.405" height="340.616" rx="6.5" transform="matrix(0.875492 0.476077 -0.150738 0.990952 887.884 124.466)" stroke="white" stroke-width="3"/>
<mask id="path-7-inside-2_125_560" fill="white">
<path fill-rule="evenodd" clip-rule="evenodd" d="M870.334 508.536C870.343 508.53 870.342 508.516 870.333 508.511V508.511C870.328 508.509 870.325 508.504 870.325 508.499L870.13 504.618C869.936 500.773 866.671 497.832 862.838 498.049L854.458 498.524C852.982 498.607 851.514 498.278 850.218 497.573L839.88 491.952C831.331 487.303 817.887 488.064 809.853 493.652L532.665 686.451C531.598 687.194 530.348 687.626 529.054 687.699L527.896 687.764C524.675 687.947 522.196 690.713 522.359 693.944L522.652 699.774C522.653 699.785 522.662 699.793 522.672 699.792V699.792C522.682 699.792 522.69 699.798 522.691 699.808C523.134 702.891 525.349 705.824 529.305 707.974L718.496 810.853C719.02 811.138 719.661 811.102 720.153 810.76V810.76C721.938 809.518 724.926 809.349 726.826 810.382L783.942 841.441C784.945 841.987 785.592 843.017 785.65 844.164L785.816 847.46C785.816 847.463 785.819 847.465 785.822 847.465V847.465C785.823 847.465 785.825 847.465 785.825 847.466L975.857 950.802C984.407 955.451 997.85 954.69 1005.88 949.102L1287.37 753.315C1291.39 750.519 1293.29 747.043 1293.12 743.686C1293.12 743.68 1293.12 743.675 1293.13 743.674V743.674C1293.13 743.674 1293.14 743.669 1293.14 743.663L1292.86 738.1C1292.7 735.022 1290.09 732.667 1287.02 732.841L1285.32 732.937C1283.97 733.013 1282.63 732.714 1281.45 732.072L1257.45 719.02C1255.35 717.875 1252.77 718.021 1250.79 719.397V719.397C1248.81 720.773 1246.24 720.919 1244.13 719.774L869.35 515.974C866.851 514.616 866.673 511.082 869.021 509.449L869.836 508.882C869.886 508.847 869.946 508.826 870.008 508.823L870.172 508.814C870.265 508.808 870.337 508.728 870.332 508.635L870.328 508.548C870.327 508.543 870.33 508.539 870.334 508.536V508.536Z"/>
</mask>
<path d="M839.88 491.952L838.441 494.595L838.441 494.595L839.88 491.952ZM809.853 493.652L811.549 496.118L811.549 496.118L809.853 493.652ZM529.305 707.974L530.744 705.331L530.744 705.331L529.305 707.974ZM726.826 810.382L725.386 813.025L725.386 813.025L726.826 810.382ZM975.857 950.802L974.418 953.445L974.418 953.445L975.857 950.802ZM1005.88 949.102L1004.19 946.636L1004.19 946.636L1005.88 949.102ZM1287.37 753.315L1285.67 750.849L1285.67 750.849L1287.37 753.315ZM869.836 508.882L868.139 506.416L869.836 508.882ZM1292.86 738.1L1295.85 737.931L1292.86 738.1ZM1293.14 743.663L1296.13 743.493L1293.14 743.663ZM1293.12 743.686L1290.13 743.859L1293.12 743.686ZM785.825 847.466L784.386 850.11L785.825 847.466ZM522.691 699.808L519.727 700.254L522.691 699.808ZM783.942 841.441L785.381 838.797L783.942 841.441ZM869.35 515.974L867.911 518.618L869.35 515.974ZM869.021 509.449L867.325 506.983L869.021 509.449ZM850.218 497.573L848.779 500.217L850.218 497.573ZM1244.13 719.774L1242.69 722.417L1244.13 719.774ZM870.13 504.618L867.139 504.787L870.13 504.618ZM532.665 686.451L534.362 688.917L532.665 686.451ZM1257.45 719.02L1258.89 716.376L1257.45 719.02ZM718.496 810.853L719.935 808.21L718.496 810.853ZM1281.45 732.072L1280.02 734.715L1281.45 732.072ZM870.325 508.499L867.334 508.669L870.325 508.499ZM867.139 504.787L867.334 508.669L873.316 508.33L873.121 504.448L867.139 504.787ZM854.609 501.523L862.989 501.049L862.687 495.049L854.307 495.524L854.609 501.523ZM838.441 494.595L848.779 500.217L851.657 494.93L841.319 489.308L838.441 494.595ZM811.549 496.118C815.009 493.712 819.807 492.247 824.824 491.963C829.841 491.679 834.76 492.594 838.441 494.595L841.319 489.308C836.451 486.661 830.373 485.632 824.522 485.963C818.671 486.294 812.731 488.004 808.156 491.186L811.549 496.118ZM534.362 688.917L811.549 496.118L808.156 491.186L530.969 683.985L534.362 688.917ZM528.047 690.764L529.205 690.699L528.903 684.699L527.745 684.764L528.047 690.764ZM525.643 699.605L525.35 693.774L519.368 694.113L519.661 699.944L525.643 699.605ZM530.744 705.331C527.343 703.482 525.926 701.242 525.656 699.362L519.727 700.254C520.343 704.54 523.355 708.165 527.866 710.618L530.744 705.331ZM719.935 808.21L530.744 705.331L527.866 710.618L717.057 813.497L719.935 808.21ZM728.265 807.738C726.721 806.899 724.919 806.626 723.295 806.718C721.671 806.81 719.907 807.285 718.456 808.294L721.849 813.226C722.184 812.993 722.807 812.762 723.597 812.718C724.388 812.673 725.03 812.832 725.386 813.025L728.265 807.738ZM785.381 838.797L728.265 807.738L725.386 813.025L782.503 844.084L785.381 838.797ZM788.807 847.29L788.641 843.995L782.659 844.333L782.825 847.629L788.807 847.29ZM977.296 948.158L787.265 844.822L784.386 850.11L974.418 953.445L977.296 948.158ZM1004.19 946.636C1000.73 949.042 995.93 950.507 990.913 950.791C985.896 951.075 980.977 950.16 977.296 948.158L974.418 953.445C979.286 956.093 985.364 957.122 991.215 956.791C997.066 956.459 1003.01 954.75 1007.58 951.568L1004.19 946.636ZM1285.67 750.849L1004.19 946.636L1007.58 951.568L1289.06 755.781L1285.67 750.849ZM1290.13 743.859C1290.23 745.86 1289.13 748.445 1285.67 750.849L1289.06 755.781C1293.65 752.592 1296.35 748.227 1296.11 743.514L1290.13 743.859ZM1289.87 738.269L1290.15 743.832L1296.13 743.493L1295.85 737.931L1289.87 738.269ZM1285.47 735.937L1287.17 735.841L1286.87 729.841L1285.16 729.937L1285.47 735.937ZM1256.01 721.663L1280.02 734.715L1282.89 729.428L1258.89 716.376L1256.01 721.663ZM867.911 518.618L1242.69 722.417L1245.57 717.13L870.789 513.331L867.911 518.618ZM868.139 506.416L867.325 506.983L870.718 511.915L871.532 511.348L868.139 506.416ZM870.021 505.814L869.856 505.823L870.159 511.823L870.323 511.813L870.021 505.814ZM867.337 508.718L867.341 508.804L873.323 508.465L873.319 508.379L867.337 508.718ZM870.323 511.813C872.068 511.715 873.411 510.216 873.323 508.465L867.341 508.804C867.262 507.241 868.462 505.902 870.021 505.814L870.323 511.813ZM871.532 511.348C871.126 511.631 870.651 511.795 870.159 511.823L869.856 505.823C869.241 505.858 868.647 506.063 868.139 506.416L871.532 511.348ZM1295.85 737.931C1295.61 733.195 1291.59 729.574 1286.87 729.841L1287.17 735.841C1288.59 735.76 1289.8 736.848 1289.87 738.269L1295.85 737.931ZM1293.28 746.674C1294.94 746.581 1296.21 745.156 1296.13 743.493L1290.15 743.832C1290.06 742.181 1291.33 740.768 1292.98 740.675L1293.28 746.674ZM1296.11 743.514C1296.19 745.163 1294.93 746.581 1293.28 746.674L1292.98 740.675C1291.32 740.769 1290.04 742.197 1290.13 743.859L1296.11 743.514ZM785.973 850.465C785.419 850.497 784.87 850.372 784.386 850.11L787.265 844.822C786.779 844.558 786.228 844.434 785.671 844.465L785.973 850.465ZM782.825 847.629C782.909 849.289 784.318 850.559 785.973 850.465L785.671 844.465C787.32 844.372 788.724 845.637 788.807 847.29L782.825 847.629ZM522.823 702.792C521.288 702.879 519.946 701.779 519.727 700.254L525.656 699.362C525.434 697.818 524.075 696.704 522.521 696.792L522.823 702.792ZM519.661 699.944C519.745 701.611 521.161 702.886 522.823 702.792L522.521 696.792C524.162 696.699 525.56 697.959 525.643 699.605L519.661 699.944ZM527.745 684.764C522.872 685.04 519.121 689.226 519.368 694.113L525.35 693.774C525.27 692.201 526.478 690.853 528.047 690.764L527.745 684.764ZM782.503 844.084C782.594 844.134 782.654 844.228 782.659 844.333L788.641 843.995C788.531 841.806 787.297 839.839 785.381 838.797L782.503 844.084ZM870.789 513.331C870.247 513.036 870.208 512.269 870.718 511.915L867.325 506.983C863.138 509.895 863.455 516.195 867.911 518.618L870.789 513.331ZM854.307 495.524C853.384 495.576 852.467 495.37 851.657 494.93L848.779 500.217C850.561 501.186 852.58 501.638 854.609 501.523L854.307 495.524ZM1249.09 716.931C1248.05 717.659 1246.68 717.736 1245.57 717.13L1242.69 722.417C1245.79 724.102 1249.58 723.887 1252.49 721.863L1249.09 716.931ZM873.121 504.448C872.843 498.947 868.172 494.739 862.687 495.049L862.989 501.049C865.17 500.926 867.028 502.599 867.139 504.787L873.121 504.448ZM873.319 508.379C873.371 509.416 872.883 510.409 872.03 511.002L868.637 506.07C867.776 506.669 867.284 507.671 867.337 508.718L873.319 508.379ZM530.969 683.985C530.358 684.41 529.643 684.657 528.903 684.699L529.205 690.699C531.052 690.594 532.838 689.977 534.362 688.917L530.969 683.985ZM1258.89 716.376C1255.79 714.692 1252.01 714.907 1249.09 716.931L1252.49 721.863C1253.54 721.135 1254.9 721.057 1256.01 721.663L1258.89 716.376ZM868.894 511.155C866.946 510.096 866.807 507.342 868.637 506.07L872.03 511.002C873.878 509.717 873.738 506.937 871.772 505.868L868.894 511.155ZM717.057 813.497C718.572 814.321 720.426 814.216 721.849 813.226L718.456 808.294C718.896 807.988 719.468 807.956 719.935 808.21L717.057 813.497ZM1285.16 729.937C1284.37 729.982 1283.59 729.806 1282.89 729.428L1280.02 734.715C1281.68 735.622 1283.57 736.045 1285.47 735.937L1285.16 729.937ZM871.772 505.868C872.679 506.361 873.264 507.293 873.316 508.33L867.334 508.669C867.387 509.716 867.977 510.657 868.894 511.155L871.772 505.868Z" fill="white" mask="url(#path-7-inside-2_125_560)"/>
<path d="M838.687 482.248L865.726 496.952C866.242 497.232 866.28 498.003 865.796 498.339C863.412 499.998 863.604 503.795 866.141 505.174L1242.94 710.07C1245.53 711.481 1248.63 711.305 1251.07 709.61C1252.63 708.528 1254.6 708.416 1256.26 709.316L1285.24 725.075C1289.24 727.25 1290.99 730.077 1291.12 732.671C1291.25 735.266 1289.79 738.275 1286.04 740.888L1004.55 936.675C1000.8 939.283 995.703 940.814 990.459 941.111C985.214 941.408 979.988 940.461 975.997 938.291L788.019 836.072C788.561 835.376 788.893 834.531 788.845 833.576C788.769 832.071 787.781 830.942 786.555 830.275L726.966 797.872C725.731 797.2 724.238 796.959 722.841 797.038C721.444 797.117 719.983 797.525 718.823 798.332C718.767 798.371 718.696 798.375 718.637 798.343L529.445 695.464C525.447 693.29 523.694 690.463 523.563 687.868C523.432 685.274 524.891 682.265 528.648 679.651L810.131 483.865C813.88 481.257 818.982 479.725 824.226 479.428C829.47 479.131 834.697 480.078 838.687 482.248Z" stroke="white" stroke-width="3"/>
<g filter="url(#filter0_ii_125_560)">
<rect x="0.0792358" y="1.57243" width="465.436" height="161.339" rx="6.5" transform="matrix(0.875492 0.476077 -0.822668 0.572211 829.974 512.165)" stroke="white" stroke-width="3"/>
</g>
<rect x="0.0792358" y="1.57243" width="252.783" height="149.341" rx="6.5" transform="matrix(0.875492 0.476077 -0.822668 0.572211 777.94 663.049)" stroke="white" stroke-width="3"/>
<rect x="0.0792358" y="1.57243" width="23.5975" height="23.5975" rx="6.5" transform="matrix(0.875492 0.476077 -0.822668 0.572211 829.472 516.193)" stroke="white" stroke-width="3"/>
<rect x="-2.54724" y="0.144202" width="23.5975" height="23.5975" rx="6.5" transform="matrix(-0.875492 -0.476077 -0.822668 0.572211 1199.89 752.181)" stroke="white" stroke-width="3"/>
<rect x="0.0792358" y="1.57243" width="23.5975" height="23.5975" rx="6.5" transform="matrix(0.875492 0.476077 -0.822668 0.572211 857.956 531.69)" stroke="white" stroke-width="3"/>
<rect x="-2.54724" y="0.144202" width="23.5975" height="23.5975" rx="6.5" transform="matrix(-0.875492 -0.476077 -0.822668 0.572211 1171.4 736.683)" stroke="white" stroke-width="3"/>
<rect x="-2.54724" y="0.144202" width="45.1656" height="23.5975" rx="6.5" transform="matrix(-0.875492 -0.476077 -0.822668 0.572211 1173.19 770.758)" stroke="white" stroke-width="3"/>
<rect x="0.0792358" y="1.57243" width="23.5975" height="23.5975" rx="6.5" transform="matrix(0.875492 0.476077 -0.822668 0.572211 886.471 547.192)" stroke="white" stroke-width="3"/>
<rect x="-2.54724" y="0.144202" width="23.5975" height="23.5975" rx="6.5" transform="matrix(-0.875492 -0.476077 -0.822668 0.572211 1142.88 721.184)" stroke="white" stroke-width="3"/>
<rect x="-2.54724" y="0.144202" width="23.5975" height="23.5975" rx="6.5" transform="matrix(-0.875492 -0.476077 -0.822668 0.572211 1125.82 744.988)" stroke="white" stroke-width="3"/>
<rect x="-2.54724" y="0.144202" width="61.7355" height="23.5975" rx="6.5" transform="matrix(-0.875492 -0.476077 -0.822668 0.572211 1146.48 789.332)" stroke="white" stroke-width="3"/>
<rect x="0.0792358" y="1.57243" width="23.5975" height="23.5975" rx="6.5" transform="matrix(0.875492 0.476077 -0.822668 0.572211 914.966 562.693)" stroke="white" stroke-width="3"/>
<rect x="-2.54724" y="0.144202" width="23.5975" height="23.5975" rx="6.5" transform="matrix(-0.875492 -0.476077 -0.822668 0.572211 1114.38 705.681)" stroke="white" stroke-width="3"/>
<rect x="-2.54724" y="0.144202" width="23.5975" height="23.5975" rx="6.5" transform="matrix(-0.875492 -0.476077 -0.822668 0.572211 1097.29 729.492)" stroke="white" stroke-width="3"/>
<rect x="-2.54724" y="0.144202" width="23.5975" height="23.5975" rx="6.5" transform="matrix(-0.875492 -0.476077 -0.822668 0.572211 1084.59 755.678)" stroke="white" stroke-width="3"/>
<rect x="-2.54724" y="0.144202" width="23.5975" height="23.5975" rx="6.5" transform="matrix(-0.875492 -0.476077 -0.822668 0.572211 1035.09 761.85)" stroke="white" stroke-width="3"/>
<rect x="-2.54724" y="0.144202" width="23.5975" height="10.923" rx="5.46151" transform="matrix(-0.875492 -0.476077 -0.822668 0.572211 1053.15 784.605)" stroke="white" stroke-width="3"/>
<rect x="-2.54724" y="0.144202" width="23.5975" height="23.5975" rx="6.5" transform="matrix(-0.875492 -0.476077 -0.822668 0.572211 1092.1 792.849)" stroke="white" stroke-width="3"/>
<rect x="-2.54724" y="0.144202" width="23.5975" height="10.9228" rx="5.46138" transform="matrix(-0.875492 -0.476077 -0.822668 0.572211 1109.36 815.162)" stroke="white" stroke-width="3"/>
<rect x="0.0792358" y="1.57243" width="23.5975" height="23.5975" rx="6.5" transform="matrix(0.875492 0.476077 -0.822668 0.572211 943.475 578.195)" stroke="white" stroke-width="3"/>
<rect x="-2.54724" y="0.144202" width="23.5975" height="23.5975" rx="6.5" transform="matrix(-0.875492 -0.476077 -0.822668 0.572211 1085.88 690.175)" stroke="white" stroke-width="3"/>
<rect x="-2.54724" y="0.144202" width="23.5975" height="23.5975" rx="6.5" transform="matrix(-0.875492 -0.476077 -0.822668 0.572211 1068.8 713.985)" stroke="white" stroke-width="3"/>
<rect x="-2.54724" y="0.144202" width="23.5975" height="23.5975" rx="6.5" transform="matrix(-0.875492 -0.476077 -0.822668 0.572211 1056.08 740.176)" stroke="white" stroke-width="3"/>
<rect x="-2.54724" y="0.144202" width="29.5585" height="23.5975" rx="6.5" transform="matrix(-0.875492 -0.476077 -0.822668 0.572211 1006.58 746.35)" stroke="white" stroke-width="3"/>
<rect x="-2.54724" y="0.144202" width="29.5585" height="23.5975" rx="6.5" transform="matrix(-0.875492 -0.476077 -0.822668 0.572211 831.02 650.886)" stroke="white" stroke-width="3"/>
<rect x="-2.54724" y="0.144202" width="152.488" height="23.5975" rx="6.5" transform="matrix(-0.875492 -0.476077 -0.822668 0.572211 972.381 727.749)" stroke="white" stroke-width="3"/>
<rect x="0.0792358" y="1.57243" width="23.5975" height="23.5975" rx="6.5" transform="matrix(0.875492 0.476077 -0.822668 0.572211 971.984 593.693)" stroke="white" stroke-width="3"/>
<rect x="-2.54724" y="0.144202" width="23.5975" height="23.5975" rx="6.5" transform="matrix(-0.875492 -0.476077 -0.822668 0.572211 1057.37 674.682)" stroke="white" stroke-width="3"/>
<rect x="-2.54724" y="0.144202" width="23.5975" height="23.5975" rx="6.5" transform="matrix(-0.875492 -0.476077 -0.822668 0.572211 1040.3 698.485)" stroke="white" stroke-width="3"/>
<rect x="-2.54724" y="0.144202" width="23.5975" height="23.5975" rx="6.5" transform="matrix(-0.875492 -0.476077 -0.822668 0.572211 1027.58 724.674)" stroke="white" stroke-width="3"/>
<rect x="0.0792358" y="1.57243" width="23.5975" height="23.5975" rx="6.5" transform="matrix(0.875492 0.476077 -0.822668 0.572211 1000.48 609.196)" stroke="white" stroke-width="3"/>
<rect x="-2.54724" y="0.144202" width="23.5975" height="23.5975" rx="6.5" transform="matrix(-0.875492 -0.476077 -0.822668 0.572211 1028.87 659.182)" stroke="white" stroke-width="3"/>
<rect x="-2.54724" y="0.144202" width="23.5975" height="23.5975" rx="6.5" transform="matrix(-0.875492 -0.476077 -0.822668 0.572211 1011.79 682.988)" stroke="white" stroke-width="3"/>
<rect x="-2.54724" y="0.144202" width="23.5975" height="23.5975" rx="6.5" transform="matrix(-0.875492 -0.476077 -0.822668 0.572211 999.083 709.174)" stroke="white" stroke-width="3"/>
<rect x="0.0792358" y="1.57243" width="23.5975" height="23.5975" rx="6.5" transform="matrix(0.875492 0.476077 -0.822668 0.572211 1028.99 624.696)" stroke="white" stroke-width="3"/>
<rect x="-2.54724" y="0.144202" width="23.5975" height="23.5975" rx="6.5" transform="matrix(-0.875492 -0.476077 -0.822668 0.572211 1000.36 643.682)" stroke="white" stroke-width="3"/>
<rect x="-2.54724" y="0.144202" width="23.5975" height="23.5975" rx="6.5" transform="matrix(-0.875492 -0.476077 -0.822668 0.572211 983.28 667.489)" stroke="white" stroke-width="3"/>
<rect x="-2.54724" y="0.144202" width="23.5975" height="23.5975" rx="6.5" transform="matrix(-0.875492 -0.476077 -0.822668 0.572211 970.568 693.677)" stroke="white" stroke-width="3"/>
<rect x="0.0792358" y="1.57243" width="23.5975" height="23.5975" rx="6.5" transform="matrix(0.875492 0.476077 -0.822668 0.572211 1057.51 640.191)" stroke="white" stroke-width="3"/>
<rect x="-2.54724" y="0.144202" width="23.5975" height="23.5975" rx="6.5" transform="matrix(-0.875492 -0.476077 -0.822668 0.572211 971.847 628.183)" stroke="white" stroke-width="3"/>
<rect x="-2.54724" y="0.144202" width="23.5975" height="23.5975" rx="6.5" transform="matrix(-0.875492 -0.476077 -0.822668 0.572211 954.771 651.982)" stroke="white" stroke-width="3"/>
<rect x="-2.54724" y="0.144202" width="23.5975" height="23.5975" rx="6.5" transform="matrix(-0.875492 -0.476077 -0.822668 0.572211 942.059 678.171)" stroke="white" stroke-width="3"/>
<rect x="0.0792358" y="1.57243" width="23.5975" height="23.5975" rx="6.5" transform="matrix(0.875492 0.476077 -0.822668 0.572211 1086 655.692)" stroke="white" stroke-width="3"/>
<rect x="-2.54724" y="0.144202" width="23.5975" height="23.5975" rx="6.5" transform="matrix(-0.875492 -0.476077 -0.822668 0.572211 943.338 612.685)" stroke="white" stroke-width="3"/>
<rect x="-2.54724" y="0.144202" width="23.5975" height="23.5975" rx="6.5" transform="matrix(-0.875492 -0.476077 -0.822668 0.572211 926.263 636.489)" stroke="white" stroke-width="3"/>
<rect x="-2.54724" y="0.144202" width="23.5975" height="23.5975" rx="6.5" transform="matrix(-0.875492 -0.476077 -0.822668 0.572211 913.578 662.67)" stroke="white" stroke-width="3"/>
<rect x="0.0792358" y="1.57243" width="23.5975" height="23.5975" rx="6.5" transform="matrix(0.875492 0.476077 -0.822668 0.572211 1114.51 671.195)" stroke="white" stroke-width="3"/>
<rect x="-2.54724" y="0.144202" width="23.5975" height="23.5975" rx="6.5" transform="matrix(-0.875492 -0.476077 -0.822668 0.572211 914.85 597.181)" stroke="white" stroke-width="3"/>
<rect x="-2.54724" y="0.144202" width="23.5975" height="23.5975" rx="6.5" transform="matrix(-0.875492 -0.476077 -0.822668 0.572211 897.775 620.988)" stroke="white" stroke-width="3"/>
<rect x="-2.54724" y="0.144202" width="23.5975" height="23.5975" rx="6.5" transform="matrix(-0.875492 -0.476077 -0.822668 0.572211 885.049 647.176)" stroke="white" stroke-width="3"/>
<rect x="0.0792358" y="1.57243" width="23.5975" height="23.5975" rx="6.5" transform="matrix(0.875492 0.476077 -0.822668 0.572211 1142.99 686.699)" stroke="white" stroke-width="3"/>
<rect x="-2.54724" y="0.144202" width="23.5975" height="23.5975" rx="6.5" transform="matrix(-0.875492 -0.476077 -0.822668 0.572211 886.348 581.678)" stroke="white" stroke-width="3"/>
<rect x="-2.54724" y="0.144202" width="23.5975" height="23.5975" rx="6.5" transform="matrix(-0.875492 -0.476077 -0.822668 0.572211 869.259 605.488)" stroke="white" stroke-width="3"/>
<rect x="-2.54724" y="0.144202" width="23.5975" height="23.5975" rx="6.5" transform="matrix(-0.875492 -0.476077 -0.822668 0.572211 856.541 631.674)" stroke="white" stroke-width="3"/>
<rect x="-2.54724" y="0.144202" width="23.5975" height="23.5975" rx="6.5" transform="matrix(-0.875492 -0.476077 -0.822668 0.572211 768.795 617.048)" stroke="white" stroke-width="3"/>
<rect x="-2.54724" y="0.144202" width="23.5975" height="23.5975" rx="6.5" transform="matrix(-0.875492 -0.476077 -0.822668 0.572211 797.303 632.548)" stroke="white" stroke-width="3"/>
<rect x="0.0792358" y="1.57243" width="23.5975" height="23.5975" rx="6.5" transform="matrix(0.875492 0.476077 -0.822668 0.572211 1171.5 702.196)" stroke="white" stroke-width="3"/>
<rect x="-2.54724" y="0.144202" width="23.5975" height="23.5975" rx="6.5" transform="matrix(-0.875492 -0.476077 -0.822668 0.572211 857.84 566.178)" stroke="white" stroke-width="3"/>
<rect x="-2.54724" y="0.144202" width="23.5975" height="23.5975" rx="6.5" transform="matrix(-0.875492 -0.476077 -0.822668 0.572211 840.758 589.985)" stroke="white" stroke-width="3"/>
<rect x="-2.54724" y="0.144202" width="23.5975" height="23.5975" rx="6.5" transform="matrix(-0.875492 -0.476077 -0.822668 0.572211 828.052 616.17)" stroke="white" stroke-width="3"/>
<rect x="-2.54724" y="0.144202" width="23.5975" height="23.5975" rx="6.5" transform="matrix(-0.875492 -0.476077 -0.822668 0.572211 740.293 601.545)" stroke="white" stroke-width="3"/>
<rect x="0.0792358" y="1.57243" width="34.1743" height="23.5975" rx="6.5" transform="matrix(0.875492 0.476077 -0.822668 0.572211 1200.02 717.695)" stroke="white" stroke-width="3"/>
<rect x="-2.54724" y="0.144202" width="34.1743" height="23.5975" rx="6.5" transform="matrix(-0.875492 -0.476077 -0.822668 0.572211 829.331 550.68)" stroke="white" stroke-width="3"/>
<rect x="-2.54724" y="0.144202" width="45.1649" height="23.5975" rx="6.5" transform="matrix(-0.875492 -0.476077 -0.822668 0.572211 812.249 574.483)" stroke="white" stroke-width="3"/>
<rect x="-2.54724" y="0.144202" width="61.1537" height="23.5975" rx="6.5" transform="matrix(-0.875492 -0.476077 -0.822668 0.572211 799.544 600.672)" stroke="white" stroke-width="3"/>
<rect x="0.0792358" y="1.57243" width="16.9126" height="153.442" rx="6.5" transform="matrix(0.875492 0.476077 -0.822668 0.572211 797.832 498.999)" stroke="white" stroke-width="3"/>
<rect x="0.0792358" y="1.57243" width="16.9126" height="153.442" rx="6.5" transform="matrix(0.875492 0.476077 -0.822668 0.572211 1247.07 743.286)" stroke="white" stroke-width="3"/>
<path d="M1126.05 240.181C1125.56 242.194 1123.8 242.963 1122.2 242.092C1120.6 241.22 1119.57 238.936 1120.06 236.924C1120.54 234.911 1122.3 234.142 1123.91 235.013C1125.51 235.885 1126.53 238.168 1126.05 240.181Z" stroke="white" stroke-width="3"/>
<path d="M1123.82 238.326C1123.56 239.403 1122.64 239.769 1121.84 239.336C1121.04 238.902 1120.49 237.733 1120.75 236.656C1121.01 235.579 1121.93 235.213 1122.73 235.646C1123.53 236.08 1124.08 237.249 1123.82 238.326Z" stroke="white" stroke-width="3"/>
<ellipse cx="0.348781" cy="0.363637" rx="0.348781" ry="0.363637" transform="matrix(0.875492 0.476077 -0.234934 0.974804 1121.46 234.617)" fill="white"/>
<path fill-rule="evenodd" clip-rule="evenodd" d="M707.948 793.774C707.823 794.038 707.504 794.144 707.249 794.006L528.224 697.238C527.989 697.111 527.894 696.82 528.009 696.576V696.576C528.134 696.313 528.453 696.207 528.708 696.344L707.733 793.112C707.968 793.24 708.063 793.53 707.948 793.774V793.774Z" stroke="white" stroke-width="3"/>
<path fill-rule="evenodd" clip-rule="evenodd" d="M974.26 937.949C974.136 938.213 973.817 938.319 973.562 938.181L794.537 841.413C794.301 841.286 794.207 840.995 794.322 840.751V840.751C794.447 840.488 794.766 840.382 795.021 840.52L974.046 937.288C974.281 937.415 974.376 937.705 974.26 937.949V937.949Z" stroke="white" stroke-width="3"/>
<path d="M1060.08 68.949C1060.08 68.9453 1060.08 68.9421 1060.07 68.9396C1060.08 68.9368 1060.08 68.9333 1060.08 68.9293C1060.09 68.9203 1060.1 68.9063 1060.13 68.8934C1060.15 68.8797 1060.19 68.8704 1060.22 68.8686C1060.25 68.8667 1060.28 68.8724 1060.31 68.883C1060.34 68.8931 1060.35 68.9054 1060.36 68.9134C1060.37 68.917 1060.37 68.9202 1060.37 68.9228C1060.37 68.9256 1060.37 68.9291 1060.36 68.9331C1060.35 68.942 1060.34 68.9561 1060.32 68.969C1060.29 68.9827 1060.26 68.992 1060.22 68.9938C1060.19 68.9957 1060.16 68.99 1060.13 68.9794C1060.11 68.9693 1060.09 68.957 1060.08 68.949Z" fill="white" stroke="white" stroke-width="3"/>
<g opacity="0.39" filter="url(#filter1_f_125_560)">
<path d="M1284.86 742.991L1284.02 741.758L1284.02 741.758L1284.86 742.991ZM1283.93 724.455L1284.65 723.134L1284.65 723.134L1283.93 724.455ZM864.83 504.554L864.111 505.876L864.83 504.554ZM1176.55 812.88L1177.28 811.567L1176.55 812.88ZM1185 812.455L1184.15 811.222L1185 812.455ZM1241.63 709.45L1240.91 710.772L1241.63 709.45ZM1254.95 708.696L1254.23 710.018L1254.95 708.696ZM943.673 681.047L942.365 681.786L943.673 681.047ZM946.725 684.109L945.989 685.422L946.725 684.109ZM944.981 680.309L835.828 484.256L833.212 485.733L942.365 681.786L944.981 680.309ZM1177.28 811.567L947.461 682.797L945.989 685.422L1175.81 814.193L1177.28 811.567ZM1185.84 813.688L1285.71 744.224L1284.02 741.758L1184.15 811.222L1185.84 813.688ZM1285.71 744.224C1290.01 741.234 1292.31 737.318 1292.11 733.287C1291.91 729.255 1289.22 725.621 1284.65 723.134L1283.21 725.777C1287.18 727.939 1288.98 730.779 1289.12 733.456C1289.25 736.133 1287.75 739.161 1284.02 741.758L1285.71 744.224ZM1284.65 723.134L1255.67 707.374L1254.23 710.018L1283.21 725.777L1284.65 723.134ZM1242.35 708.128L865.55 503.233L864.111 505.876L1240.91 710.772L1242.35 708.128ZM865.136 495.01L838.097 480.306L836.658 482.95L863.697 497.653L865.136 495.01ZM865.472 501.676C867.87 500.007 867.688 496.398 865.136 495.01L863.697 497.653C864.293 497.977 864.335 498.82 863.775 499.21L865.472 501.676ZM865.55 503.233C864.954 502.908 864.911 502.065 865.472 501.676L863.775 499.21C861.376 500.878 861.558 504.488 864.111 505.876L865.55 503.233ZM1175.81 814.193C1178.97 815.96 1182.86 815.764 1185.84 813.688L1184.15 811.222C1182.1 812.643 1179.44 812.777 1177.28 811.567L1175.81 814.193ZM1247.44 707.84C1245.93 708.892 1243.96 709.004 1242.35 708.128L1240.91 710.772C1243.51 712.187 1246.69 712.006 1249.14 710.306L1247.44 707.84ZM835.828 484.256C835.528 483.717 835.658 483.258 835.849 483.027C835.945 482.911 836.051 482.854 836.148 482.834C836.235 482.816 836.401 482.81 836.658 482.95L838.097 480.306C836.38 479.373 834.589 479.857 833.547 481.118C832.548 482.327 832.322 484.135 833.212 485.733L835.828 484.256ZM1255.67 707.374C1253.07 705.96 1249.88 706.14 1247.44 707.84L1249.14 710.306C1250.65 709.254 1252.62 709.142 1254.23 710.018L1255.67 707.374ZM942.365 681.786C943.214 683.311 944.468 684.57 945.989 685.422L947.461 682.797C946.421 682.214 945.562 681.353 944.981 680.309L942.365 681.786Z" fill="white"/>
</g>
<g opacity="0.9" clip-path="url(#clip0_125_560)">
<mask id="mask1_125_560" style="mask-type:luminance" maskUnits="userSpaceOnUse" x="752" y="122" width="489" height="581">
<path d="M1240.9 359.843L803.514 122.61L752.367 464.893L1189.75 702.126L1240.9 359.843Z" fill="white"/>
</mask>
<g mask="url(#mask1_125_560)">
<g filter="url(#filter2_ddf_125_560)">
<path d="M1229.72 353.782L811.878 127.147C807.259 124.641 802.856 127.014 802.044 132.446L753.836 455.056C753.025 460.489 756.112 466.924 760.731 469.43L1178.58 696.065C1183.19 698.57 1187.6 696.198 1188.41 690.765L1236.62 368.155C1237.43 362.722 1234.34 356.287 1229.72 353.782Z" fill="white"/>
</g>
<g filter="url(#filter3_dd_125_560)">
<path d="M948.479 416.23L938.538 410.839C936.406 409.682 934.374 410.777 933.999 413.285L932.253 424.974C931.878 427.482 933.303 430.452 935.435 431.608L945.375 437C947.507 438.156 949.539 437.061 949.914 434.554L951.661 422.864C952.035 420.357 950.611 417.387 948.479 416.23Z" fill="white"/>
</g>
<g filter="url(#filter4_i_125_560)">
<path d="M984.424 299.107L963.722 287.878C958.111 284.834 952.763 287.717 951.777 294.315L951.777 294.315C950.791 300.914 954.54 308.73 960.151 311.774L980.854 323.002C986.465 326.046 991.813 323.164 992.799 316.565L992.799 316.565C993.785 309.967 990.036 302.15 984.424 299.107Z" fill="#FF9416"/>
</g>
<g filter="url(#filter5_d_125_560)">
<path d="M980.114 319.015C984.167 321.214 988.03 319.132 988.743 314.366C989.455 309.599 986.747 303.953 982.693 301.755C978.64 299.556 974.777 301.638 974.065 306.404C973.353 311.171 976.061 316.817 980.114 319.015Z" fill="white"/>
</g>
<g filter="url(#filter6_i_125_560)">
<path d="M979.216 333.961L958.514 322.732C952.903 319.689 947.555 322.571 946.569 329.169L946.569 329.169C945.583 335.768 949.332 343.584 954.943 346.628L975.645 357.857C981.257 360.9 986.605 358.018 987.591 351.419L987.591 351.419C988.577 344.821 984.827 337.004 979.216 333.961Z" fill="white"/>
</g>
<g filter="url(#filter7_d_125_560)">
<path d="M956.317 343.786C960.37 345.985 964.233 343.903 964.945 339.136C965.658 334.37 962.949 328.724 958.896 326.525C954.843 324.327 950.98 326.409 950.267 331.175C949.555 335.942 952.264 341.588 956.317 343.786Z" fill="white"/>
</g>
<g filter="url(#filter8_dd_125_560)">
<path d="M953.105 385.271L943.165 379.88C941.032 378.723 939 379.818 938.626 382.326L936.879 394.015C936.504 396.523 937.929 399.493 940.061 400.649L950.001 406.041C952.133 407.197 954.165 406.102 954.54 403.595L956.287 391.905C956.662 389.398 955.237 386.428 953.105 385.271Z" fill="#2094FF"/>
</g>
<path d="M942.491 390.361L944.964 396.599L952.024 391.394" stroke="white" stroke-width="4.30878" stroke-linecap="round" stroke-linejoin="round"/>
<g filter="url(#filter9_dd_125_560)">
<path d="M943.738 447.958L933.797 442.566C931.665 441.41 929.633 442.505 929.258 445.012L927.512 456.702C927.137 459.209 928.562 462.179 930.694 463.336L940.634 468.727C942.766 469.884 944.798 468.789 945.173 466.281L946.92 454.592C947.294 452.084 945.87 449.114 943.738 447.958Z" fill="#2094FF"/>
</g>
<path d="M933.124 453.048L935.597 459.285L942.657 454.081" stroke="white" stroke-width="4.30878" stroke-linecap="round" stroke-linejoin="round"/>
<g filter="url(#filter10_i_125_560)">
<path d="M802.044 132.446C802.856 127.014 807.259 124.641 811.878 127.147L1229.72 353.782C1234.34 356.287 1237.43 362.722 1236.62 368.155L1233.85 386.695L799.274 150.987L802.044 132.446Z" fill="#F0F2F2"/>
</g>
<g filter="url(#filter11_d_125_560)">
<path d="M921.857 201.868C922.669 196.435 927.072 194.062 931.691 196.568L995.855 231.37C1000.47 233.876 1003.56 240.311 1002.75 245.743L1001.95 251.101C1001.2 256.115 1004.05 262.055 1008.31 264.368L1009.22 264.858L911.395 211.8L911.979 212.117C916.243 214.43 920.307 212.24 921.056 207.225L921.857 201.868Z" fill="white" fill-opacity="0.5"/>
</g>
<g filter="url(#filter12_d_125_560)">
<path d="M862.669 169.765C863.481 164.332 867.884 161.959 872.504 164.465L961.811 212.904C966.43 215.41 969.517 221.845 968.706 227.278L967.905 232.635C967.156 237.65 970.005 243.59 974.269 245.903L977.852 247.846L849.626 178.298L852.791 180.014C857.055 182.327 861.119 180.137 861.868 175.122L862.669 169.765Z" fill="white"/>
</g>
<g filter="url(#filter13_f_125_560)">
<rect width="134.845" height="161.424" rx="4.23859" transform="matrix(0.870907 0.485221 -0.819393 0.533592 1168.21 486.086)" fill="url(#paint2_linear_125_560)" fill-opacity="0.31"/>
</g>
<path fill-rule="evenodd" clip-rule="evenodd" d="M1128.46 427.602C1128.49 427.607 1129.66 427.57 1130.24 427.551L1130.3 427.808C1130.93 427.761 1131.62 427.921 1132.32 428.312L1241.27 489.013C1243.46 490.231 1244.91 493.231 1244.52 495.715L1230.87 582.296C1230.48 584.78 1228.39 585.807 1226.2 584.589L1117.25 523.888C1115.07 522.67 1113.61 519.67 1114 517.186L1127.66 430.605C1127.84 429.436 1128.4 428.589 1129.17 428.148L1128.46 427.602Z" fill="#868686"/>
<rect width="134.187" height="96.5554" rx="4.54323" transform="matrix(0.870907 0.485221 -0.156094 0.989855 1126.94 426.146)" fill="url(#paint3_linear_125_560)"/>
<rect width="127.95" height="81.9034" transform="matrix(0.870907 0.485221 -0.156094 0.989855 1128.61 434.557)" fill="#FFA216"/>
<path fill-rule="evenodd" clip-rule="evenodd" d="M1124.33 526.149L1124.32 526.145L1124.19 523.547L1119.88 523.671L1116.86 521.988C1114.77 520.821 1111.47 520.916 1109.5 522.199L1041.09 566.749L1038.89 566.812L1039.03 569.613L1039.04 569.612C1039.15 570.354 1039.69 571.071 1040.66 571.612L1087.23 597.559L1087.43 597.43C1087.87 597.145 1088.6 597.124 1089.07 597.383L1103.46 605.402L1103.52 606.634L1103.52 606.634L1150.09 632.579C1152.18 633.746 1155.48 633.652 1157.45 632.368L1226.52 587.393C1227.5 586.75 1227.97 585.931 1227.93 585.126L1227.93 585.126L1227.8 582.457L1225.51 582.522L1218.35 578.53L1216.77 579.561L1122.75 527.18L1124.22 526.219L1124.33 526.216L1124.33 526.153L1124.33 526.149Z" fill="url(#paint4_linear_125_560)"/>
<path d="M1124.21 523.49L1116.74 519.33C1114.64 518.162 1111.35 518.257 1109.38 519.54L1040.31 564.515C1038.34 565.799 1038.44 567.786 1040.54 568.953L1087.11 594.9L1087.3 594.771C1087.74 594.486 1088.47 594.465 1088.94 594.725L1103.54 602.86C1104.01 603.12 1104.03 603.561 1103.59 603.846L1103.39 603.975L1149.96 629.92C1152.06 631.087 1155.35 630.993 1157.33 629.709L1226.39 584.734C1228.36 583.451 1228.26 581.464 1226.17 580.297L1218.22 575.871L1216.64 576.902L1122.62 524.521L1124.21 523.49Z" fill="url(#paint5_linear_125_560)"/>
<g filter="url(#filter14_ii_125_560)">
<rect width="115.394" height="40.4833" rx="1.70371" transform="matrix(0.870907 0.485221 -0.819393 0.533592 1114.11 526.596)" fill="#747577"/>
</g>
<rect x="0.00731376" y="0.144647" width="62.7256" height="37.2437" rx="2.69755" transform="matrix(0.870907 0.485221 -0.819393 0.533592 1101.43 562.395)" fill="url(#paint6_radial_125_560)" stroke="#343434" stroke-width="0.283952"/>
<rect width="6.55202" height="6.55202" rx="0.561697" transform="matrix(0.870907 0.485221 -0.819393 0.533592 1113.99 527.556)" fill="url(#paint7_linear_125_560)"/>
<rect width="6.55202" height="6.55202" rx="0.561697" transform="matrix(-0.870907 -0.485221 -0.819393 0.533592 1206.21 586.857)" fill="url(#paint8_linear_125_560)"/>
<rect width="6.55202" height="6.55202" rx="0.561697" transform="matrix(0.870907 0.485221 -0.819393 0.533592 1120.97 531.447)" fill="url(#paint9_linear_125_560)"/>
<rect width="6.55202" height="6.55202" rx="0.561697" transform="matrix(-0.870907 -0.485221 -0.819393 0.533592 1199.23 582.967)" fill="url(#paint10_linear_125_560)"/>
<rect width="11.8651" height="6.55202" rx="0.561697" transform="matrix(-0.870907 -0.485221 -0.819393 0.533592 1199.66 591.125)" fill="url(#paint11_linear_125_560)"/>
<rect width="6.55202" height="6.55202" rx="0.561697" transform="matrix(0.870907 0.485221 -0.819393 0.533592 1127.95 535.339)" fill="url(#paint12_linear_125_560)"/>
<rect width="6.55202" height="6.55202" rx="0.561697" transform="matrix(-0.870907 -0.485221 -0.819393 0.533592 1192.24 579.075)" fill="url(#paint13_linear_125_560)"/>
<rect width="6.55202" height="6.55202" rx="0.561697" transform="matrix(-0.870907 -0.485221 -0.819393 0.533592 1188.05 584.655)" fill="url(#paint14_linear_125_560)"/>
<rect width="15.9469" height="6.55202" rx="0.561697" transform="matrix(-0.870907 -0.485221 -0.819393 0.533592 1193.1 595.392)" fill="url(#paint15_linear_125_560)"/>
<rect width="6.55202" height="6.55202" rx="0.561697" transform="matrix(0.870907 0.485221 -0.819393 0.533592 1134.94 539.231)" fill="url(#paint16_linear_125_560)"/>
<rect width="6.55202" height="6.55202" rx="0.561697" transform="matrix(-0.870907 -0.485221 -0.819393 0.533592 1185.26 575.183)" fill="url(#paint17_linear_125_560)"/>
<rect width="6.55202" height="6.55202" rx="0.561697" transform="matrix(-0.870907 -0.485221 -0.819393 0.533592 1181.06 580.764)" fill="url(#paint18_linear_125_560)"/>
<rect width="6.55202" height="6.55202" rx="0.561697" transform="matrix(-0.870907 -0.485221 -0.819393 0.533592 1177.94 586.942)" fill="url(#paint19_linear_125_560)"/>
<rect width="6.55202" height="6.55202" rx="0.561697" transform="matrix(-0.870907 -0.485221 -0.819393 0.533592 1165.8 588.095)" fill="url(#paint20_linear_125_560)"/>
<rect width="6.55202" height="3.4298" rx="0.561697" transform="matrix(-0.870907 -0.485221 -0.819393 0.533592 1170.22 593.653)" fill="url(#paint21_linear_125_560)"/>
<rect width="6.55202" height="6.55202" rx="0.561697" transform="matrix(-0.870907 -0.485221 -0.819393 0.533592 1179.77 595.878)" fill="url(#paint22_linear_125_560)"/>
<rect width="6.55202" height="3.42973" rx="0.561697" transform="matrix(-0.870907 -0.485221 -0.819393 0.533592 1184 601.325)" fill="url(#paint23_linear_125_560)"/>
<rect width="6.55202" height="6.55202" rx="0.561697" transform="matrix(0.870907 0.485221 -0.819393 0.533592 1141.92 543.123)" fill="url(#paint24_linear_125_560)"/>
<rect width="6.55202" height="6.55202" rx="0.561697" transform="matrix(-0.870907 -0.485221 -0.819393 0.533592 1178.27 571.29)" fill="url(#paint25_linear_125_560)"/>
<rect width="6.55202" height="6.55202" rx="0.561697" transform="matrix(-0.870907 -0.485221 -0.819393 0.533592 1174.08 576.871)" fill="url(#paint26_linear_125_560)"/>
<rect width="6.55202" height="6.55202" rx="0.561697" transform="matrix(-0.870907 -0.485221 -0.819393 0.533592 1170.95 583.05)" fill="url(#paint27_linear_125_560)"/>
<rect width="8.02047" height="6.55202" rx="0.561697" transform="matrix(-0.870907 -0.485221 -0.819393 0.533592 1158.82 584.203)" fill="url(#paint28_linear_125_560)"/>
<rect width="8.02047" height="6.55202" rx="0.561697" transform="matrix(-0.870907 -0.485221 -0.819393 0.533592 1115.79 560.235)" fill="url(#paint29_linear_125_560)"/>
<rect width="38.3028" height="6.55202" rx="0.561697" transform="matrix(-0.870907 -0.485221 -0.819393 0.533592 1150.43 579.533)" fill="url(#paint30_linear_125_560)"/>
<rect width="6.55202" height="6.55202" rx="0.561697" transform="matrix(0.870907 0.485221 -0.819393 0.533592 1148.91 547.014)" fill="url(#paint31_linear_125_560)"/>
<rect width="6.55202" height="6.55202" rx="0.561697" transform="matrix(-0.870907 -0.485221 -0.819393 0.533592 1171.28 567.4)" fill="url(#paint32_linear_125_560)"/>
<rect width="6.55202" height="6.55202" rx="0.561697" transform="matrix(-0.870907 -0.485221 -0.819393 0.533592 1167.09 572.979)" fill="url(#paint33_linear_125_560)"/>
<rect width="6.55202" height="6.55202" rx="0.561697" transform="matrix(-0.870907 -0.485221 -0.819393 0.533592 1163.97 579.158)" fill="url(#paint34_linear_125_560)"/>
<rect width="6.55202" height="6.55202" rx="0.561697" transform="matrix(0.870907 0.485221 -0.819393 0.533592 1155.89 550.906)" fill="url(#paint35_linear_125_560)"/>
<rect width="6.55202" height="6.55202" rx="0.561697" transform="matrix(-0.870907 -0.485221 -0.819393 0.533592 1164.3 563.508)" fill="url(#paint36_linear_125_560)"/>
<rect width="6.55202" height="6.55202" rx="0.561697" transform="matrix(-0.870907 -0.485221 -0.819393 0.533592 1160.11 569.088)" fill="url(#paint37_linear_125_560)"/>
<rect width="6.55202" height="6.55202" rx="0.561697" transform="matrix(-0.870907 -0.485221 -0.819393 0.533592 1156.99 575.266)" fill="url(#paint38_linear_125_560)"/>
<rect width="6.55202" height="6.55202" rx="0.561697" transform="matrix(0.870907 0.485221 -0.819393 0.533592 1162.88 554.798)" fill="url(#paint39_linear_125_560)"/>
<rect width="6.55202" height="6.55202" rx="0.561697" transform="matrix(-0.870907 -0.485221 -0.819393 0.533592 1157.32 559.616)" fill="url(#paint40_linear_125_560)"/>
<rect width="6.55202" height="6.55202" rx="0.561697" transform="matrix(-0.870907 -0.485221 -0.819393 0.533592 1153.12 565.197)" fill="url(#paint41_linear_125_560)"/>
<rect width="6.55202" height="6.55202" rx="0.561697" transform="matrix(-0.870907 -0.485221 -0.819393 0.533592 1150 571.375)" fill="url(#paint42_linear_125_560)"/>
<rect width="6.55202" height="6.55202" rx="0.561697" transform="matrix(0.870907 0.485221 -0.819393 0.533592 1169.87 558.688)" fill="url(#paint43_linear_125_560)"/>
<rect width="6.55202" height="6.55202" rx="0.561697" transform="matrix(-0.870907 -0.485221 -0.819393 0.533592 1150.33 555.725)" fill="url(#paint44_linear_125_560)"/>
<rect width="6.55202" height="6.55202" rx="0.561697" transform="matrix(-0.870907 -0.485221 -0.819393 0.533592 1146.14 561.304)" fill="url(#paint45_linear_125_560)"/>
<rect width="6.55202" height="6.55202" rx="0.561697" transform="matrix(-0.870907 -0.485221 -0.819393 0.533592 1143.01 567.482)" fill="url(#paint46_linear_125_560)"/>
<rect width="6.55202" height="6.55202" rx="0.561697" transform="matrix(0.870907 0.485221 -0.819393 0.533592 1176.85 562.58)" fill="url(#paint47_linear_125_560)"/>
<rect width="6.55202" height="6.55202" rx="0.561697" transform="matrix(-0.870907 -0.485221 -0.819393 0.533592 1143.34 551.834)" fill="url(#paint48_linear_125_560)"/>
<rect width="6.55202" height="6.55202" rx="0.561697" transform="matrix(-0.870907 -0.485221 -0.819393 0.533592 1139.15 557.414)" fill="url(#paint49_linear_125_560)"/>
<rect width="6.55202" height="6.55202" rx="0.561697" transform="matrix(-0.870907 -0.485221 -0.819393 0.533592 1136.03 563.591)" fill="url(#paint50_linear_125_560)"/>
<rect width="6.55202" height="6.55202" rx="0.561697" transform="matrix(0.870907 0.485221 -0.819393 0.533592 1183.83 566.473)" fill="url(#paint51_linear_125_560)"/>
<rect width="6.55202" height="6.55202" rx="0.561697" transform="matrix(-0.870907 -0.485221 -0.819393 0.533592 1136.36 547.941)" fill="url(#paint52_linear_125_560)"/>
<rect width="6.55202" height="6.55202" rx="0.561697" transform="matrix(-0.870907 -0.485221 -0.819393 0.533592 1132.17 553.522)" fill="url(#paint53_linear_125_560)"/>
<rect width="6.55202" height="6.55202" rx="0.561697" transform="matrix(-0.870907 -0.485221 -0.819393 0.533592 1129.04 559.7)" fill="url(#paint54_linear_125_560)"/>
<rect width="6.55202" height="6.55202" rx="0.561697" transform="matrix(0.870907 0.485221 -0.819393 0.533592 1190.81 570.365)" fill="url(#paint55_linear_125_560)"/>
<rect width="6.55202" height="6.55202" rx="0.561697" transform="matrix(-0.870907 -0.485221 -0.819393 0.533592 1129.38 544.049)" fill="url(#paint56_linear_125_560)"/>
<rect width="6.55202" height="6.55202" rx="0.561697" transform="matrix(-0.870907 -0.485221 -0.819393 0.533592 1125.18 549.63)" fill="url(#paint57_linear_125_560)"/>
<rect width="6.55202" height="6.55202" rx="0.561697" transform="matrix(-0.870907 -0.485221 -0.819393 0.533592 1122.06 555.808)" fill="url(#paint58_linear_125_560)"/>
<rect width="6.55202" height="6.55202" rx="0.561697" transform="matrix(-0.870907 -0.485221 -0.819393 0.533592 1100.55 551.739)" fill="url(#paint59_linear_125_560)"/>
<rect width="6.55202" height="6.55202" rx="0.561697" transform="matrix(-0.870907 -0.485221 -0.819393 0.533592 1107.53 555.631)" fill="url(#paint60_linear_125_560)"/>
<rect width="6.55202" height="6.55202" rx="0.561697" transform="matrix(0.870907 0.485221 -0.819393 0.533592 1197.8 574.256)" fill="url(#paint61_linear_125_560)"/>
<rect width="6.55202" height="6.55202" rx="0.561697" transform="matrix(-0.870907 -0.485221 -0.819393 0.533592 1122.39 540.157)" fill="url(#paint62_linear_125_560)"/>
<rect width="6.55202" height="6.55202" rx="0.561697" transform="matrix(-0.870907 -0.485221 -0.819393 0.533592 1118.2 545.738)" fill="url(#paint63_linear_125_560)"/>
<rect width="6.55202" height="6.55202" rx="0.561697" transform="matrix(-0.870907 -0.485221 -0.819393 0.533592 1115.07 551.916)" fill="url(#paint64_linear_125_560)"/>
<rect width="6.55202" height="6.55202" rx="0.561697" transform="matrix(-0.870907 -0.485221 -0.819393 0.533592 1093.56 547.847)" fill="url(#paint65_linear_125_560)"/>
<rect width="9.15752" height="6.55202" rx="0.561697" transform="matrix(0.870907 0.485221 -0.819393 0.533592 1204.79 578.147)" fill="url(#paint66_linear_125_560)"/>
<rect width="9.15752" height="6.55202" rx="0.561697" transform="matrix(-0.870907 -0.485221 -0.819393 0.533592 1115.4 536.266)" fill="url(#paint67_linear_125_560)"/>
<rect width="11.8649" height="6.55202" rx="0.561697" transform="matrix(-0.870907 -0.485221 -0.819393 0.533592 1111.21 541.846)" fill="url(#paint68_linear_125_560)"/>
<rect width="15.8036" height="6.55202" rx="0.561697" transform="matrix(-0.870907 -0.485221 -0.819393 0.533592 1108.09 548.024)" fill="url(#paint69_linear_125_560)"/>
<rect width="4.90527" height="38.538" transform="matrix(0.870907 0.485221 -0.819393 0.533592 1106.23 523.239)" fill="#4E4E4E" fill-opacity="0.47"/>
<rect width="4.90527" height="38.538" transform="matrix(0.870907 0.485221 -0.819393 0.533592 1216.32 584.572)" fill="#4E4E4E" fill-opacity="0.47"/>
<ellipse cx="1.21225" cy="1.22538" rx="1.21225" ry="1.22538" transform="matrix(0.870907 0.485221 -0.242199 0.969408 1185.6 461.474)" fill="#242424"/>
<ellipse cx="0.233371" cy="0.235899" rx="0.233371" ry="0.235899" transform="matrix(0.870907 0.485221 -0.242199 0.969408 1186.48 463.008)" fill="#838383"/>
<ellipse cx="0.801567" cy="0.810251" rx="0.801567" ry="0.810251" transform="matrix(0.870907 0.485221 -0.242199 0.969408 1185.67 461.817)" fill="url(#paint70_radial_125_560)"/>
<ellipse cx="0.0862285" cy="0.0871627" rx="0.0862285" ry="0.0871627" transform="matrix(0.870907 0.485221 -0.242199 0.969408 1185.97 462.299)" fill="white"/>
<path fill-rule="evenodd" clip-rule="evenodd" d="M1084.38 593.404L1040.3 568.981L1040.4 568.764L1084.49 593.187L1084.38 593.404Z" fill="url(#paint71_linear_125_560)"/>
<path fill-rule="evenodd" clip-rule="evenodd" d="M1149.64 629.61L1105.56 605.187L1105.66 604.97L1149.75 629.393L1149.64 629.61Z" fill="url(#paint72_linear_125_560)"/>
<path fill-rule="evenodd" clip-rule="evenodd" d="M1174.82 452.842L1130.73 428.419L1130.84 428.202L1174.93 452.625L1174.82 452.842Z" fill="url(#paint73_linear_125_560)"/>
<path d="M1133.04 429.432C1133.05 429.622 1132.91 429.78 1132.73 429.785C1132.55 429.79 1132.39 429.641 1132.38 429.45C1132.37 429.26 1132.51 429.102 1132.69 429.097C1132.88 429.092 1133.03 429.241 1133.04 429.432Z" fill="white"/>
<g opacity="0.39" filter="url(#filter15_f_125_560)">
<path fill-rule="evenodd" clip-rule="evenodd" d="M1114.79 518.933L1142.53 568.352L1200.39 601.522L1225.9 584.909C1227.88 583.625 1227.78 581.638 1225.68 580.471L1217.74 576.045L1216.15 577.077L1122.14 524.695L1123.72 523.664L1116.25 519.504C1115.81 519.258 1115.32 519.067 1114.79 518.933Z" fill="url(#paint74_linear_125_560)"/>
</g>
<path d="M1005.36 262.764L826.127 165.552L821.172 198.714L1000.4 295.926L1005.36 262.764Z" fill="white"/>
<path d="M815.731 150.16C817.762 151.262 819.697 150.219 820.054 147.831C820.411 145.443 819.054 142.615 817.023 141.513C814.993 140.412 813.058 141.455 812.701 143.843C812.344 146.23 813.701 149.059 815.731 150.16Z" fill="#FF004D"/>
<path d="M828.513 156.684C830.366 157.689 832.132 156.737 832.458 154.559C832.783 152.38 831.545 149.799 829.692 148.794C827.839 147.789 826.073 148.74 825.748 150.919C825.422 153.098 826.66 155.679 828.513 156.684Z" stroke="#B7B7B7" stroke-width="1.0772"/>
<path d="M841.182 163.964C843.212 165.066 845.148 164.023 845.504 161.635C845.861 159.247 844.504 156.419 842.474 155.317C840.443 154.216 838.508 155.259 838.151 157.647C837.794 160.035 839.151 162.863 841.182 163.964Z" fill="#6AD615"/>
<path d="M915.062 267.397L828.407 220.396C825.364 218.746 822.464 220.309 821.929 223.887C821.394 227.465 823.428 231.704 826.47 233.354L913.126 280.356C916.168 282.006 919.069 280.443 919.603 276.865C920.138 273.287 918.105 269.048 915.062 267.397Z" fill="#EBEBEB"/>
<path d="M885.511 289.048L823.198 255.25C820.156 253.599 817.256 255.162 816.721 258.74C816.186 262.319 818.219 266.557 821.262 268.208L883.575 302.006C886.618 303.656 889.518 302.093 890.053 298.515C890.587 294.937 888.554 290.698 885.511 289.048Z" fill="#EBEBEB"/>
<path d="M854.668 338.589L814.038 316.552C810.995 314.901 808.095 316.464 807.56 320.043C807.026 323.621 809.059 327.86 812.102 329.51L852.731 351.547C855.774 353.197 858.674 351.634 859.209 348.056C859.744 344.478 857.71 340.239 854.668 338.589Z" fill="#EBEBEB"/>
<path d="M889.85 388.653L809.756 345.21C806.713 343.56 803.813 345.123 803.278 348.701C802.743 352.279 804.777 356.518 807.819 358.168L887.913 401.611C890.956 403.261 893.856 401.698 894.391 398.12C894.926 394.542 892.892 390.303 889.85 388.653Z" fill="#EBEBEB"/>
<g filter="url(#filter16_d_125_560)">
<path fill-rule="evenodd" clip-rule="evenodd" d="M988.991 233.36C988.469 233.077 987.973 233.345 987.881 233.958L987.256 238.141L983.7 236.212C983.178 235.929 982.682 236.196 982.59 236.809C982.499 237.422 982.847 238.148 983.368 238.431L986.925 240.36L986.3 244.543C986.208 245.155 986.556 245.881 987.077 246.164C987.598 246.447 988.095 246.179 988.186 245.566L988.811 241.383L992.369 243.313C992.89 243.595 993.387 243.328 993.479 242.715C993.57 242.102 993.222 241.376 992.701 241.094L989.143 239.164L989.768 234.981C989.86 234.368 989.512 233.642 988.991 233.36Z" fill="url(#paint75_linear_125_560)"/>
</g>
</g>
</g>
<defs>
<filter id="filter0_ii_125_560" x="697.448" y="513.962" width="537.359" height="312.47" filterUnits="userSpaceOnUse" color-interpolation-filters="sRGB">
<feFlood flood-opacity="0" result="BackgroundImageFix"/>
<feBlend mode="normal" in="SourceGraphic" in2="BackgroundImageFix" result="shape"/>
<feColorMatrix in="SourceAlpha" type="matrix" values="0 0 0 0 0 0 0 0 0 0 0 0 0 0 0 0 0 0 127 0" result="hardAlpha"/>
<feOffset/>
<feGaussianBlur stdDeviation="0.567904"/>
<feComposite in2="hardAlpha" operator="arithmetic" k2="-1" k3="1"/>
<feColorMatrix type="matrix" values="0 0 0 0 0.0903861 0 0 0 0 0.0762847 0 0 0 0 0.108333 0 0 0 0.69 0"/>
<feBlend mode="normal" in2="shape" result="effect1_innerShadow_125_560"/>
<feColorMatrix in="SourceAlpha" type="matrix" values="0 0 0 0 0 0 0 0 0 0 0 0 0 0 0 0 0 0 127 0" result="hardAlpha"/>
<feMorphology radius="0.567904" operator="dilate" in="SourceAlpha" result="effect2_innerShadow_125_560"/>
<feOffset dy="0.567904"/>
<feGaussianBlur stdDeviation="0.425928"/>
<feComposite in2="hardAlpha" operator="arithmetic" k2="-1" k3="1"/>
<feColorMatrix type="matrix" values="0 0 0 0 1 0 0 0 0 1 0 0 0 0 1 0 0 0 1 0"/>
<feBlend mode="normal" in2="effect1_innerShadow_125_560" result="effect2_innerShadow_125_560"/>
</filter>
<filter id="filter1_f_125_560" x="827.828" y="474.992" width="469.122" height="345.229" filterUnits="userSpaceOnUse" color-interpolation-filters="sRGB">
<feFlood flood-opacity="0" result="BackgroundImageFix"/>
<feBlend mode="normal" in="SourceGraphic" in2="BackgroundImageFix" result="shape"/>
<feGaussianBlur stdDeviation="2.41359" result="effect1_foregroundBlur_125_560"/>
</filter>
<filter id="filter2_ddf_125_560" x="707.387" y="79.8288" width="575.679" height="691.561" filterUnits="userSpaceOnUse" color-interpolation-filters="sRGB">
<feFlood flood-opacity="0" result="BackgroundImageFix"/>
<feColorMatrix in="SourceAlpha" type="matrix" values="0 0 0 0 0 0 0 0 0 0 0 0 0 0 0 0 0 0 127 0" result="hardAlpha"/>
<feOffset dy="37.7018"/>
<feGaussianBlur stdDeviation="18.3123"/>
<feColorMatrix type="matrix" values="0 0 0 0 0.0636458 0 0 0 0 0.148246 0 0 0 0 0.195833 0 0 0 0.13 0"/>
<feBlend mode="normal" in2="BackgroundImageFix" result="effect1_dropShadow_125_560"/>
<feColorMatrix in="SourceAlpha" type="matrix" values="0 0 0 0 0 0 0 0 0 0 0 0 0 0 0 0 0 0 127 0" result="hardAlpha"/>
<feOffset/>
<feGaussianBlur stdDeviation="23.1597"/>
<feColorMatrix type="matrix" values="0 0 0 0 0.0698958 0 0 0 0 0.143604 0 0 0 0 0.254167 0 0 0 0.02 0"/>
<feBlend mode="normal" in2="effect1_dropShadow_125_560" result="effect2_dropShadow_125_560"/>
<feBlend mode="normal" in="SourceGraphic" in2="effect2_dropShadow_125_560" result="shape"/>
<feGaussianBlur stdDeviation="0.5386" result="effect3_foregroundBlur_125_560"/>
</filter>
<filter id="filter3_dd_125_560" x="919.267" y="404.992" width="45.3803" height="55.0897" filterUnits="userSpaceOnUse" color-interpolation-filters="sRGB">
<feFlood flood-opacity="0" result="BackgroundImageFix"/>
<feColorMatrix in="SourceAlpha" type="matrix" values="0 0 0 0 0 0 0 0 0 0 0 0 0 0 0 0 0 0 127 0" result="hardAlpha"/>
<feOffset/>
<feGaussianBlur stdDeviation="2.69299"/>
<feColorMatrix type="matrix" values="0 0 0 0 0.115538 0 0 0 0 0.174625 0 0 0 0 0.229167 0 0 0 0.1 0"/>
<feBlend mode="normal" in2="BackgroundImageFix" result="effect1_dropShadow_125_560"/>
<feColorMatrix in="SourceAlpha" type="matrix" values="0 0 0 0 0 0 0 0 0 0 0 0 0 0 0 0 0 0 127 0" result="hardAlpha"/>
<feOffset dy="9.69476"/>
<feGaussianBlur stdDeviation="6.46317"/>
<feColorMatrix type="matrix" values="0 0 0 0 0.0788715 0 0 0 0 0.233727 0 0 0 0 0.320833 0 0 0 0.19 0"/>
<feBlend mode="normal" in2="effect1_dropShadow_125_560" result="effect2_dropShadow_125_560"/>
<feBlend mode="normal" in="SourceGraphic" in2="effect2_dropShadow_125_560" result="shape"/>
</filter>
<filter id="filter4_i_125_560" x="951.619" y="286.665" width="41.3369" height="43.1945" filterUnits="userSpaceOnUse" color-interpolation-filters="sRGB">
<feFlood flood-opacity="0" result="BackgroundImageFix"/>
<feBlend mode="normal" in="SourceGraphic" in2="BackgroundImageFix" result="shape"/>
<feColorMatrix in="SourceAlpha" type="matrix" values="0 0 0 0 0 0 0 0 0 0 0 0 0 0 0 0 0 0 127 0" result="hardAlpha"/>
<feOffset dy="5.64442"/>
<feGaussianBlur stdDeviation="5.64442"/>
<feComposite in2="hardAlpha" operator="arithmetic" k2="-1" k3="1"/>
<feColorMatrix type="matrix" values="0 0 0 0 0.104479 0 0 0 0 0.161021 0 0 0 0 0.245833 0 0 0 0.17 0"/>
<feBlend mode="normal" in2="shape" result="effect1_innerShadow_125_560"/>
</filter>
<filter id="filter5_d_125_560" x="966.425" y="295.861" width="29.957" height="34.0647" filterUnits="userSpaceOnUse" color-interpolation-filters="sRGB">
<feFlood flood-opacity="0" result="BackgroundImageFix"/>
<feColorMatrix in="SourceAlpha" type="matrix" values="0 0 0 0 0 0 0 0 0 0 0 0 0 0 0 0 0 0 127 0" result="hardAlpha"/>
<feOffset dy="2.50863"/>
<feGaussianBlur stdDeviation="3.76294"/>
<feColorMatrix type="matrix" values="0 0 0 0 0.0989236 0 0 0 0 0.195252 0 0 0 0 0.308333 0 0 0 0.27 0"/>
<feBlend mode="normal" in2="BackgroundImageFix" result="effect1_dropShadow_125_560"/>
<feBlend mode="normal" in="SourceGraphic" in2="effect1_dropShadow_125_560" result="shape"/>
</filter>
<filter id="filter6_i_125_560" x="946.411" y="321.519" width="41.3369" height="43.1945" filterUnits="userSpaceOnUse" color-interpolation-filters="sRGB">
<feFlood flood-opacity="0" result="BackgroundImageFix"/>
<feBlend mode="normal" in="SourceGraphic" in2="BackgroundImageFix" result="shape"/>
<feColorMatrix in="SourceAlpha" type="matrix" values="0 0 0 0 0 0 0 0 0 0 0 0 0 0 0 0 0 0 127 0" result="hardAlpha"/>
<feOffset dy="5.64442"/>
<feGaussianBlur stdDeviation="5.64442"/>
<feComposite in2="hardAlpha" operator="arithmetic" k2="-1" k3="1"/>
<feColorMatrix type="matrix" values="0 0 0 0 0.104479 0 0 0 0 0.161021 0 0 0 0 0.245833 0 0 0 0.17 0"/>
<feBlend mode="normal" in2="shape" result="effect1_innerShadow_125_560"/>
</filter>
<filter id="filter7_d_125_560" x="942.628" y="320.632" width="29.957" height="34.0647" filterUnits="userSpaceOnUse" color-interpolation-filters="sRGB">
<feFlood flood-opacity="0" result="BackgroundImageFix"/>
<feColorMatrix in="SourceAlpha" type="matrix" values="0 0 0 0 0 0 0 0 0 0 0 0 0 0 0 0 0 0 127 0" result="hardAlpha"/>
<feOffset dy="2.50863"/>
<feGaussianBlur stdDeviation="3.76294"/>
<feColorMatrix type="matrix" values="0 0 0 0 0.0989236 0 0 0 0 0.195252 0 0 0 0 0.308333 0 0 0 0.27 0"/>
<feBlend mode="normal" in2="BackgroundImageFix" result="effect1_dropShadow_125_560"/>
<feBlend mode="normal" in="SourceGraphic" in2="effect1_dropShadow_125_560" result="shape"/>
</filter>
<filter id="filter8_dd_125_560" x="923.893" y="371.879" width="45.3803" height="58.3213" filterUnits="userSpaceOnUse" color-interpolation-filters="sRGB">
<feFlood flood-opacity="0" result="BackgroundImageFix"/>
<feColorMatrix in="SourceAlpha" type="matrix" values="0 0 0 0 0 0 0 0 0 0 0 0 0 0 0 0 0 0 127 0" result="hardAlpha"/>
<feOffset/>
<feGaussianBlur stdDeviation="3.77018"/>
<feColorMatrix type="matrix" values="0 0 0 0 0.0880209 0 0 0 0 0.46475 0 0 0 0 0.8125 0 0 0 0.35 0"/>
<feBlend mode="normal" in2="BackgroundImageFix" result="effect1_dropShadow_125_560"/>
<feColorMatrix in="SourceAlpha" type="matrix" values="0 0 0 0 0 0 0 0 0 0 0 0 0 0 0 0 0 0 127 0" result="hardAlpha"/>
<feOffset dy="10.772"/>
<feGaussianBlur stdDeviation="6.46317"/>
<feColorMatrix type="matrix" values="0 0 0 0 0.0179166 0 0 0 0 0.465117 0 0 0 0 0.716667 0 0 0 0.51 0"/>
<feBlend mode="normal" in2="effect1_dropShadow_125_560" result="effect2_dropShadow_125_560"/>
<feBlend mode="normal" in="SourceGraphic" in2="effect2_dropShadow_125_560" result="shape"/>
</filter>
<filter id="filter9_dd_125_560" x="914.526" y="434.565" width="45.3803" height="58.3213" filterUnits="userSpaceOnUse" color-interpolation-filters="sRGB">
<feFlood flood-opacity="0" result="BackgroundImageFix"/>
<feColorMatrix in="SourceAlpha" type="matrix" values="0 0 0 0 0 0 0 0 0 0 0 0 0 0 0 0 0 0 127 0" result="hardAlpha"/>
<feOffset/>
<feGaussianBlur stdDeviation="3.77018"/>
<feColorMatrix type="matrix" values="0 0 0 0 0.0880209 0 0 0 0 0.46475 0 0 0 0 0.8125 0 0 0 0.35 0"/>
<feBlend mode="normal" in2="BackgroundImageFix" result="effect1_dropShadow_125_560"/>
<feColorMatrix in="SourceAlpha" type="matrix" values="0 0 0 0 0 0 0 0 0 0 0 0 0 0 0 0 0 0 127 0" result="hardAlpha"/>
<feOffset dy="10.772"/>
<feGaussianBlur stdDeviation="6.46317"/>
<feColorMatrix type="matrix" values="0 0 0 0 0.0179166 0 0 0 0 0.465117 0 0 0 0 0.716667 0 0 0 0.51 0"/>
<feBlend mode="normal" in2="effect1_dropShadow_125_560" result="effect2_dropShadow_125_560"/>
<feBlend mode="normal" in="SourceGraphic" in2="effect2_dropShadow_125_560" result="shape"/>
</filter>
<filter id="filter10_i_125_560" x="799.273" y="121.839" width="437.473" height="264.856" filterUnits="userSpaceOnUse" color-interpolation-filters="sRGB">
<feFlood flood-opacity="0" result="BackgroundImageFix"/>
<feBlend mode="normal" in="SourceGraphic" in2="BackgroundImageFix" result="shape"/>
<feColorMatrix in="SourceAlpha" type="matrix" values="0 0 0 0 0 0 0 0 0 0 0 0 0 0 0 0 0 0 127 0" result="hardAlpha"/>
<feOffset dy="-4.30878"/>
<feGaussianBlur stdDeviation="9.15616"/>
<feComposite in2="hardAlpha" operator="arithmetic" k2="-1" k3="1"/>
<feColorMatrix type="matrix" values="0 0 0 0 0.0686111 0 0 0 0 0.367683 0 0 0 0 0.433333 0 0 0 0.08 0"/>
<feBlend mode="normal" in2="shape" result="effect1_innerShadow_125_560"/>
</filter>
<filter id="filter11_d_125_560" x="894.16" y="182.643" width="132.291" height="103.759" filterUnits="userSpaceOnUse" color-interpolation-filters="sRGB">
<feFlood flood-opacity="0" result="BackgroundImageFix"/>
<feColorMatrix in="SourceAlpha" type="matrix" values="0 0 0 0 0 0 0 0 0 0 0 0 0 0 0 0 0 0 127 0" result="hardAlpha"/>
<feOffset dy="4.30878"/>
<feGaussianBlur stdDeviation="8.61756"/>
<feColorMatrix type="matrix" values="0 0 0 0 0.0909028 0 0 0 0 0.325762 0 0 0 0 0.495833 0 0 0 0.15 0"/>
<feBlend mode="normal" in2="BackgroundImageFix" result="effect1_dropShadow_125_560"/>
<feBlend mode="normal" in="SourceGraphic" in2="effect1_dropShadow_125_560" result="shape"/>
</filter>
<filter id="filter12_d_125_560" x="832.391" y="150.54" width="162.696" height="118.85" filterUnits="userSpaceOnUse" color-interpolation-filters="sRGB">
<feFlood flood-opacity="0" result="BackgroundImageFix"/>
<feColorMatrix in="SourceAlpha" type="matrix" values="0 0 0 0 0 0 0 0 0 0 0 0 0 0 0 0 0 0 127 0" result="hardAlpha"/>
<feOffset dy="4.30878"/>
<feGaussianBlur stdDeviation="8.61756"/>
<feColorMatrix type="matrix" values="0 0 0 0 0.0909028 0 0 0 0 0.325762 0 0 0 0 0.495833 0 0 0 0.15 0"/>
<feBlend mode="normal" in2="BackgroundImageFix" result="effect1_dropShadow_125_560"/>
<feBlend mode="normal" in="SourceGraphic" in2="effect1_dropShadow_125_560" result="shape"/>
</filter>
<filter id="filter13_f_125_560" x="1033.77" y="483.088" width="254.034" height="157.56" filterUnits="userSpaceOnUse" color-interpolation-filters="sRGB">
<feFlood flood-opacity="0" result="BackgroundImageFix"/>
<feBlend mode="normal" in="SourceGraphic" in2="BackgroundImageFix" result="shape"/>
<feGaussianBlur stdDeviation="2.12964" result="effect1_foregroundBlur_125_560"/>
</filter>
<filter id="filter14_ii_125_560" x="1081.78" y="527.103" width="131.985" height="76.8634" filterUnits="userSpaceOnUse" color-interpolation-filters="sRGB">
<feFlood flood-opacity="0" result="BackgroundImageFix"/>
<feBlend mode="normal" in="SourceGraphic" in2="BackgroundImageFix" result="shape"/>
<feColorMatrix in="SourceAlpha" type="matrix" values="0 0 0 0 0 0 0 0 0 0 0 0 0 0 0 0 0 0 127 0" result="hardAlpha"/>
<feOffset/>
<feGaussianBlur stdDeviation="0.567904"/>
<feComposite in2="hardAlpha" operator="arithmetic" k2="-1" k3="1"/>
<feColorMatrix type="matrix" values="0 0 0 0 0.0903861 0 0 0 0 0.0762847 0 0 0 0 0.108333 0 0 0 0.69 0"/>
<feBlend mode="normal" in2="shape" result="effect1_innerShadow_125_560"/>
<feColorMatrix in="SourceAlpha" type="matrix" values="0 0 0 0 0 0 0 0 0 0 0 0 0 0 0 0 0 0 127 0" result="hardAlpha"/>
<feMorphology radius="0.567904" operator="dilate" in="SourceAlpha" result="effect2_innerShadow_125_560"/>
<feOffset dy="0.567904"/>
<feGaussianBlur stdDeviation="0.425928"/>
<feComposite in2="hardAlpha" operator="arithmetic" k2="-1" k3="1"/>
<feColorMatrix type="matrix" values="0 0 0 0 1 0 0 0 0 1 0 0 0 0 1 0 0 0 1 0"/>
<feBlend mode="normal" in2="effect1_innerShadow_125_560" result="effect2_innerShadow_125_560"/>
</filter>
<filter id="filter15_f_125_560" x="1109.96" y="514.106" width="122.185" height="92.2435" filterUnits="userSpaceOnUse" color-interpolation-filters="sRGB">
<feFlood flood-opacity="0" result="BackgroundImageFix"/>
<feBlend mode="normal" in="SourceGraphic" in2="BackgroundImageFix" result="shape"/>
<feGaussianBlur stdDeviation="2.41359" result="effect1_foregroundBlur_125_560"/>
</filter>
<filter id="filter16_d_125_560" x="981.498" y="232.17" width="13.0719" height="15.184" filterUnits="userSpaceOnUse" color-interpolation-filters="sRGB">
<feFlood flood-opacity="0" result="BackgroundImageFix"/>
<feColorMatrix in="SourceAlpha" type="matrix" values="0 0 0 0 0 0 0 0 0 0 0 0 0 0 0 0 0 0 127 0" result="hardAlpha"/>
<feOffset/>
<feGaussianBlur stdDeviation="0.538598"/>
<feColorMatrix type="matrix" values="0 0 0 0 0.400208 0 0 0 0 0.470833 0 0 0 0 0.466596 0 0 0 0.25 0"/>
<feBlend mode="normal" in2="BackgroundImageFix" result="effect1_dropShadow_125_560"/>
<feBlend mode="normal" in="SourceGraphic" in2="effect1_dropShadow_125_560" result="shape"/>
</filter>
<linearGradient id="paint0_linear_125_560" x1="1414.49" y1="147.744" x2="1135.04" y2="737.014" gradientUnits="userSpaceOnUse">
<stop stop-color="#474747"/>
<stop offset="0.61" stop-color="#181818"/>
</linearGradient>
<linearGradient id="paint1_linear_125_560" x1="1166.99" y1="1196.5" x2="271.001" y2="354.368" gradientUnits="userSpaceOnUse">
<stop offset="0.279687" stop-color="#F98C27"/>
<stop offset="1" stop-color="#FFAC30" stop-opacity="0"/>
</linearGradient>
<linearGradient id="paint2_linear_125_560" x1="67.4227" y1="0" x2="67.4227" y2="161.424" gradientUnits="userSpaceOnUse">
<stop stop-opacity="0"/>
<stop offset="0.0001" stop-opacity="0"/>
<stop offset="0.614583" stop-color="#2C4348"/>
</linearGradient>
<linearGradient id="paint3_linear_125_560" x1="8.3858" y1="4.26882" x2="95.7727" y2="120.262" gradientUnits="userSpaceOnUse">
<stop stop-color="#0D0D0D"/>
<stop offset="0.484375" stop-color="#262626"/>
<stop offset="0.541667" stop-color="#0E0E0E"/>
<stop offset="1" stop-color="#272425"/>
</linearGradient>
<linearGradient id="paint4_linear_125_560" x1="1226.1" y1="564.322" x2="1039.24" y2="573.77" gradientUnits="userSpaceOnUse">
<stop stop-color="#2E2E2E"/>
<stop offset="0.0152179" stop-color="#454B50"/>
<stop offset="0.0909353" stop-color="#485666"/>
<stop offset="0.351348" stop-color="#44474D"/>
<stop offset="0.402508" stop-color="#848484"/>
<stop offset="0.446897" stop-color="#525353"/>
<stop offset="0.662573" stop-color="#767676"/>
<stop offset="0.666513" stop-color="#6E7276"/>
<stop offset="0.717302" stop-color="#545557"/>
<stop offset="0.750578" stop-color="#383B44"/>
<stop offset="0.754519" stop-color="#4B5359"/>
<stop offset="0.976451" stop-color="#565759"/>
<stop offset="1" stop-color="#979797"/>
</linearGradient>
<linearGradient id="paint5_linear_125_560" x1="1045.26" y1="535.258" x2="1201.75" y2="474.56" gradientUnits="userSpaceOnUse">
<stop stop-color="#606872"/>
<stop offset="0.271874" stop-color="#6F7275"/>
<stop offset="0.612224" stop-color="#585F67"/>
<stop offset="0.998493" stop-color="#697078"/>
</linearGradient>
<radialGradient id="paint6_radial_125_560" cx="0" cy="0" r="1" gradientUnits="userSpaceOnUse" gradientTransform="translate(31.5048 18.7638) rotate(90) scale(18.7638 31.5048)">
<stop stop-color="#72757B" stop-opacity="0.76"/>
<stop offset="1" stop-color="#545860" stop-opacity="0.7"/>
</radialGradient>
<linearGradient id="paint7_linear_125_560" x1="3.27601" y1="0" x2="3.27601" y2="6.55202" gradientUnits="userSpaceOnUse">
<stop stop-color="#1B1B1B"/>
<stop offset="0.869792"/>
<stop offset="1" stop-color="#3A3A3A"/>
</linearGradient>
<linearGradient id="paint8_linear_125_560" x1="3.27601" y1="0" x2="3.27601" y2="6.55202" gradientUnits="userSpaceOnUse">
<stop stop-color="#1B1B1B"/>
<stop offset="0.869792"/>
<stop offset="1" stop-color="#3A3A3A"/>
</linearGradient>
<linearGradient id="paint9_linear_125_560" x1="3.27601" y1="0" x2="3.27601" y2="6.55202" gradientUnits="userSpaceOnUse">
<stop stop-color="#1B1B1B"/>
<stop offset="0.869792"/>
<stop offset="1" stop-color="#3A3A3A"/>
</linearGradient>
<linearGradient id="paint10_linear_125_560" x1="3.27601" y1="0" x2="3.27601" y2="6.55202" gradientUnits="userSpaceOnUse">
<stop stop-color="#1B1B1B"/>
<stop offset="0.869792"/>
<stop offset="1" stop-color="#3A3A3A"/>
</linearGradient>
<linearGradient id="paint11_linear_125_560" x1="5.93256" y1="0" x2="5.93256" y2="6.55202" gradientUnits="userSpaceOnUse">
<stop stop-color="#1B1B1B"/>
<stop offset="0.869792"/>
<stop offset="1" stop-color="#3A3A3A"/>
</linearGradient>
<linearGradient id="paint12_linear_125_560" x1="3.27601" y1="0" x2="3.27601" y2="6.55202" gradientUnits="userSpaceOnUse">
<stop stop-color="#1B1B1B"/>
<stop offset="0.869792"/>
<stop offset="1" stop-color="#3A3A3A"/>
</linearGradient>
<linearGradient id="paint13_linear_125_560" x1="3.27601" y1="0" x2="3.27601" y2="6.55202" gradientUnits="userSpaceOnUse">
<stop stop-color="#1B1B1B"/>
<stop offset="0.869792"/>
<stop offset="1" stop-color="#3A3A3A"/>
</linearGradient>
<linearGradient id="paint14_linear_125_560" x1="3.27601" y1="0" x2="3.27601" y2="6.55202" gradientUnits="userSpaceOnUse">
<stop stop-color="#1B1B1B"/>
<stop offset="0.869792"/>
<stop offset="1" stop-color="#3A3A3A"/>
</linearGradient>
<linearGradient id="paint15_linear_125_560" x1="7.97347" y1="0" x2="7.97347" y2="6.55202" gradientUnits="userSpaceOnUse">
<stop stop-color="#1B1B1B"/>
<stop offset="0.869792"/>
<stop offset="1" stop-color="#3A3A3A"/>
</linearGradient>
<linearGradient id="paint16_linear_125_560" x1="3.27601" y1="0" x2="3.27601" y2="6.55202" gradientUnits="userSpaceOnUse">
<stop stop-color="#1B1B1B"/>
<stop offset="0.869792"/>
<stop offset="1" stop-color="#3A3A3A"/>
</linearGradient>
<linearGradient id="paint17_linear_125_560" x1="3.27601" y1="0" x2="3.27601" y2="6.55202" gradientUnits="userSpaceOnUse">
<stop stop-color="#1B1B1B"/>
<stop offset="0.869792"/>
<stop offset="1" stop-color="#3A3A3A"/>
</linearGradient>
<linearGradient id="paint18_linear_125_560" x1="3.27601" y1="0" x2="3.27601" y2="6.55202" gradientUnits="userSpaceOnUse">
<stop stop-color="#1B1B1B"/>
<stop offset="0.869792"/>
<stop offset="1" stop-color="#3A3A3A"/>
</linearGradient>
<linearGradient id="paint19_linear_125_560" x1="3.27601" y1="0" x2="3.27601" y2="6.55202" gradientUnits="userSpaceOnUse">
<stop stop-color="#1B1B1B"/>
<stop offset="0.869792"/>
<stop offset="1" stop-color="#3A3A3A"/>
</linearGradient>
<linearGradient id="paint20_linear_125_560" x1="3.27601" y1="0" x2="3.27601" y2="6.55202" gradientUnits="userSpaceOnUse">
<stop stop-color="#1B1B1B"/>
<stop offset="0.869792"/>
<stop offset="1" stop-color="#3A3A3A"/>
</linearGradient>
<linearGradient id="paint21_linear_125_560" x1="3.27601" y1="0" x2="3.27601" y2="3.4298" gradientUnits="userSpaceOnUse">
<stop stop-color="#1B1B1B"/>
<stop offset="0.869792"/>
<stop offset="1" stop-color="#3A3A3A"/>
</linearGradient>
<linearGradient id="paint22_linear_125_560" x1="3.27601" y1="0" x2="3.27601" y2="6.55202" gradientUnits="userSpaceOnUse">
<stop stop-color="#1B1B1B"/>
<stop offset="0.869792"/>
<stop offset="1" stop-color="#3A3A3A"/>
</linearGradient>
<linearGradient id="paint23_linear_125_560" x1="3.27601" y1="0" x2="3.27601" y2="3.42973" gradientUnits="userSpaceOnUse">
<stop stop-color="#1B1B1B"/>
<stop offset="0.869792"/>
<stop offset="1" stop-color="#3A3A3A"/>
</linearGradient>
<linearGradient id="paint24_linear_125_560" x1="3.27601" y1="0" x2="3.27601" y2="6.55202" gradientUnits="userSpaceOnUse">
<stop stop-color="#1B1B1B"/>
<stop offset="0.869792"/>
<stop offset="1" stop-color="#3A3A3A"/>
</linearGradient>
<linearGradient id="paint25_linear_125_560" x1="3.27601" y1="0" x2="3.27601" y2="6.55202" gradientUnits="userSpaceOnUse">
<stop stop-color="#1B1B1B"/>
<stop offset="0.869792"/>
<stop offset="1" stop-color="#3A3A3A"/>
</linearGradient>
<linearGradient id="paint26_linear_125_560" x1="3.27601" y1="0" x2="3.27601" y2="6.55202" gradientUnits="userSpaceOnUse">
<stop stop-color="#1B1B1B"/>
<stop offset="0.869792"/>
<stop offset="1" stop-color="#3A3A3A"/>
</linearGradient>
<linearGradient id="paint27_linear_125_560" x1="3.27601" y1="0" x2="3.27601" y2="6.55202" gradientUnits="userSpaceOnUse">
<stop stop-color="#1B1B1B"/>
<stop offset="0.869792"/>
<stop offset="1" stop-color="#3A3A3A"/>
</linearGradient>
<linearGradient id="paint28_linear_125_560" x1="4.01023" y1="0" x2="4.01023" y2="6.55202" gradientUnits="userSpaceOnUse">
<stop stop-color="#1B1B1B"/>
<stop offset="0.869792"/>
<stop offset="1" stop-color="#3A3A3A"/>
</linearGradient>
<linearGradient id="paint29_linear_125_560" x1="4.01023" y1="0" x2="4.01023" y2="6.55202" gradientUnits="userSpaceOnUse">
<stop stop-color="#1B1B1B"/>
<stop offset="0.869792"/>
<stop offset="1" stop-color="#3A3A3A"/>
</linearGradient>
<linearGradient id="paint30_linear_125_560" x1="19.1514" y1="0" x2="19.1514" y2="6.55202" gradientUnits="userSpaceOnUse">
<stop stop-color="#1B1B1B"/>
<stop offset="0.869792"/>
<stop offset="1" stop-color="#3A3A3A"/>
</linearGradient>
<linearGradient id="paint31_linear_125_560" x1="3.27601" y1="0" x2="3.27601" y2="6.55202" gradientUnits="userSpaceOnUse">
<stop stop-color="#1B1B1B"/>
<stop offset="0.869792"/>
<stop offset="1" stop-color="#3A3A3A"/>
</linearGradient>
<linearGradient id="paint32_linear_125_560" x1="3.27601" y1="0" x2="3.27601" y2="6.55202" gradientUnits="userSpaceOnUse">
<stop stop-color="#1B1B1B"/>
<stop offset="0.869792"/>
<stop offset="1" stop-color="#3A3A3A"/>
</linearGradient>
<linearGradient id="paint33_linear_125_560" x1="3.27601" y1="0" x2="3.27601" y2="6.55202" gradientUnits="userSpaceOnUse">
<stop stop-color="#1B1B1B"/>
<stop offset="0.869792"/>
<stop offset="1" stop-color="#3A3A3A"/>
</linearGradient>
<linearGradient id="paint34_linear_125_560" x1="3.27601" y1="0" x2="3.27601" y2="6.55202" gradientUnits="userSpaceOnUse">
<stop stop-color="#1B1B1B"/>
<stop offset="0.869792"/>
<stop offset="1" stop-color="#3A3A3A"/>
</linearGradient>
<linearGradient id="paint35_linear_125_560" x1="3.27601" y1="0" x2="3.27601" y2="6.55202" gradientUnits="userSpaceOnUse">
<stop stop-color="#1B1B1B"/>
<stop offset="0.869792"/>
<stop offset="1" stop-color="#3A3A3A"/>
</linearGradient>
<linearGradient id="paint36_linear_125_560" x1="3.27601" y1="0" x2="3.27601" y2="6.55202" gradientUnits="userSpaceOnUse">
<stop stop-color="#1B1B1B"/>
<stop offset="0.869792"/>
<stop offset="1" stop-color="#3A3A3A"/>
</linearGradient>
<linearGradient id="paint37_linear_125_560" x1="3.27601" y1="0" x2="3.27601" y2="6.55202" gradientUnits="userSpaceOnUse">
<stop stop-color="#1B1B1B"/>
<stop offset="0.869792"/>
<stop offset="1" stop-color="#3A3A3A"/>
</linearGradient>
<linearGradient id="paint38_linear_125_560" x1="3.27601" y1="0" x2="3.27601" y2="6.55202" gradientUnits="userSpaceOnUse">
<stop stop-color="#1B1B1B"/>
<stop offset="0.869792"/>
<stop offset="1" stop-color="#3A3A3A"/>
</linearGradient>
<linearGradient id="paint39_linear_125_560" x1="3.27601" y1="0" x2="3.27601" y2="6.55202" gradientUnits="userSpaceOnUse">
<stop stop-color="#1B1B1B"/>
<stop offset="0.869792"/>
<stop offset="1" stop-color="#3A3A3A"/>
</linearGradient>
<linearGradient id="paint40_linear_125_560" x1="3.27601" y1="0" x2="3.27601" y2="6.55202" gradientUnits="userSpaceOnUse">
<stop stop-color="#1B1B1B"/>
<stop offset="0.869792"/>
<stop offset="1" stop-color="#3A3A3A"/>
</linearGradient>
<linearGradient id="paint41_linear_125_560" x1="3.27601" y1="0" x2="3.27601" y2="6.55202" gradientUnits="userSpaceOnUse">
<stop stop-color="#1B1B1B"/>
<stop offset="0.869792"/>
<stop offset="1" stop-color="#3A3A3A"/>
</linearGradient>
<linearGradient id="paint42_linear_125_560" x1="3.27601" y1="0" x2="3.27601" y2="6.55202" gradientUnits="userSpaceOnUse">
<stop stop-color="#1B1B1B"/>
<stop offset="0.869792"/>
<stop offset="1" stop-color="#3A3A3A"/>
</linearGradient>
<linearGradient id="paint43_linear_125_560" x1="3.27601" y1="0" x2="3.27601" y2="6.55202" gradientUnits="userSpaceOnUse">
<stop stop-color="#1B1B1B"/>
<stop offset="0.869792"/>
<stop offset="1" stop-color="#3A3A3A"/>
</linearGradient>
<linearGradient id="paint44_linear_125_560" x1="3.27601" y1="0" x2="3.27601" y2="6.55202" gradientUnits="userSpaceOnUse">
<stop stop-color="#1B1B1B"/>
<stop offset="0.869792"/>
<stop offset="1" stop-color="#3A3A3A"/>
</linearGradient>
<linearGradient id="paint45_linear_125_560" x1="3.27601" y1="0" x2="3.27601" y2="6.55202" gradientUnits="userSpaceOnUse">
<stop stop-color="#1B1B1B"/>
<stop offset="0.869792"/>
<stop offset="1" stop-color="#3A3A3A"/>
</linearGradient>
<linearGradient id="paint46_linear_125_560" x1="3.27601" y1="0" x2="3.27601" y2="6.55202" gradientUnits="userSpaceOnUse">
<stop stop-color="#1B1B1B"/>
<stop offset="0.869792"/>
<stop offset="1" stop-color="#3A3A3A"/>
</linearGradient>
<linearGradient id="paint47_linear_125_560" x1="3.27601" y1="0" x2="3.27601" y2="6.55202" gradientUnits="userSpaceOnUse">
<stop stop-color="#1B1B1B"/>
<stop offset="0.869792"/>
<stop offset="1" stop-color="#3A3A3A"/>
</linearGradient>
<linearGradient id="paint48_linear_125_560" x1="3.27601" y1="0" x2="3.27601" y2="6.55202" gradientUnits="userSpaceOnUse">
<stop stop-color="#1B1B1B"/>
<stop offset="0.869792"/>
<stop offset="1" stop-color="#3A3A3A"/>
</linearGradient>
<linearGradient id="paint49_linear_125_560" x1="3.27601" y1="0" x2="3.27601" y2="6.55202" gradientUnits="userSpaceOnUse">
<stop stop-color="#1B1B1B"/>
<stop offset="0.869792"/>
<stop offset="1" stop-color="#3A3A3A"/>
</linearGradient>
<linearGradient id="paint50_linear_125_560" x1="3.27601" y1="0" x2="3.27601" y2="6.55202" gradientUnits="userSpaceOnUse">
<stop stop-color="#1B1B1B"/>
<stop offset="0.869792"/>
<stop offset="1" stop-color="#3A3A3A"/>
</linearGradient>
<linearGradient id="paint51_linear_125_560" x1="3.27601" y1="0" x2="3.27601" y2="6.55202" gradientUnits="userSpaceOnUse">
<stop stop-color="#1B1B1B"/>
<stop offset="0.869792"/>
<stop offset="1" stop-color="#3A3A3A"/>
</linearGradient>
<linearGradient id="paint52_linear_125_560" x1="3.27601" y1="0" x2="3.27601" y2="6.55202" gradientUnits="userSpaceOnUse">
<stop stop-color="#1B1B1B"/>
<stop offset="0.869792"/>
<stop offset="1" stop-color="#3A3A3A"/>
</linearGradient>
<linearGradient id="paint53_linear_125_560" x1="3.27601" y1="0" x2="3.27601" y2="6.55202" gradientUnits="userSpaceOnUse">
<stop stop-color="#1B1B1B"/>
<stop offset="0.869792"/>
<stop offset="1" stop-color="#3A3A3A"/>
</linearGradient>
<linearGradient id="paint54_linear_125_560" x1="3.27601" y1="0" x2="3.27601" y2="6.55202" gradientUnits="userSpaceOnUse">
<stop stop-color="#1B1B1B"/>
<stop offset="0.869792"/>
<stop offset="1" stop-color="#3A3A3A"/>
</linearGradient>
<linearGradient id="paint55_linear_125_560" x1="3.27601" y1="0" x2="3.27601" y2="6.55202" gradientUnits="userSpaceOnUse">
<stop stop-color="#1B1B1B"/>
<stop offset="0.869792"/>
<stop offset="1" stop-color="#3A3A3A"/>
</linearGradient>
<linearGradient id="paint56_linear_125_560" x1="3.27601" y1="0" x2="3.27601" y2="6.55202" gradientUnits="userSpaceOnUse">
<stop stop-color="#1B1B1B"/>
<stop offset="0.869792"/>
<stop offset="1" stop-color="#3A3A3A"/>
</linearGradient>
<linearGradient id="paint57_linear_125_560" x1="3.27601" y1="0" x2="3.27601" y2="6.55202" gradientUnits="userSpaceOnUse">
<stop stop-color="#1B1B1B"/>
<stop offset="0.869792"/>
<stop offset="1" stop-color="#3A3A3A"/>
</linearGradient>
<linearGradient id="paint58_linear_125_560" x1="3.27601" y1="0" x2="3.27601" y2="6.55202" gradientUnits="userSpaceOnUse">
<stop stop-color="#1B1B1B"/>
<stop offset="0.869792"/>
<stop offset="1" stop-color="#3A3A3A"/>
</linearGradient>
<linearGradient id="paint59_linear_125_560" x1="3.27601" y1="0" x2="3.27601" y2="6.55202" gradientUnits="userSpaceOnUse">
<stop stop-color="#1B1B1B"/>
<stop offset="0.869792"/>
<stop offset="1" stop-color="#3A3A3A"/>
</linearGradient>
<linearGradient id="paint60_linear_125_560" x1="3.27601" y1="0" x2="3.27601" y2="6.55202" gradientUnits="userSpaceOnUse">
<stop stop-color="#1B1B1B"/>
<stop offset="0.869792"/>
<stop offset="1" stop-color="#3A3A3A"/>
</linearGradient>
<linearGradient id="paint61_linear_125_560" x1="3.27601" y1="0" x2="3.27601" y2="6.55202" gradientUnits="userSpaceOnUse">
<stop stop-color="#1B1B1B"/>
<stop offset="0.869792"/>
<stop offset="1" stop-color="#3A3A3A"/>
</linearGradient>
<linearGradient id="paint62_linear_125_560" x1="3.27601" y1="0" x2="3.27601" y2="6.55202" gradientUnits="userSpaceOnUse">
<stop stop-color="#1B1B1B"/>
<stop offset="0.869792"/>
<stop offset="1" stop-color="#3A3A3A"/>
</linearGradient>
<linearGradient id="paint63_linear_125_560" x1="3.27601" y1="0" x2="3.27601" y2="6.55202" gradientUnits="userSpaceOnUse">
<stop stop-color="#1B1B1B"/>
<stop offset="0.869792"/>
<stop offset="1" stop-color="#3A3A3A"/>
</linearGradient>
<linearGradient id="paint64_linear_125_560" x1="3.27601" y1="0" x2="3.27601" y2="6.55202" gradientUnits="userSpaceOnUse">
<stop stop-color="#1B1B1B"/>
<stop offset="0.869792"/>
<stop offset="1" stop-color="#3A3A3A"/>
</linearGradient>
<linearGradient id="paint65_linear_125_560" x1="3.27601" y1="0" x2="3.27601" y2="6.55202" gradientUnits="userSpaceOnUse">
<stop stop-color="#1B1B1B"/>
<stop offset="0.869792"/>
<stop offset="1" stop-color="#3A3A3A"/>
</linearGradient>
<linearGradient id="paint66_linear_125_560" x1="4.57876" y1="0" x2="4.57876" y2="6.55202" gradientUnits="userSpaceOnUse">
<stop stop-color="#1B1B1B"/>
<stop offset="0.869792"/>
<stop offset="1" stop-color="#3A3A3A"/>
</linearGradient>
<linearGradient id="paint67_linear_125_560" x1="4.57876" y1="0" x2="4.57876" y2="6.55202" gradientUnits="userSpaceOnUse">
<stop stop-color="#1B1B1B"/>
<stop offset="0.869792"/>
<stop offset="1" stop-color="#3A3A3A"/>
</linearGradient>
<linearGradient id="paint68_linear_125_560" x1="5.93247" y1="0" x2="5.93247" y2="6.55202" gradientUnits="userSpaceOnUse">
<stop stop-color="#1B1B1B"/>
<stop offset="0.869792"/>
<stop offset="1" stop-color="#3A3A3A"/>
</linearGradient>
<linearGradient id="paint69_linear_125_560" x1="7.90181" y1="0" x2="7.90181" y2="6.55202" gradientUnits="userSpaceOnUse">
<stop stop-color="#1B1B1B"/>
<stop offset="0.869792"/>
<stop offset="1" stop-color="#3A3A3A"/>
</linearGradient>
<radialGradient id="paint70_radial_125_560" cx="0" cy="0" r="1" gradientUnits="userSpaceOnUse" gradientTransform="translate(0.801567 0.810251) rotate(90) scale(0.810251 0.801567)">
<stop stop-color="white" stop-opacity="0.33"/>
<stop offset="1" stop-color="white" stop-opacity="0"/>
</radialGradient>
<linearGradient id="paint71_linear_125_560" x1="1061.75" y1="568.26" x2="1062.48" y2="593.924" gradientUnits="userSpaceOnUse">
<stop stop-color="white" stop-opacity="0.6"/>
<stop offset="1" stop-color="white" stop-opacity="0"/>
</linearGradient>
<linearGradient id="paint72_linear_125_560" x1="1127.01" y1="604.466" x2="1127.74" y2="630.13" gradientUnits="userSpaceOnUse">
<stop stop-color="white" stop-opacity="0"/>
<stop offset="0.515625" stop-color="white" stop-opacity="0.45"/>
<stop offset="1" stop-color="white" stop-opacity="0"/>
</linearGradient>
<linearGradient id="paint73_linear_125_560" x1="1152.18" y1="427.698" x2="1152.92" y2="453.362" gradientUnits="userSpaceOnUse">
<stop stop-color="white" stop-opacity="0.6"/>
<stop offset="1" stop-color="white" stop-opacity="0"/>
</linearGradient>
<linearGradient id="paint74_linear_125_560" x1="1148.04" y1="534.354" x2="1124.77" y2="580.934" gradientUnits="userSpaceOnUse">
<stop stop-color="#E982A5"/>
<stop offset="0.307087" stop-color="#9EC3E9" stop-opacity="0"/>
</linearGradient>
<linearGradient id="paint75_linear_125_560" x1="989.324" y1="235.97" x2="983.289" y2="241.545" gradientUnits="userSpaceOnUse">
<stop stop-color="#AAAAAA"/>
<stop offset="1" stop-color="#818181"/>
</linearGradient>
<clipPath id="clip0_125_560">
<rect width="499.807" height="345.785" fill="white" transform="matrix(0.876003 0.475136 -0.148135 0.991333 803.514 122.61)"/>
</clipPath>
</defs>
</svg>
